<svg xmlns="http://www.w3.org/2000/svg" viewBox="0 0 1829 1595"><circle cx="712.2" cy="655.5" r="573.5" fill="url(#a)"/><circle cx="1031.2" cy="797.5" r="797.5" fill="url(#b)"/><path fill="#fff" fill-opacity=".2" d="m786.1 742.5-18 31.2 18 31.2h36l18-31.2-18-31.2zm-117.4-68-18 31.2 18 31.2h36l18.1-31.2-18-31.2zm-117.3.2-18 31.2 18 31.2h36l18-31.2-18-31.2zm117.3 135.8-18 31.2 18 31.2h36l18.1-31.2-18-31.2zM962 708.7l-18 31.2 18 31.2h36.1l18-31.2-18-31.2zm-58.5 169-18 31.2 18 31.3h36l18-31.3-18-31.2zm117.8-270.8-18 31.2 18 31.2h36l18-31.2-18-31.2zm175.3 34.7-18 31.2 18 31.2h36l18-31.2-18-31.2zM1080 776.3l-18 31.2 18 31.2h36l18-31.2-18-31.2zM845.2 573l-18 31.2 18 31.2h36l18-31.2-18-31.2zm-118-67.8-18 31.2 18 31.2h36l18-31.2-18-31.2zm-117.5-67.7-18 31.2 18 31.2h36l18-31.2-18-31.2zm176.5-169.8-18 31.2 18 31.2h36l18-31.2-18-31.2zm117.3 136-18 31.2 18 31.2h36l18-31.2-18-31.2zm58.3-101.9-18 31.2 18 31.3h36l18-31.3-18-31.2zm176 169.6-18 31.2 18 31.2h36l18-31.2-18-31.2zM258 979.6l-18 31.2 18 31.2h36l18-31.2-18-31.2zm-117.4-68-18 31.2 18 31.2h36l18-31.2-18-31.2zm-117.3.2-18 31.3 18 31.2h36l18-31.2-18-31.3zm117.3 135.8-18 31.2 18 31.2h36l18-31.2-18-31.2zM434 945.8 416 977l18 31.2h36l18-31.2-18-31.2zm-58.6 169.1-18 31.2 18 31.2h36l18-31.2-18-31.2zM493.1 844l-18 31.2 18 31.2h36l18.1-31.2-18-31.2zm175.4 34.7-18 31.2 18 31.2h36l18-31.2-18-31.2zm-116.7 134.7-18 31.2 18 31.2h36l18-31.2-18-31.2zM317.1 810.1l-18 31.2 18 31.2h36l18-31.2-18-31.2zm-118-67.8-18 31.2 18 31.2h36l18-31.2-18-31.2zM81.6 674.6l-18 31.2 18 31.2h36l18-31.2-18-31.2zm176.5-169.8-18 31.3 18 31.2h36l18-31.2-18-31.3zm117.3 136-18 31.2 18 31.3h36l18-31.3-18-31.2zM433.7 539l-18 31.2 18 31.2h36l18-31.2-18-31.2zm176 169.5-18 31.2 18 31.2h36l18-31.2-18-31.2z"/><path fill="#fff" fill-opacity=".3" d="M727.3 839.5a2.3 2.3 0 0 1 0 3.8l17.3 30a2.3 2.3 0 1 1 0 4.1l-17.4 30c.6.4 1 1.1 1 1.8 0 1.2-1 2.2-2.3 2.2-1.2 0-2.1-.8-2.2-2h-34.6a2.3 2.3 0 0 1-3.2 1.8l-17.4 30c.7.5 1 1.1 1 1.9 0 1.2-1 2.2-2.2 2.2-1.2 0-2.2-.9-2.3-2h-31.1a5.8 5.8 0 0 1-8.4 4.8l-15.6 27a2.3 2.3 0 0 1 0 3.7l17.3 30a2.3 2.3 0 0 1 3.2 2c0 1.3-1 2.3-2.2 2.3l-1-.2-15.6 27.1a6 6 0 0 1 2.5 4.8c0 3.2-2.5 5.8-5.7 5.8a5.8 5.8 0 0 1-5.7-5.7h-31c0 1.2-1 2.2-2.3 2.2-1.3 0-2.3-1-2.3-2.3 0-.8.4-1.5 1-1.9l-17.3-30-.8.2c-1.2 0-2.1-.9-2.3-2H513c-.2 1.1-1.1 2-2.3 2l-.8-.2-17.4 30c.6.4 1 1.1 1 1.8-.2 1.1-1.1 2-2.3 2-1 0-2-.7-2.2-1.7h-34.6c0 1-.9 1.8-2 2h-.1c-.4 0-.7-.1-1-.3l-15.6 27a5.8 5.8 0 0 1 0 9.7l15.6 27a2.3 2.3 0 0 1 3.2 2.1c0 1.2-1 2.2-2.2 2.2l-1-.2-17.4 30c.6.4 1 1 1 1.8 0 1.3-1 2.3-2.2 2.3-1.2 0-2.2-.9-2.3-2h-34.6c-.2 1.1-1.2 2-2.2 2l-1-.2-15.7 27.1a6 6 0 0 1 2.7 5c0 3.1-2.6 5.7-5.7 5.7a5.8 5.8 0 0 1-5.8-5.8h-31c-.1 1.2-1.1 2-2.3 2a2.2 2.2 0 0 1-1.3-4.1l-17.3-30a2.3 2.3 0 1 1 0-4l17.3-30a2.3 2.3 0 0 1 0-3.7l-15.5-27a5.8 5.8 0 1 1 0-10l15.5-27c-.9-.7-1.2-2-.6-3 .1-.3.4-.5.6-.7l-17.3-30a2.3 2.3 0 0 1-3.2-1.9h-31.1a5.8 5.8 0 0 1-8.4 4.9l-15.6 27c.6.4 1 1.1 1 1.8 0 1.2-1 2.2-2.3 2.2-1.2 0-2.2-.8-2.2-2h-34.7a2.3 2.3 0 0 1-3.1 1.9l-17.4 30c.6.4 1 1 1 1.8 0 1.2-1 2.2-2.3 2.2-1.2 0-2.1-.8-2.2-2h-31.6v.1c0 3.2-2.6 5.8-5.8 5.8a5.8 5.8 0 0 1-2.6-11l-15.5-27a2.3 2.3 0 1 1 0-4l17.3-30a2.3 2.3 0 0 1 0-3.7l-17.3-30v.1a2.3 2.3 0 0 1-3.2-2h-31.5c0 3.3-2.6 5.9-5.8 5.9a5.8 5.8 0 0 1-2.8-10.9l-15.6-27a2.3 2.3 0 0 1-3.2-1.8H43.5c0 1.2-1 2.2-2.3 2.2-1.3 0-2.3-1-2.3-2.3 0-.8.4-1.6 1.1-2l-17.4-30a2.3 2.3 0 1 1 0-4l15.6-27a5.8 5.8 0 0 1 3-10.7 6 6 0 0 1 5.8 5.6h31.3c.2-1.1 1.1-2 2.3-2l.8.2 17.4-30c-.6-.5-1-1.1-1-1.9 0-1.2 1-2.2 2.3-2.2 1.2 0 2.1.9 2.2 2h34.6a2.3 2.3 0 0 1 3.2-1.8l17.3-30a2.3 2.3 0 0 1 0-3.7l-15.6-27a5.8 5.8 0 1 1 .2-10.3l15.5-26.8a2.3 2.3 0 0 1 0-3.6l-17.3-30a2.3 2.3 0 0 1-3.2-1.9h-34.7c0 1.2-1 2.2-2.3 2.2-1.3 0-2.3-1-2.3-2.3 0-.8.4-1.5 1-1.9l-15.5-27a5.8 5.8 0 1 1 0-10.2L98.9 640a2.2 2.2 0 0 1 1-4.1h.2c1.2 0 2.1.9 2.2 2h34.6a2.3 2.3 0 0 1 3.2-1.8l17.4-30a2 2 0 0 1-1-1.8c0-1.2 1-2.2 2.2-2.2 1.2 0 2.2.8 2.2 2h31c0-3.1 2.7-5.6 5.8-5.6a5.8 5.8 0 0 1 3.2 10.6l15.6 27a2.3 2.3 0 0 1 3.2 1.8h34.6a2.3 2.3 0 0 1 3.2-1.8l17.3-30a2.3 2.3 0 0 1 0-3.7l-17.3-30a2.3 2.3 0 0 1-3.2-2c0-1.2 1-2.2 2.2-2.2.4 0 .7 0 1 .2l17.3-30a2.3 2.3 0 0 1 0-3.7l-17.3-30a2.3 2.3 0 1 1 0-4.1l17.3-30c-.6-.4-1-1.1-1-1.8 0-1.2 1.1-2.2 2.3-2.2 1.1 0 2.1.8 2.3 2h31a5.8 5.8 0 0 1 5.8-5.6 5.8 5.8 0 0 1 3.1 10.7l15.5 26.9a2.3 2.3 0 0 1 3.2 1.9h34.5c0-1.2 1-2.2 2.3-2.2 1.3 0 2.3 1 2.3 2.3 0 .8-.4 1.5-1 1.9l17.3 30a2.3 2.3 0 0 1 3.2 1.8h34.6a2.3 2.3 0 0 1 3.2-1.8l15.4-26.8a5.8 5.8 0 0 1 3-10.7c3 0 5.6 2.5 5.7 5.5h31.4c0-1.2 1-2.2 2.3-2.2 1.3 0 2.3 1 2.3 2.3 0 .8-.4 1.5-1 1.9l17.3 30a2.3 2.3 0 0 1 3.2 2c0 1.3-1.1 2.3-2.3 2.3l-.9-.2-17.3 30a2.3 2.3 0 0 1 0 3.6l17.3 30a2.3 2.3 0 0 1 3.1 1.4l.1.5h34.7c0-1.2 1-2.3 2.3-2.3 1.3 0 2.3 1 2.3 2.3 0 .8-.4 1.6-1.1 2l15.6 27a6 6 0 0 1 2.6-.7c3 0 5.7 2.5 5.7 5.6h31.2c.1-.8.6-1.4 1.3-1.8a2.3 2.3 0 0 1 1.9-.1l17.4-30c-.7-.4-1-1-1-1.8 0-1.2 1-2.2 2.2-2.2h.1c1.2 0 2.1.8 2.2 2h31a5.8 5.8 0 0 1 8.5-4.8l15.6-27a2.3 2.3 0 0 1-.7-2.9l.7-.8-15.5-27a5.8 5.8 0 1 1 0-10.3l15.5-26.8a2.3 2.3 0 0 1 0-3.6l-17.3-30a2.3 2.3 0 0 1-3.2-1.9h-34.6c0 1.2-1 2.2-2.3 2.2-1.3 0-2.3-1-2.3-2.3 0-.8.4-1.5 1-1.9l-15.5-27a5.8 5.8 0 1 1 0-10.2l15.6-26.9a2 2 0 0 1-1-1.8c0-1.3 1-2.3 2.2-2.3 1.2 0 2.2.9 2.3 2H665a2.3 2.3 0 0 1 3.2-1.8l17.3-30c-.6-.4-.9-1.1-.9-1.8 0-1.2 1-2.2 2.2-2.2 1.2 0 2.2.8 2.2 2h31c0-3.1 2.7-5.6 5.8-5.6A5.8 5.8 0 0 1 729 372l15.7 27 .8-.2c1.2 0 2.1.9 2.3 2h34.7c.2-1.1 1.1-2 2.3-2l.8.2 17.3-30a2.3 2.3 0 0 1 0-3.7l-17.3-30a2.3 2.3 0 1 1 0-4l17.3-30a2.3 2.3 0 0 1 0-3.7l-17.3-30a2.3 2.3 0 0 1-3.2-2c0-1.3 1.1-2.3 2.3-2.3l.9.2 17.4-30c-.6-.4-1-1.1-1-1.8 0-1.2 1-2.2 2.3-2.2 1.1 0 2.1.8 2.3 2h31.1a5.8 5.8 0 0 1 5.8-5.6 5.8 5.8 0 0 1 3.1 10.7l15.5 26.9a2.3 2.3 0 0 1 3.2 1.9h34.6c0-1.2 1-2.2 2.3-2.2 1.3 0 2.3 1 2.3 2.3 0 .8-.4 1.5-1 1.9l17.3 30a2.3 2.3 0 0 1 3.2 1.8h34.6a2.3 2.3 0 0 1 3.2-1.8l15.4-26.8a5.8 5.8 0 0 1 3-10.7c3 0 5.5 2.5 5.7 5.5h31.4c0-1.2 1-2.3 2.3-2.3 1.3 0 2.3 1 2.3 2.3 0 .8-.4 1.6-1.1 2l17.4 30a2.3 2.3 0 0 1 3.1 2c0 1.3-1 2.3-2.2 2.3l-.9-.2-17.4 30a2.3 2.3 0 0 1 0 3.6l17.4 30a2.3 2.3 0 0 1 3.1 1.4v.5h34.7c0-1.2 1-2.3 2.3-2.3 1.3 0 2.3 1 2.3 2.3 0 .8-.4 1.6-1.1 2l17.3 30a2.3 2.3 0 0 1 3.2 1.9h34.4a2.3 2.3 0 0 1 3.2-1.9l17.4-30a2 2 0 0 1-1-1.8c0-1.2 1-2.2 2.2-2.2 1.2 0 2.2.8 2.3 2h31c.1-3 2.7-5.5 5.8-5.5a5.8 5.8 0 0 1 3.2 10.6l15.5 27a2.3 2.3 0 0 1 3.2 2c0 1.2-1 2.2-2.2 2.2-.4 0-.7 0-1-.2l-17.3 30a2.3 2.3 0 0 1 0 3.7l17.3 30a2.3 2.3 0 0 1 3.2 2c0 1.3-1 2.3-2.2 2.3l-1-.2-17.4 30c.6.4 1 1 1 1.8 0 1.2-1 2.2-2.2 2.2-1.2 0-2.2-.8-2.3-2h-34.6a2.2 2.2 0 0 1-3.2 1.9l-17.3 30a2.3 2.3 0 0 1 0 3.6l17.3 30a2.3 2.3 0 0 1 3.2 1.8h34.6c0-1.2 1-2.2 2.3-2.2 1.3 0 2.3 1 2.3 2.3 0 .8-.4 1.5-1 1.9l15.5 27a5.8 5.8 0 0 1 8.4 5h31.2c0-1.2 1-2.3 2.3-2.3 1.3 0 2.3 1 2.3 2.3 0 .8-.4 1.6-1.1 2l17.3 30a2.3 2.3 0 0 1 3.2 2c0 1.3-1 2.3-2.2 2.3l-1-.2-17.3 30c.6.4 1 1.1 1 1.8 0 1.2-1.1 2.2-2.3 2.2-1.2 0-2.2-.8-2.2-2h-34.7c-.2 1.1-1.1 2-2.3 2l-.8-.2-17.4 30c.6.5 1 1.1 1 1.9 0 1.2-1 2.2-2.3 2.2-1.1 0-2.1-.9-2.3-2h-31a5.8 5.8 0 0 1-8.4 4.8l-15.6 27a2.3 2.3 0 0 1 0 3.7l17.3 30a2.3 2.3 0 0 1 3.2 2c0 1.3-1 2.3-2.2 2.3l-1-.2-15.6 27.1a6 6 0 0 1 2.5 4.8c0 3.2-2.5 5.8-5.7 5.8a5.8 5.8 0 0 1-5.7-5.7h-31c0 1.2-1 2.2-2.3 2.2-1.3 0-2.3-1-2.3-2.3 0-.8.4-1.5 1-1.9l-17.3-30a2.3 2.3 0 0 1-3.2-1.9h-34.6a2.3 2.3 0 0 1-3.2 1.9l-17.3 30c.6.4 1 1.1 1 1.8 0 1.2-1.1 2.2-2.3 2.2-1.2 0-2.2-.8-2.2-2h-34.7c0 1-1 2-2 2-.4 0-.8 0-1.1-.2l-15.6 27a5.8 5.8 0 0 1 0 9.7l15.6 27a2.3 2.3 0 0 1 3.1 2c0 1.3-1 2.3-2.2 2.3l-.9-.2-17.5 30a2.2 2.2 0 0 1-1 4.1h-.2c-1.2 0-2.2-.9-2.2-2h-34.6a2.3 2.3 0 0 1-3.2 1.8l-15.7 27.1a5.8 5.8 0 0 1-3.1 10.7 5.8 5.8 0 0 1-5.7-5.8h-31c-.1 1.2-1.1 2-2.3 2a2.2 2.2 0 0 1-1.3-4.1l-17.3-30a2.3 2.3 0 1 1 0-4l17.3-30a2.3 2.3 0 0 1 0-3.7l-15.6-27a5.8 5.8 0 1 1 0-10l15.6-27c-.9-.7-1.2-2-.7-3l.7-.7-17.3-30a2.3 2.3 0 0 1-3.2-1.9h-31.1a5.8 5.8 0 0 1-8.4 4.9l-15.6 27c.6.4 1 1.1 1 1.8 0 1.2-1.1 2.2-2.3 2.2-1.2 0-2.2-.8-2.2-2h-34.7a2.3 2.3 0 0 1-3.1 1.9zm-161-206.2-15.5-26.9a2.3 2.3 0 0 1-3.2-1.9H513a2.2 2.2 0 0 1-3.2 1.9l-15.6 27a5.8 5.8 0 0 1 0 9.6l15.6 27a2.3 2.3 0 0 1 3.2 1.8h34.4a2.3 2.3 0 0 1 2.5-2h.4l.5.2 15-26 .6-.9a5.8 5.8 0 0 1 0-9.8m-19 39h-34.2a2.3 2.3 0 0 1-3.2 1.8l-17.3 30a2.3 2.3 0 0 1 0 3.6l17.3 30a2.3 2.3 0 0 1 3.2 1.9h31a5.8 5.8 0 0 1 8.5-4.9l15.5-26.8a2.3 2.3 0 0 1 0-3.8l-17.3-30-.4.2a2.3 2.3 0 0 1-3-2m21.2 35.8-15.6 26.8a5.8 5.8 0 0 1 0 9.7l15.6 27a2.3 2.3 0 0 1 3.1 1.9h34.7a2.3 2.3 0 0 1 3.1-1.9l15.4-26.7a5.8 5.8 0 0 1 .2-9.9l-15.6-27a2.3 2.3 0 0 1-3.1-1.8h-34.6a2.3 2.3 0 0 1-3.2 1.9m56.8 37.1-15.4 26.7a2.3 2.3 0 0 1 0 3.6l17.3 30a2.3 2.3 0 0 1 3.2 1.8H665a2.3 2.3 0 0 1 3.3-2l17.2-29.7a2.3 2.3 0 0 1 0-3.7l-17.4-30v.1a2.3 2.3 0 0 1-3.1-1.9h-31.3a5.8 5.8 0 0 1-8.4 5.1m42.9 64.4a2.3 2.3 0 0 1-3.2-1.8h-34.7a2.3 2.3 0 0 1-3.2 1.8l-17.3 30a2.3 2.3 0 0 1 0 3.7l17.3 30a2.3 2.3 0 0 1 3.2 1.8h34.6a2.3 2.3 0 0 1 3.2-1.8l15.3-26.5a5.9 5.9 0 0 1-2.9-5c0-2.2 1.2-4.2 3.2-5.2zm15.5 37.4-15.3 26.5c.6.4 1 .9 1 1.6l.1.2c0 .8-.4 1.4-1 1.8l17.3 30a2.3 2.3 0 0 1 3.2 1.9h34.6a2.2 2.2 0 0 1 3.2-1.9l17.3-30a2.3 2.3 0 0 1 0-3.6l-17.3-30-.9.2c-.9 0-1.7-.5-2-1.2-.2-.2-.3-.5-.3-.8h-31.2a5 5 0 0 1-1.2 3.1 5.8 5.8 0 0 1-7.5 2.2m43.3-7.7 17.2-29.9a2.3 2.3 0 0 1 0-3.6l-17.4-30-.8.2c-1.2 0-2.1-.9-2.3-2h-34.6a2.3 2.3 0 0 1-3.2 1.8l-17.2 29.8a2.3 2.3 0 0 1 .4 3.2c0 .2-.3.4-.5.6l15.5 26.9a5.8 5.8 0 0 1 8.5 5h31.1a2.3 2.3 0 0 1 3.3-2m-57.5-99.5h.1c0 .8-.4 1.5-1 1.9l17.3 30a2.3 2.3 0 0 1 3.2 1.8h34.6a2.3 2.3 0 0 1 3.2-1.8l17.3-30a2.3 2.3 0 0 1 0-3.7l-17.4-30-.8.2c-1.2 0-2.1-.9-2.3-2h-34.6c-.2 1.2-1 2-2.2 2h-.2l-.8-.2-17.3 30c.4.3.6.6.8 1zm18.8-35.6c.5.4.8 1 .9 1.6h34.6c.2-1.1 1.1-2 2.2-2l1 .2 15.3-26.8a5.8 5.8 0 0 1 .2-9.8l-15.6-27a2.3 2.3 0 0 1-3.2-1.8h-34.6c-.2 1-1 2-2.1 2l-1-.2-17.3 30c.4.3.7.7.8 1.2a2.3 2.3 0 0 1-.8 2.4l17.2 29.9a2.3 2.3 0 0 1 2.4.3m-1.6-68.2h.2c1.2 0 2.1.9 2.3 2h34.6c.1-1.2 1.1-2 2.2-2 .3 0 .7 0 1 .2l17.3-30a2.3 2.3 0 0 1 0-3.7L727 572.6a2.3 2.3 0 0 1-3.2-2l-34.6.1a2.3 2.3 0 0 1-3.2 1.8l-15.6 27a5.8 5.8 0 0 1 0 9.7l15.6 27zm.3 4.6h-.2zM668.3 670l17.3-30a2.3 2.3 0 0 1 0-3.6l-15.5-26.9a5.8 5.8 0 0 1-8.6-4.9h-31a2.3 2.3 0 0 1-3.2 1.8l-17.2 30a2.3 2.3 0 0 1 0 3.6h-.1l17.3 30a2.3 2.3 0 0 1 .9-.2c1.2 0 2.1.9 2.3 2H665v-.3c.2-.6.7-1.1 1.2-1.4a2 2 0 0 1 1-.3c.4 0 .7 0 1 .2m-96.5 35.7h34.5c.2-1.1 1.1-2 2.3-2l.8.1 17.4-29.9c-.6-.4-1-1.1-1-1.8 0-.8.4-1.4.9-1.9l-17.2-29.9a2.3 2.3 0 0 1-2.6-.7c-.3-.3-.5-.7-.6-1.2h-31.1a5.8 5.8 0 0 1-8.3 4.9l-15.6 27a2.3 2.3 0 0 1 0 3.6l17.3 30 .4-.1h.5c1.2 0 2.1.8 2.3 1.9m61.9 33.9H665a2.3 2.3 0 0 1 3.2-1.8l17.3-30a2.3 2.3 0 0 1 0-3.7L668 674.2a2.3 2.3 0 0 1-3.1-1.9h-34.6c-.2 1.1-1.1 2-2.3 2-.4 0-.7 0-1-.2l-17.2 30c.6.5.9 1.1.9 1.9h.2c0 .7-.4 1.4-1 1.8l15.4 26.9a5.8 5.8 0 0 1 8.3 4.9M452 974.6c1.2 0 2.1.9 2.3 2h30.8a5.8 5.8 0 0 1 8.7-4.8l15.6-27a2.3 2.3 0 0 1 0-3.6l-17.3-30a2.3 2.3 0 0 1-3.2-1.9h-34.5c-.1.8-.6 1.6-1.4 1.8a2 2 0 0 1-1.8 0l-17.3 30a2.3 2.3 0 0 1 0 3.7l17.2 30c.4-.2.6-.2.9-.2m-293.3-97-1-.2-17.3 30a2.3 2.3 0 0 1 0 3.6l17.3 30a2.3 2.3 0 0 1 3.2 1.8h34.6c.2-1.1 1.1-2 2.2-2l1 .2 15.4-26.8a5.8 5.8 0 0 1 .1-9.8l-15.6-27a2.3 2.3 0 0 1-3.2-1.8h-34.6c0 1-1 2-2.1 2h-.2zM665 942.8a2.2 2.2 0 0 1 3.2-1.8l17.3-30a2.3 2.3 0 0 1 0-3.6l-17.3-30a2.3 2.3 0 0 1-3.2-1.9h-34.5a2.3 2.3 0 0 1-3.2 1.9l-17.3 30a2.3 2.3 0 0 1 0 3.6l15.3 26.9a5.8 5.8 0 0 1 8.5 4.9zM136.9 638.4h-34.6a2.3 2.3 0 0 1-3.2 1.8l-15.5 26.9a5.8 5.8 0 0 1 0 9.8l15.5 27a2.3 2.3 0 0 1 3.2 1.8h34.6a2.3 2.3 0 0 1 3.2-1.8l17.3-30a2.3 2.3 0 0 1 0-3.7l-17.3-30a2.3 2.3 0 0 1-3.2-1.8m488.9 169.2c0-.8.4-1.5 1-1.8l-17.3-30a2.3 2.3 0 0 1-3.1-1.9h-34.7c-.2 1.1-1.1 2-2.3 2l-.8-.2-17.4 30a2.3 2.3 0 0 1 .5 3.3l-.5.4 17.3 30a2.3 2.3 0 0 1 3.2 1.8h34.6a2.2 2.2 0 0 1 3.2-1.8l17.4-30a2 2 0 0 1-1-1.8m-58.7-33.9c0-.8.4-1.4 1-1.8l-15.6-27a5.8 5.8 0 0 1-8.5-4.9h-31a2.3 2.3 0 0 1-3.2 1.9l-17.3 30a2.3 2.3 0 0 1 0 3.6l17.3 30a2.3 2.3 0 0 1 3.2 1.8h34.6a2.3 2.3 0 0 1 3.2-1.8l17.3-30c-.6-.4-1-1.1-1-1.8m-349.7 70-.9-.2-17.3 30a2.3 2.3 0 0 1 0 3.6l15.3 26.5.3.6a5.8 5.8 0 1 1-.2 10.2l-15.4 26.8a2.3 2.3 0 0 1 0 3.7l17.3 30a2.3 2.3 0 0 1 3.2 1.8h34.6c.2-1.1 1.1-2 2.3-2l.8.2 17.3-30v-.1a2.3 2.3 0 0 1 .1-3.6l.4-.2.8-.2c1.2 0 2.1.9 2.3 2H313c.2-1.1 1.1-2 2.3-2l.8.2 17.3-30v-.1a2.3 2.3 0 0 1 0-3.5l-17.3-30a2.3 2.3 0 0 1-3.1-1.9h-34.7a2.3 2.3 0 0 1-3.1 1.9l-.4-.3a2.3 2.3 0 0 1 0-3.6l-17.3-30a2.3 2.3 0 0 1-3.2-1.8h-34.6c-.2 1.1-1.1 2-2.3 2m154.2 201.2H337a2.3 2.3 0 0 1-3.2 1.9l-15.5 27a5.8 5.8 0 0 1 0 9.6l15.5 27a2.3 2.3 0 0 1 3.2 1.8h34.6a2.3 2.3 0 0 1 3.2-1.8l17.3-30a2.2 2.2 0 0 1 0-3.6l-17.3-30a2.3 2.3 0 0 1-3.2-1.9M200.1 807.7c0 .7-.4 1.4-1 1.8l17.3 30a2.3 2.3 0 0 1 3.2 1.8h34.6c.1-1.1 1.1-2 2.2-2 .4 0 .7 0 1 .2l17.3-30c-.6-.4-1-1.1-1-1.8 0-.8.4-1.5 1-1.9l-17.3-30a2.3 2.3 0 0 1-3.2-1.8h-34.6a2.3 2.3 0 0 1-3.2 1.8l-17.4 30c.7.5 1 1.1 1 1.9m17.4-99.5c-.4 0-.7-.1-1-.3l-15.6 27a5.8 5.8 0 0 1 0 9.8l15.6 26.9a2.3 2.3 0 0 1 3.2 1.8h34.6c.1-1 1.1-2 2.2-2l1 .2 17.3-30c-.6-.4-1-1.1-1-1.8 0-.8.4-1.4 1-1.8l-17.3-30a2.3 2.3 0 0 1-3.2-1.8h-34.6c-.2 1.1-1.2 2-2.2 2m236.9-138H489c.2-1.2 1.1-2 2.2-2 .4 0 .7 0 1 .2l17.3-30a2.3 2.3 0 0 1 0-3.7l-17.3-30a2.3 2.3 0 0 1-3.2-1.8h-31.3a5.8 5.8 0 0 1-8.4 5.1l-15.4 26.7a2.3 2.3 0 0 1 .1 3.6l-.1.1 17.3 30a2.3 2.3 0 0 1 3.2 1.8m-78.3 542.3h.1c0 .7-.4 1.4-1 1.8l17.3 30a2.3 2.3 0 0 1 3.2 1.8h34.6a2.2 2.2 0 0 1 3.2-1.8l17.3-30a2.3 2.3 0 0 1 0-3.6l-15.6-27a5.8 5.8 0 0 1-8.4-4.9h-31.1a2.3 2.3 0 0 1-3.2 1.8l-17.4 30c.7.4 1 1.1 1 1.9M256.5 640.4c-1.2 0-2.1-.9-2.2-2h-34.6a2.3 2.3 0 0 1-3.2 1.8l-17.3 30a2.3 2.3 0 0 1 0 3.7l15.3 26.5 2 3.5a2.3 2.3 0 0 1 3.2 1.8h34.6a2.3 2.3 0 0 1 3.2-1.8l15.4-26.9a5.8 5.8 0 0 1 0-10l-15.4-26.8c-.3.2-.7.2-1 .2m19.6 169.4c-.3 0-.6 0-.9-.2l-17.3 30a2.3 2.3 0 0 1 .1 3.6l-.2.1 17.4 30 .8-.2c1.2 0 2.1.9 2.3 2H313c.2-1.1 1.1-2 2.3-2l.8.2 17.4-30c-.9-.7-1.2-1.7-.8-2.7.2-.4.5-.7.8-.9l-15.6-27a5.8 5.8 0 0 1-8.6-4.9h-31c-.1 1.1-1.1 2-2.2 2m0-4.5c1.1 0 2.1.9 2.3 2h31a5.8 5.8 0 0 1 8.4-4.8l15.7-27a2.3 2.3 0 0 1 0-3.6l-17.4-30a2.3 2.3 0 0 1-3.1-1.9h-34.7a2.2 2.2 0 0 1-3.1 1.9l-17.3 30a2.3 2.3 0 0 1 0 3.6l17.2 30c.4-.2.7-.2 1-.2m173.8-234.9c0-.7.4-1.4 1-1.8l-17.3-30a2.3 2.3 0 0 1-3.2-1.8h-34.6a2.3 2.3 0 0 1-3.2 1.8l-17.3 30a2.3 2.3 0 0 1 0 3.7l15.6 27a5.8 5.8 0 0 1 8.4 4.8h31.1a2.3 2.3 0 0 1 3.2-1.8l17.4-30c-.7-.5-1-1.2-1-1.9m-115.1 70c-.3 0-.7 0-1-.2l-17.3 30a2.3 2.3 0 0 1 0 3.7l17.3 30a2.3 2.3 0 0 1 3.2 1.8h34.6a2.3 2.3 0 0 1 3.2-1.8l17.3-30a2.3 2.3 0 0 1 0-3.7l-17.3-30a2.3 2.3 0 0 1-3.2-1.8H337c-.1 1.2-1.1 2-2.2 2m156.4 266.5 1 .2 17.3-30a2.3 2.3 0 0 1 0-3.6l-17.4-30-.8.2c-1.2 0-2.1-.9-2.3-2h-34.6a2.3 2.3 0 0 1-3.2 1.8l-15.6 27a5.8 5.8 0 0 1 0 9.6l15.6 27a2.3 2.3 0 0 1 3.2 1.8H489c.2-1.1 1.1-2 2.2-2m-156.4-63.2-1-.2-17.3 30a2.3 2.3 0 0 1 0 3.6l17.3 30 1-.2c1.2 0 2.1 1 2.2 2h34.6c.2-1 1.2-2 2.2-2l1 .2 17.3-30a2.3 2.3 0 0 1 0-3.6l-17.3-30a2.3 2.3 0 0 1-3.2-1.8H337c-.1 1.1-1.1 2-2.2 2m58.6 97.1c1.2 0 2.2.9 2.3 2h34.6c.1-1 1-1.9 2-2 .4 0 .8 0 1.2.2l17.3-30a2.3 2.3 0 0 1 0-3.6l-15.6-27a5.8 5.8 0 0 1-8.5-4.9h-31a2.3 2.3 0 0 1-3.2 1.9l-17.3 30c1 .8 1.2 2.2.4 3.2l-.4.4 17.3 30 .7-.2zm.1-266.5-1-.2-17.3 30a2.3 2.3 0 0 1 0 3.6l4.6 8 12.7 22c1.1-.4 2.4 0 2.9 1l.3.9h34.6a2.3 2.3 0 0 1 3.2-1.9l15.5-27a5.8 5.8 0 0 1 0-9.6l-15.5-27a2.3 2.3 0 0 1-3.2-1.8h-34.6c-.2 1.1-1.1 2-2.2 2M161 740a2.3 2.3 0 0 1-3.2 1.9l-15.5 26.7a5.8 5.8 0 0 1-.1 9.9l15.6 27a2.3 2.3 0 0 1 3.2 1.8h34.6l.2-.8c.6-1 2-1.5 3-1l17.3-30a2.3 2.3 0 0 1 0-3.7L200.5 745a5.8 5.8 0 0 1-8.3-5zm173.8-31.8-1.1-.2-17.2 30a2.3 2.3 0 0 1 0 3.6h-.1l17.3 30a2.3 2.3 0 0 1 3.3 1.9h31a5.8 5.8 0 0 1 8.5-4.9l15.5-27a2.3 2.3 0 0 1 0-3.6l-10-17.6-7.2-12.4a2.3 2.3 0 0 1-3.2-1.8H337c-.1 1.1-1.1 2-2.2 2M82.8 943v.2c0 .7-.4 1.4-1 1.8l15.6 26.8a5.8 5.8 0 0 1 8.2 4.9h31.3a2.3 2.3 0 0 1 3.2-1.8l17.3-30a2.3 2.3 0 0 1 0-3.6l-17.3-30a2.3 2.3 0 0 1-3.2-1.9h-34.6a2.3 2.3 0 0 1-3.2 1.8l-17.3 30c.6.5 1 1.2 1 1.8m54.1-101.2h-34.6a2.3 2.3 0 0 1-3.2 1.8l-17.3 30a2.3 2.3 0 0 1 0 3.6l17.4 30a2.3 2.3 0 0 1 3.1 1.9h34.6a2.3 2.3 0 0 1 3.2-1.9l17.3-30a2.3 2.3 0 0 1 0-3.6l-17.3-30a2.3 2.3 0 0 1-3.2-1.8M491.1 644c-3 0-5.7-2.5-5.7-5.6h-31a2.3 2.3 0 0 1-3.2 1.8l-17.3 30a2.3 2.3 0 0 1 0 3.6l15.5 27a5.8 5.8 0 0 1 8.6 4.9h31a2.3 2.3 0 0 1 3.2-1.8l17.3-30a2.3 2.3 0 0 1 0-3.6l-15.6-27c-.8.4-1.8.7-2.8.7M334.8 775.9l-1-.1-15.5 27a5.8 5.8 0 0 1 0 9.6l15.5 27a2.3 2.3 0 0 1 3.2 1.8h34.6c.2-1.1 1.2-2 2.2-2 .4 0 .7 0 1 .2l17.3-30a2.2 2.2 0 0 1 0-3.7l-15.5-27a5.8 5.8 0 0 1-8.5-4.8H337c-.1 1.1-1.1 2-2.2 2m41.4 65.5c0 .7-.3 1.3-.8 1.8l-.1.1 17.3 30a2.3 2.3 0 0 1 3.2 1.8h31a5.8 5.8 0 0 1 8.5-4.8l15.6-27a2.3 2.3 0 0 1 0-3.7l-17.3-30a2.3 2.3 0 0 1-3.2-1.8h-34.6a2.2 2.2 0 0 1-3.2 1.8l-17.3 30c.6.4 1 1.1 1 1.8m191 135.5c0-.7.4-1.4.9-1.8l-17.3-30-.8.2c-1.2 0-2.1-.9-2.3-2H513c0 .2 0 .4-.2.6v.3c-.6 1-1.9 1.4-2.9 1l-15.7 27a5.8 5.8 0 0 1 0 9.6l15.7 27 .8-.2c1.2 0 2.1.9 2.3 2h34.7c.2-1.1 1.1-2 2.3-2l.8.2 17.4-30c-.6-.5-1-1.1-1-1.9m4.5-.1 34.6-.1a2.3 2.3 0 0 1 3.2-1.8l15.5-27a5.8 5.8 0 0 1 0-9.7l-15.5-27a2.3 2.3 0 0 1-3.2-1.8h-34.6a2.2 2.2 0 0 1-3.2 1.8l-17.2 30a2.3 2.3 0 0 1 0 3.6h-.1l17.3 30a2.3 2.3 0 0 1 3.2 2m-200.1 135.9H337c-.2 1.1-1.1 2-2.2 2l-1-.2-17.3 30a2.3 2.3 0 0 1 0 3.6l17.3 30a2.3 2.3 0 0 1 3.2 1.9h31a5.8 5.8 0 0 1 8.4-4.7l15.7-27.1a2.3 2.3 0 0 1 0-3.7l-17.3-30a2.3 2.3 0 0 1-3.2-1.8M313 536.8h-34.6c-.2 1.1-1.1 2-2.3 2l-.8-.2-17.3 30a2.3 2.3 0 0 1 0 3.6l17.3 30a2.3 2.3 0 0 1 3.1 1.9v.4c-.2 1.1-1.1 2-2.3 2l-.8-.2-17.3 30a2.3 2.3 0 0 1 0 3.7l15.2 26.8a5.8 5.8 0 0 1 8.4 5h31.3c.1-1.1 1.1-2 2.2-2l.9.2 17.5-30a2.3 2.3 0 0 1 0-3.7l.3-.2a2.3 2.3 0 0 1 3.2 1.8h34.6a2.2 2.2 0 0 1 3.2-1.8l15.5-26.8a5.8 5.8 0 0 1 .1-9.8l-15.6-27a2.3 2.3 0 0 1-3.2-1.9H337a2.3 2.3 0 0 1-3.1 1.9l-.4-.2a2.3 2.3 0 0 1 0-3.7l-17.4-30-.8.2c-1.2 0-2.1-.9-2.3-2m-97.8 101.4c0-.8.4-1.5 1-1.9l-15.5-26.8a5.8 5.8 0 0 1-8.6-5h-31a2.3 2.3 0 0 1-3.2 1.8l-17.3 30a2.3 2.3 0 0 1 .1 3.7h-.1l17.3 30a2.3 2.3 0 0 1 3.2 1.8h34.6a2.3 2.3 0 0 1 3.2-1.8l17.3-30c-.6-.4-.9-1.1-.9-1.8m63-169.2a2.2 2.2 0 0 1-3.1 1.8l-17.3 30a2.3 2.3 0 0 1 0 3.7l17.3 30 .8-.2c1.2 0 2.1.9 2.3 2H313c.2-1.1 1.1-2 2.3-2l.8.2 17.4-30c-.9-.7-1.2-1.7-.8-2.7.2-.4.4-.7.8-1L317.9 474a5.8 5.8 0 0 1-8.5-5zm39.2 67.5c0 .8-.4 1.5-1 1.9l17.3 30a2.3 2.3 0 0 1 3.2 1.8h34.6c.2-1.2 1.2-2 2.2-2 .4 0 .7 0 1 .2l17.3-30a2.2 2.2 0 0 1-.2-3.4l.2-.3-17.3-30a2.3 2.3 0 0 1-3.2-1.8H337a2.3 2.3 0 0 1-3.2 1.8l-17.3 30c.6.4 1 1.1 1 1.8M141.4 706l.1-.1c0 .8-.4 1.4-1 1.8l17.3 30a2.3 2.3 0 0 1 3.2 1.9h31.2a5.8 5.8 0 0 1 8.4-5l15.5-26.8a2.2 2.2 0 0 1 0-3.7l-.9-1.5-16.4-28.5a2.3 2.3 0 0 1-3.2-1.8H161a2.3 2.3 0 0 1-3.2 1.8l-17.3 30c.6.4.9 1.1.9 1.9m117.4 0c0 .8-.4 1.4-.9 1.9l17.3 30 .8-.2c1.2 0 2.1.9 2.3 2H313c.2-1.1 1.1-2 2.3-2l.8.2 17.4-30a2.3 2.3 0 0 1-.3-3.5l.3-.2-17.4-30-.8.2c-1.2 0-2.1-.9-2.3-2h-31.3a5.8 5.8 0 0 1-8.3 4.8l-15.6 27c.6.4 1 1.1 1 1.8M376 638.2c0 .7-.3 1.3-.8 1.8h-.1l17.3 30a2.3 2.3 0 0 1 3.2 1.8h34.6a2.2 2.2 0 0 1 3.2-1.8l17.3-30a2.3 2.3 0 0 1 0-3.6l-17.3-30a2.3 2.3 0 0 1-3.2-1.8h-31.1a5.8 5.8 0 0 1-8.5 5l-15.5 26.8c.6.4.9 1.1.9 1.8M508.6 605c-.2-.9.1-2 .9-2.5l-17.3-30a2.3 2.3 0 0 1-3.2-1.8h-34.6a2.3 2.3 0 0 1-3.2 1.8l-17.3 30c1 .8 1.2 2.2.4 3.2l-.4.4 17.3 30a2.3 2.3 0 0 1 3.2 1.8h31a5.8 5.8 0 0 1 8.5-4.8l15.6-27c-.4-.3-.7-.7-.9-1.1m-191.1 405.8c0 .5-.2 1.1-.6 1.5-.1.1-.2.3-.4.3l17.3 30a2.3 2.3 0 0 1 3.2 1.9h34.6a2.3 2.3 0 0 1 3.2-1.8l17.3-30a2.3 2.3 0 0 1 0-3.7l-17.3-30a2.3 2.3 0 0 1-3.2-1.8h-31.1a5.8 5.8 0 0 1-8.4 4.8l-15.6 27c.6.4 1 1.1 1 1.8m-121.9-203-34.6.1a2.3 2.3 0 0 1-3.2 1.8l-17.3 30a2.3 2.3 0 0 1 .1 3.6l-.1.1 17.3 30a2.3 2.3 0 0 1 3.2 1.8h34.6c.2-1.2 1.1-2 2.2-2 .4 0 .7 0 1 .2l17.3-30a2.3 2.3 0 0 1 0-3.6l-17.3-30a2.3 2.3 0 0 1-3.2-2M141.3 977h.2c0 .7-.4 1.4-1 1.8l17.3 30a2.3 2.3 0 0 1 3.2 1.8h34.5a2.3 2.3 0 0 1 3.2-1.8l17.3-30a2.3 2.3 0 0 1 0-3.7l-17.3-30a2.3 2.3 0 0 1-3.2-1.8h-34.6a2.3 2.3 0 0 1-3.2 1.8l-17.4 30c.7.4 1 1.1 1 1.9m232.6-2.4.9.4 17.3-30a2.3 2.3 0 0 1 0-3.7l-17.3-30c-.2.2-.5.2-.7.2h-.2c-1.2 0-2.2-.8-2.3-2H337a2.3 2.3 0 0 1-3.2 1.9l-17.2 30a2.3 2.3 0 0 1-.1 3.6l15.6 26.7a5.8 5.8 0 0 1 8.5 4.9h31c.1-1.1 1.1-2 2.3-2m2.2 70.1c0 .7-.3 1.3-.8 1.8h-.1l17.3 30a2.3 2.3 0 0 1 3.2 1.9h31.1a5.8 5.8 0 0 1 8.4-4.9l15.6-27a2.3 2.3 0 0 1 0-3.6l.4-.3a2.3 2.3 0 0 1 3.2 1.9H489a2.2 2.2 0 0 1 3.2-1.8l17.3-30a2.3 2.3 0 0 1 0-3.7l-15.6-27a5.8 5.8 0 0 1-8.7-4.8h-30.8c-.2 1.1-1.2 2-2.2 2l-1-.2-.4-.2a2.3 2.3 0 0 1 0-3.7l-17.3-30a2.3 2.3 0 0 1-3.2-1.8h-34.6a2.3 2.3 0 0 1-3.2 1.8l-17.3 30a2.3 2.3 0 0 1 0 3.7l12.5 21.7 4.8 8.3a2.3 2.3 0 0 1 3.2 1.8v.4a2.3 2.3 0 0 1-3.2 1.9l-17.3 30c.6.4.9 1.1.9 1.8m-180.5-33.6H161c-.2 1.1-1.2 2-2.2 2l-1-.2-17.3 30a2.3 2.3 0 0 1 0 3.6l15.5 26.9a5.8 5.8 0 0 1 8 5h31.6a2.3 2.3 0 0 1 3.2-1.9l17.3-30a2.3 2.3 0 0 1 0-3.6l-17.3-30a2.3 2.3 0 0 1-3.2-1.8M491.2 776l.1-.1c-1.3 0-2.2-.8-2.3-2v-.4a2.2 2.2 0 0 1 3.2-1.9l17.3-30a2.3 2.3 0 0 1 0-3.6l-17.3-30a2.3 2.3 0 0 1-3.2-1.8h-31a5.8 5.8 0 0 1-8.5 4.8l-15.6 27a2.3 2.3 0 0 1 0 3.6l-.4.3a2.3 2.3 0 0 1-3.2-1.9h-34.6a2.2 2.2 0 0 1-3.2 1.8l-15.6 27a5.8 5.8 0 0 1 0 9.7l10.8 18.7 4.8 8.3a2.3 2.3 0 0 1 3.2 1.8h34.6a2.2 2.2 0 0 1 3.2-1.8l.4.2a2.3 2.3 0 0 1 .4 3.3l-.4.4 17.3 30a2.3 2.3 0 0 1 3.2 1.8H489a2.3 2.3 0 0 1 3.2-1.8l17.3-30a2.3 2.3 0 0 1 0-3.6l-17.3-30zm58.7 164.7.9.2 17.3-30a2.3 2.3 0 0 1 0-3.7l-15.6-27a5.8 5.8 0 0 1-8.5-4.8h-31a2.2 2.2 0 0 1-3.1 1.9l-17.4 30a2 2 0 0 1 .8 2.5v.1c-.2.4-.4.7-.8 1l17.4 30 .8-.2c1.2 0 2.1.9 2.3 2h34.7c.1-1.1 1.1-2 2.2-2M38.7 880.6 23 907.4a2.3 2.3 0 0 1 0 3.6l17.5 30.1.8-.2c1.2 0 2.1.9 2.3 2h34.7c.2-1.1 1.1-2 2.3-2l.8.2 17.3-30a2.3 2.3 0 0 1 0-3.6l-17.3-30a2.3 2.3 0 0 1-3.1-1.9H47.1a5.8 5.8 0 0 1-8.4 5M550 810v-.1c-1.2 0-2.2-.8-2.2-2h-34.6a2.2 2.2 0 0 1-3.2 1.8l-17.4 30a2.3 2.3 0 0 1 0 3.7l17.4 30 .8-.2c1.2 0 2.1.9 2.3 2h31a5.8 5.8 0 0 1 8.6-4.8l15.5-27a2.3 2.3 0 0 1-.2-3.5l.2-.2-17.2-30a2 2 0 0 1-1 .3m58.6 96.8.9.2 17.3-30a2.3 2.3 0 0 1 0-3.6l-17.3-30a2.3 2.3 0 0 1-3.2-1.8h-34.6a2.3 2.3 0 0 1-3.2 1.8l-15.6 27a5.8 5.8 0 0 1 0 9.6l11.7 20.2 3.9 6.8a2.3 2.3 0 0 1 3.2 1.8h34.6c.2-1.1 1.1-2 2.3-2m-408.5 104c0 .8-.4 1.4-1 1.9l17.3 30a2.3 2.3 0 0 1 3.2 1.8h34.6a2.3 2.3 0 0 1 3.2-1.8l15.5-27a5.8 5.8 0 0 1 0-9.7l-15.6-27-.8.2c-1.2 0-2.1-.9-2.3-2h-34.6a2.3 2.3 0 0 1-3.2 1.8l-17.4 30c.6.4 1 1 1 1.8m75.9-5.8c3.1 0 5.6 2.5 5.8 5.5H313a2.2 2.2 0 0 1 3.1-1.8l15.6-27a5.8 5.8 0 0 1 0-9.7l-15.6-27-.8.2c-1.2 0-2.1-.9-2.3-2h-34.8c0 1-1 2-2 2-.4.1-.7 0-1.1-.1l-17.4 30h.2a2.3 2.3 0 0 1-.2 3.5l15.6 27a6 6 0 0 1 2.7-.6m276.2 5.8c0 .8-.4 1.4-1 1.8l17.3 30a2.3 2.3 0 0 1 3.2 1.9h31a5.8 5.8 0 0 1 8.5-4.8l15.6-27a2.3 2.3 0 0 1 0-3.7l-17.3-30a2.3 2.3 0 0 1-3.2-1.8h-34.6a2.3 2.3 0 0 1-3.2 1.8l-17.3 30c.6.4 1 1 1 1.8m252-438-1-.2-17.2 30a2.3 2.3 0 0 1 0 3.6h-.1l17.3 30a2.3 2.3 0 0 1 3.2 1.9H841a2.3 2.3 0 0 1 3.2-1.8l17.3-30a2.3 2.3 0 0 1-.7-2.7c.1-.4.4-.7.7-1L846 575.7a5.8 5.8 0 0 1-8.6-4.9h-31c-.2 1.1-1.1 2-2.2 2m276 201c0 .8-.4 1.4-1 1.8l17.4 30a2.3 2.3 0 0 1 3 1.9h31a5.8 5.8 0 0 1 8.6-4.8l15.6-27.1a2.3 2.3 0 0 1 0-3.6l-17.3-30a2.3 2.3 0 0 1-3.2-1.8h-34.6a2.3 2.3 0 0 1-3.2 1.8l-17.3 29.9c.6.5.9 1.2.9 2m19.8-237.4h34.6a2.3 2.3 0 0 1 3.2-1.9l17.3-30a2.3 2.3 0 0 1 0-3.6l-17.3-30a2.3 2.3 0 0 1-3.2-1.8H1100a2.3 2.3 0 0 1-3.2 1.8l-15.6 26.9a5.8 5.8 0 0 1 0 9.7l15.6 27a2.3 2.3 0 0 1 3.2 1.9M982.7 333.1h34.6c.1-1.2 1.1-2 2.2-2 .3 0 .7 0 .9.2l17.4-30a2.3 2.3 0 0 1 0-3.7l-17.4-30-.8.2c-1.2 0-2.1-.9-2.3-2h-31.4a5.8 5.8 0 0 1-8.3 5.1l-15.4 26.7a2.3 2.3 0 0 1 0 3.6v.1l17.3 30a2.3 2.3 0 0 1 3.2 1.8M689.2 502.9a2.3 2.3 0 0 1-3.2 1.9l-15.5 26.7a5.8 5.8 0 0 1-.1 9.9l15.6 27a2.3 2.3 0 0 1 3.2 1.8h34.6l.2-.8c.6-1 1.9-1.5 3-1l17.3-30a2.3 2.3 0 0 1 0-3.7l-15.6-26.8a5.8 5.8 0 0 1-8.3-5zm410.6 236.8 34.6-.1a2.2 2.2 0 0 1 3.2-1.8l15.5-27a5.8 5.8 0 0 1 0-9.7l-15.5-27a2.3 2.3 0 0 1-3.2-1.8h-34.6a2.3 2.3 0 0 1-3.2 1.8l-17.3 30a2.3 2.3 0 0 1 .1 3.6h-.1l17.3 30a2.3 2.3 0 0 1 3.2 2M669.6 468.9l.1-.1c0 .8-.4 1.4-1 1.8l17.3 30a2.3 2.3 0 0 1 3.2 1.9h31.2a5.8 5.8 0 0 1 8.4-5l15.5-26.8a2.3 2.3 0 0 1 0-3.7l-.9-1.5L727 437a2.3 2.3 0 0 1-3.2-1.8h-34.6a2.3 2.3 0 0 1-3.2 1.8l-17.4 30c.7.4 1 1.1 1 1.9m175.9 304.8c0 .5-.2 1-.5 1.5l-.4.3 17.3 30a2.3 2.3 0 0 1 3.2 1.9h34.6a2.3 2.3 0 0 1 3.2-1.9l17.3-30a2.3 2.3 0 0 1 0-3.6l-17.3-30a2.3 2.3 0 0 1-3.2-1.8h-31.1a5.8 5.8 0 0 1-8.5 4.8l-15.5 27c.6.4.9 1.1.9 1.8m54.2 101.9h-34.6a2.2 2.2 0 0 1-3.2 1.8l-17.3 30a2.3 2.3 0 0 1 0 3.6l17.3 30a2.3 2.3 0 0 1 3.2 1.9h31a5.8 5.8 0 0 1 8.4-4.7l15.7-27.1a2.3 2.3 0 0 1 0-3.7l-17.3-30a2.3 2.3 0 0 1-3.2-1.8M665.1 401.3h-34.6a2.3 2.3 0 0 1-3.2 1.8L611.8 430a5.8 5.8 0 0 1 0 9.8l15.5 27a2.3 2.3 0 0 1 3.2 1.8h34.6a2.3 2.3 0 0 1 3.2-1.8l17.3-30a2.3 2.3 0 0 1 0-3.7l-17.3-30a2.3 2.3 0 0 1-3.2-1.8m63.1 372.4c0 .8-.4 1.4-1 1.8l17.4 30 .8-.2c1.2 0 2.1.9 2.3 2h34.7c.1-1 1.1-2 2.2-2l.9.3 15.6-27a5.8 5.8 0 0 1 0-9.7l-15.6-27a2.3 2.3 0 0 1-3.2-1.8h-34.6c-.2 1.1-1.1 2-2.3 2l-.8-.2-17.4 30c.6.4 1 1.1 1 1.8M787 468.8c0 .8-.4 1.4-1 1.8l17.3 30a2.3 2.3 0 0 1 3.2 1.9h34.6a2.3 2.3 0 0 1 3.2-1.8l17.3-30c-.6-.5-1-1.2-1-1.9 0-.8.4-1.4 1-1.8l-17.3-30a2.3 2.3 0 0 1-3.2-1.8h-31.3a5.8 5.8 0 0 1-8.2 4.8L786 467c.6.4 1 1.1 1 1.8m291.3-31.6c-1.2 0-2.2-.9-2.2-2h-34.7c-.2 1.1-1.1 2-2.3 2l-.8-.2-17.4 30c.6.4 1 1.1 1 1.8 0 .8-.4 1.4-1 1.8l17.4 30c1.2-.5 2.5 0 3 1.2l.2.7h31a5.8 5.8 0 0 1 8.5-4.9l15.5-26.9a2.3 2.3 0 0 1 0-3.7l-17.2-30c-.4.2-.7.2-1 .2M902 737.6l.9.2 17.3-30a2.3 2.3 0 0 1 0-3.7l-17.3-30a2.3 2.3 0 0 1-3.2-1.8h-34.6a2.3 2.3 0 0 1-3.2 1.9l-17.2 30a2.3 2.3 0 0 1-.1 3.6l15.6 26.9a5.8 5.8 0 0 1 8.4 4.9h31.1c.1-1.1 1.1-2 2.3-2m-39-198.8-1-.1-15.6 27a5.8 5.8 0 0 1 .1 9.6l15.5 27a2.3 2.3 0 0 1 3.2 1.8h34.6a2.3 2.3 0 0 1 3.2-1.8l17.3-30a2.3 2.3 0 0 1 0-3.7l-15.6-27a5.8 5.8 0 0 1-8.5-4.8h-31c-.2 1.1-1.1 2-2.2 2m156.4 131 .9.2 17.3-30a2.3 2.3 0 0 1 0-3.6l-17.3-30h-.1a2.3 2.3 0 0 1-3-1.8h-34.7c-.1 1.1-1.1 2-2.2 2l-.9-.2-15.6 27a5.8 5.8 0 0 1 0 9.6l15.6 27 .8-.2c1.2 0 2.1.9 2.3 2h34.7c.1-1 1.1-2 2.2-2m-97.8 33.9c1.2 0 2.2.9 2.3 2h34.6a2.3 2.3 0 0 1 3.2-1.8l17.3-30a2.3 2.3 0 0 1 0-3.6l-15.6-27a5.8 5.8 0 0 1-8.5-4.9h-31a2.3 2.3 0 0 1-3.2 1.9l-17.3 30c1 .8 1.2 2.2.4 3.2l-.4.4 17.3 30 .7-.2zm236.9-269h34.6c.2-1.1 1.1-2 2.2-2l1 .2 17.3-30a2.3 2.3 0 0 1 0-3.6l-15.5-26.9a5.8 5.8 0 0 1-8.6-5h-31a2.3 2.3 0 0 1-3.2 1.9l-17.3 30a2.3 2.3 0 0 1 .1 3.6h-.1l17.3 30a2.3 2.3 0 0 1 3.2 1.8M980.3 737.6c1.2 0 2.2.9 2.2 2h30.9a5.8 5.8 0 0 1 8.6-4.8l15.6-27a2.3 2.3 0 0 1 0-3.7l-17.3-30-.8.2c-1.2 0-2.1-.9-2.3-2h-34.7a2 2 0 0 1-1.3 1.8 2 2 0 0 1-1.8 0l-17.4 30a2.3 2.3 0 0 1 0 3.7l17.3 30c.4-.2.7-.2 1-.2M863 471.1l-.9-.2-17.3 30a2.3 2.3 0 0 1 .1 3.6h-.1l17.3 30a2.3 2.3 0 0 1 3.2 1.9h31.1a5.8 5.8 0 0 1 8.5-4.9l15.5-27c-.6-.4-1-1.1-1-1.8 0-.8.4-1.4 1-1.8l-10.1-17.6-7.2-12.4a2.3 2.3 0 0 1-3.2-1.8h-34.6c-.1 1.1-1.1 2-2.3 2m58.8-33.9-.9-.2-17.3 30a2.3 2.3 0 0 1 0 3.6l4.6 8 12.7 22c1.1-.4 2.4 0 2.9 1l.3.9h34.6a2.3 2.3 0 0 1 3.2-1.9l15.5-27a5.8 5.8 0 0 1 0-9.6l-15.5-27a2.3 2.3 0 0 1-3.2-1.8h-34.6c-.1 1.1-1.1 2-2.3 2M1154 435c0-.8.4-1.4 1-1.9l-17.3-30a2.3 2.3 0 0 1-3.2-1.8H1100a2.3 2.3 0 0 1-3.2 1.8l-17.3 30a2.3 2.3 0 0 1 0 3.7l13.4 23.2 3.9 6.8a2.3 2.3 0 0 1 3.2 1.8h34.4a2.3 2.3 0 0 1 3.2-1.8l17.4-30a2 2 0 0 1-1-1.8m58 164.5-15.5-27a2.3 2.3 0 0 1-3.2-1.8h-34.6a2.3 2.3 0 0 1-3.2 1.8l-17.3 30a2.3 2.3 0 0 1 0 3.7l17.3 30a2.3 2.3 0 0 1 3.2 1.8h34.6a2.3 2.3 0 0 1 3.2-1.8l15.5-27a5.8 5.8 0 0 1 0-9.7m-407.8-31.3c1.2 0 2.1.9 2.2 2h31a5.8 5.8 0 0 1 8.5-4.8l15.6-27a2.3 2.3 0 0 1 0-3.7l-17.3-30a2.3 2.3 0 0 1-3.2-1.8h-34.6a2.2 2.2 0 0 1-3.2 1.8l-17.3 30a2.3 2.3 0 0 1 0 3.7l17.3 30zm0 199.8a6 6 0 0 1 5.8 5.5h31a2.3 2.3 0 0 1 3.2-1.8l15.6-27a5.8 5.8 0 0 1 0-9.7l-15.6-27a2.3 2.3 0 0 1-3.2-1.8h-34.6c0 1-1 1.9-2 2-.4.1-.8 0-1.2-.1l-17.2 30a2.3 2.3 0 0 1-.1 3.5l15.6 27a6 6 0 0 1 2.7-.6m-58.7-296.8-.9-.2-15.6 26.8a5.8 5.8 0 0 1 0 9.8l15.6 27 .8-.2c1.2 0 2.1.9 2.3 2h34.7c.1-1.1 1.1-2 2.2-2l.9.2 17.4-30a2.3 2.3 0 0 1 0-3.6l-17.4-30-.8.2c-1.2 0-2.1-.9-2.3-2h-34.7c-.1 1-1.1 2-2.2 2m413.2 31.3h34.6a2.2 2.2 0 0 1 3.2-1.8l17.3-30a2.3 2.3 0 0 1 0-3.7l-17.3-30a2.3 2.3 0 0 1-3.2-1.8h-34.6a2.3 2.3 0 0 1-3.2 1.8l-17.3 30a2.3 2.3 0 0 1 .4 3.3l-.4.4 17.3 30a2.3 2.3 0 0 1 3.2 1.8m-63.4-101.4c0-.8.4-1.4.9-1.8l-17.3-30a2.3 2.3 0 0 1-3.1-1.9h-34.7a2.3 2.3 0 0 1-3.1 1.9l-15.6 27a5.8 5.8 0 0 1 0 9.6l15.6 27 .8-.2c1.2 0 2.1.9 2.3 2h34.7c.1-1.1 1-2 2.2-2l.9.2 17.4-30c-.6-.4-1-1.1-1-1.8m-75.7 137.7c-1.2 0-2.2-.8-2.2-2v-.5c.2-1.1 1.1-2 2.3-2l.8.2 17.4-30a2.3 2.3 0 0 1 0-3.6l-17.4-30a2.3 2.3 0 0 1-3.2-1.8h-31a5.8 5.8 0 0 1-8.5 4.8l-15.5 27a2.3 2.3 0 0 1 0 3.6l-.4.3a2.3 2.3 0 0 1-3.2-1.9h-34.6a2.2 2.2 0 0 1-3.2 1.8l-15.6 27a5.8 5.8 0 0 1 0 9.7l10.8 18.7 4.8 8.3a2.3 2.3 0 0 1 3.2 1.8h34.6a2.3 2.3 0 0 1 3.2-1.8l.4.2a2.3 2.3 0 0 1 .4 3.3l-.4.4 17.3 30h.1a2.3 2.3 0 0 1 3 1.8h34.7c.2-1.1 1.1-2 2.3-2l.8.2 17.3-30a2.3 2.3 0 0 1 0-3.7l-17.2-30c-.3.2-.7.2-1 .2m58.7 34c-1.2 0-2.1-.9-2.3-2h-34.6a2.2 2.2 0 0 1-3.2 1.8l-17.3 30a2.3 2.3 0 0 1 0 3.7l17.3 30a2.3 2.3 0 0 1 3.2 1.8h31a5.8 5.8 0 0 1 8.6-4.8l15.5-27c-.6-.5-1-1.1-1-1.9 0-.8.4-1.4 1-1.8l-17.2-30zm139 99.1h34.7a2.3 2.3 0 0 1 3.1-1.9l17.3-30a2.3 2.3 0 0 1 0-3.6l-17.3-30-.8.2c-1.2 0-2.1-.9-2.3-2h-31.2a5.8 5.8 0 0 1-8.4 4.8l-15.6 27c.6.4 1 .9 1 1.6v.2c0 .8-.4 1.4-1 1.8l17.4 30a2.3 2.3 0 0 1 3.1 1.9M863 606.6l-1-.2-17.3 30a2.3 2.3 0 0 1 0 3.6l17.3 30c.3-.2.6-.2.9-.2 1.2 0 2.2 1 2.3 2h34.6c.1-1 1-1.9 2-2 .4 0 .8 0 1.2.2l17.3-30a2.3 2.3 0 0 1 0-3.6l-17.3-30a2.3 2.3 0 0 1-3.2-1.8h-34.6c-.2 1.1-1.1 2-2.2 2m273.9 63.2.9.2 17.3-30a2.3 2.3 0 0 1 0-3.6l-17.3-30a2.3 2.3 0 0 1-3.2-1.8H1100a2.3 2.3 0 0 1-3.2 1.8l-15.6 27a5.8 5.8 0 0 1 0 9.6l11.6 20.2 4 6.8a2.3 2.3 0 0 1 3.2 1.8h34.6c.2-1.1 1.1-2 2.3-2m-117.4-262.9a6 6 0 0 1-5.8-5.6h-31c-.2 1.1-1.1 2-2.3 2l-.8-.2-17.3 30a2.3 2.3 0 0 1 0 3.6l15.5 27a5.8 5.8 0 0 1 8.6 4.9h31a2.3 2.3 0 0 1 3.2-1.8l17.3-30a2.3 2.3 0 0 1 0-3.6l-15.6-27c-.8.4-1.8.7-2.8.7m76 129.7c-.1-.8.3-1.4.9-1.8l-15.6-27a5.8 5.8 0 0 1-8.4-4.9h-31.1a2.3 2.3 0 0 1-3.1 1.9l-17.4 30a2.3 2.3 0 0 1 0 3.6l17.4 30 .8-.2c1.2 0 2.1.9 2.3 2h34.6a2.3 2.3 0 0 1 3.2-1.8l17.4-30c-.6-.4-1-1.1-1-1.8m-191.1 67.7c0 .7-.3 1.3-.8 1.8h-.1l17.3 30a2.3 2.3 0 0 1 3.2 1.9h31a5.8 5.8 0 0 1 8.5-4.8l15.6-27a2.3 2.3 0 0 1 0-3.7l-17.3-30a2.3 2.3 0 0 1-3.2-1.8H924a2.3 2.3 0 0 1-3.2 1.8l-17.3 30c.6.4 1 1.1 1 1.8m249.8-33.8c0-.8.4-1.5 1-1.9l-17.3-30a2.3 2.3 0 0 1-3.2-1.8H1100a2.3 2.3 0 0 1-3.2 1.8l-17.3 30a2.3 2.3 0 0 1 .4 3.3l-.4.4 17.3 30a2.3 2.3 0 0 1 3.2 1.8h34.6a2.3 2.3 0 0 1 3.2-1.8l17.3-30c-.6-.4-.9-1.1-.9-1.8M904.3 401.1c0 .6-.3 1.3-.8 1.8h-.1l17.3 30a2.3 2.3 0 0 1 3.2 1.8h34.6a2.3 2.3 0 0 1 3.2-1.8l17.3-30a2.3 2.3 0 0 1 0-3.6l-17.3-30a2.3 2.3 0 0 1-3.2-1.9h-31.1a5.8 5.8 0 0 1-8.5 5l-15.6 26.8c.7.5 1 1.2 1 1.9m132.5-33.2c-.3-1 .1-2 .9-2.5l-17.4-30a2.3 2.3 0 0 1-3.1-1.9h-34.7a2.3 2.3 0 0 1-3.1 1.9l-17.3 30c1 .8 1.2 2.2.4 3.2l-.4.4 17.4 30a2.3 2.3 0 0 1 3.2 1.9h31a5.8 5.8 0 0 1 8.5-4.9l15.6-27c-.4-.3-.7-.7-.9-1.1m41.3 335.8.9.2 17.3-30a2.3 2.3 0 0 1 0-3.7l-15.6-27a5.8 5.8 0 0 1-8.5-4.8h-31a2.2 2.2 0 0 1-3.2 1.9l-17.3 30c.8.5 1.1 1.5.8 2.5v.1c-.2.4-.4.7-.8 1l17.3 30a2.3 2.3 0 0 1 3.2 1.8h34.6c.1-1.1 1.1-2 2.3-2m-215-300.4c-.4 0-.7 0-1-.2l-17.3 30a2.3 2.3 0 0 1 0 3.7l17.3 30c1.1-.5 2.5 0 3 1.1.2.2.2.5.2.7H900a2.3 2.3 0 0 1 3.2-1.8l17.3-30a2.3 2.3 0 0 1 0-3.7l-17.3-30a2.3 2.3 0 0 1-3.2-1.8h-34.6c-.2 1.1-1.1 2-2.2 2m330 302.4a2.3 2.3 0 0 1 3.2-1.8l17.3-30a2.3 2.3 0 0 1 0-3.6l-17.3-30a2.3 2.3 0 0 1-3.2-1.9h-34.6a2.3 2.3 0 0 1-3.2 1.9l-17.3 30a2.3 2.3 0 0 1 0 3.6l15.5 26.9a5.8 5.8 0 0 1 8.5 4.9zM728.3 570.5c0 .7-.4 1.4-.9 1.8l17.3 30 .8-.2c1.2 0 2.1.9 2.3 2h34.7c.1-1.1 1.1-2 2.2-2 .3 0 .6 0 .9.2l17.3-30a2.3 2.3 0 0 1-.4-3.3l.4-.4-17.3-30-.8.2c-1.2 0-2.1-.9-2.3-2h-34.7c-.2 1.1-1.1 2-2.3 2l-.8-.2-17.4 30c.6.4 1 1.1 1 1.9m171.4 237.3h-34.6a2.3 2.3 0 0 1-3.2 1.8l-15.6 27a5.8 5.8 0 0 1 0 9.7l15.6 27a2.3 2.3 0 0 1 3.2 1.8h34.6a2.3 2.3 0 0 1 3.2-1.8l17.3-30a2.3 2.3 0 0 1 0-3.6l-17.3-30a2.3 2.3 0 0 1-3.2-1.9M784.8 403.3l-.2.1c-1.2 0-2.2-.9-2.2-2h-34.7c-.2 1.1-1.1 2-2.3 2l-.8-.2-17.3 30a2.3 2.3 0 0 1 0 3.7l15.3 26.4 2 3.6.8-.2c1.2 0 2.1.9 2.3 2h34.7c.2-1.1 1.1-2 2.3-2l.8.2L801 440a5.8 5.8 0 0 1 0-10l-15.2-26.9c-.4.2-.7.2-1 .2m193.3-70c0-.8.4-1.4 1-1.8l-17.3-30a2.3 2.3 0 0 1-3.2-1.8H924a2.3 2.3 0 0 1-3.2 1.8l-17.3 30a2.3 2.3 0 0 1 0 3.7l15.6 27a5.8 5.8 0 0 1 8.3 4.8h31.2a2.3 2.3 0 0 1 3.2-1.9l17.3-30c-.6-.4-1-1.1-1-1.8M806.4 232a2.3 2.3 0 0 1-3.2 1.8l-17.3 30a2.3 2.3 0 0 1 0 3.7l17.3 30a2.3 2.3 0 0 1 3.2 1.8H841a2.3 2.3 0 0 1 3.2-1.8l17.3-30a2.3 2.3 0 0 1 0-3.7L846 237a5.8 5.8 0 0 1-8.5-5zm39.2 67.4h.1c0 .8-.4 1.5-1 1.9l17.3 30a2.3 2.3 0 0 1 3.2 1.8h34.6c.2-1.2 1.2-2 2.2-2 .4 0 .7 0 1 .2l17.3-30a2.3 2.3 0 0 1-.3-3.4l.3-.3-17.3-30a2.3 2.3 0 0 1-3.2-1.8h-34.6a2.3 2.3 0 0 1-3.2 1.8l-17.3 30c.6.4.9 1.1.9 1.8M745.5 606.7l-.9-.2-17.4 30a2.3 2.3 0 0 1 0 3.7l15.3 26.4.4.6a5.8 5.8 0 1 1-.2 10.2l-15.5 26.8a2.3 2.3 0 0 1 .2 3.7h-.2l17.4 29.9a2.3 2.3 0 0 1 3.1 2h34.7a2.2 2.2 0 0 1 3.1-2l17.3-30a2.3 2.3 0 0 1 0-3.6l.4-.2a2.3 2.3 0 0 1 3.2 1.8H841a2.3 2.3 0 0 1 3.2-1.8l17.3-30v-.1a2.3 2.3 0 0 1 0-3.5l-17.3-30a2.3 2.3 0 0 1-3.2-1.8h-34.6c-.2 1-1.1 2-2.2 2l-1-.2-.4-.3a2.3 2.3 0 0 1 0-3.6l-17.3-30-.8.2c-1.2 0-2.1-.9-2.3-2h-34.7c-.1 1.1-1.1 2-2.2 2m-2.2-205.6c0-.6.3-1.2.7-1.6l.3-.3-15.6-26.8a5.8 5.8 0 0 1-8.5-5h-31a2.3 2.3 0 0 1-3.2 1.8l-17.3 30a2.3 2.3 0 0 1 0 3.7l17.3 30a2.3 2.3 0 0 1 3.2 1.8h34.6a2.2 2.2 0 0 1 3.2-1.8l17.3-30c-.6-.4-1-1.1-1-1.8m97.8-101.4-34.6.1a2.3 2.3 0 0 1-3.2 1.8l-17.3 30a2.3 2.3 0 0 1 0 3.6l17.3 30a2.3 2.3 0 0 1 3.2 1.9v.4a2.3 2.3 0 0 1-3.2 1.8l-17.2 30a2.3 2.3 0 0 1 0 3.7h-.1l15.6 26.7a5.8 5.8 0 0 1 8.4 5h31.1c.2-1.1 1.2-2 2.2-2l1 .2 17.3-30a2.3 2.3 0 0 1 0-3.7l.4-.2a2.3 2.3 0 0 1 3.2 1.8h34.6c.2-1.1 1.2-2 2.2-2l1 .2 15.5-26.8a5.8 5.8 0 0 1 .1-9.8l-15.6-27a2.3 2.3 0 0 1-3.2-1.8h-34.6a2.3 2.3 0 0 1-3.2 1.8l-.4-.2a2.3 2.3 0 0 1 0-3.7l-17.3-30a2.3 2.3 0 0 1-3.2-1.8m63.1 507.9c0 .7-.4 1.3-1 1.8l17.3 30a2.3 2.3 0 0 1 3.2 1.8h31.1a5.8 5.8 0 0 1 8.4-4.8l15.6-27a2.3 2.3 0 0 1 0-3.6l.4-.3a2.3 2.3 0 0 1 3.1 1.9h34.7a2.2 2.2 0 0 1 3.1-1.9l17.3-30a2.3 2.3 0 0 1 0-3.6l-15.6-27a5.8 5.8 0 0 1-8.5-4.8h-31c-.1 1.1-1.1 2-2.2 2l-.9-.2-.4-.2a2.3 2.3 0 0 1 0-3.7l-17.3-30a2.3 2.3 0 0 1-3.2-1.8h-34.6a2.3 2.3 0 0 1-3.2 1.8l-17.3 30a2.3 2.3 0 0 1 0 3.7l12.5 21.7 4.8 8.3.8-.2c1.2 0 2.1.9 2.3 2v.5c0 1-.9 1.9-2 2-.4 0-.8 0-1.1-.2l-17.4 30c.6.4 1 1 1 1.8m0 67.7c0 .8-.4 1.5-1 1.9l17.3 30a2.3 2.3 0 0 1 3.2 1.8h34.6a2.2 2.2 0 0 1 3.2-1.8l17.3-30a2.3 2.3 0 0 1 0-3.6l-15.6-27a5.8 5.8 0 0 1-8.5-4.9h-31a2.3 2.3 0 0 1-3.2 1.8l-17.4 30c.6.4 1 1 1 1.8m191.1-135.5c0-.7.4-1.4 1-1.8l-17.3-30a2.3 2.3 0 0 1-3.2-1.8H1041l-.2.6v.3c-.6 1-1.9 1.4-3 1l-15.6 27a5.8 5.8 0 0 1 0 9.6l15.6 27a2.3 2.3 0 0 1 3.2 1.8h34.6a2.3 2.3 0 0 1 3.2-1.8l17.4-30c-.7-.5-1-1.1-1-1.9"/><path fill="#fff" d="m707.6 877.2 17.3 30a2.3 2.3 0 0 1 3.2 2c0 1.3-1 2.3-2.2 2.3-.4 0-.7-.1-1-.3l-17.4 30c.7.5 1 1.1 1 1.9 0 1.2-1 2.2-2.2 2.2-1.2 0-2.2-.9-2.3-2h-34.6a2.3 2.3 0 0 1-3.2 1.8l-17.3 30c.6.4 1 1.1 1 1.8 0 1.3-1.1 2.3-2.3 2.3-1.2 0-2.2-.9-2.2-2h-31.2a5.8 5.8 0 0 1-8.4 4.8l-15.6 27a2.3 2.3 0 0 1 0 3.7l17.4 30a2.3 2.3 0 0 1 3.1 2c0 1.3-1 2.3-2.2 2.3l-.9-.2-15.6 27.1a6 6 0 0 1 2.5 4.8c0 3.2-2.5 5.8-5.7 5.8a5.9 5.9 0 0 1-5.8-5.7h-30.9c0 1.2-1 2.2-2.3 2.2-1.3 0-2.3-1-2.3-2.3 0-.8.4-1.5 1-1.9l-17.3-30a2.3 2.3 0 0 1-3.2-1.9h-34.5a2.3 2.3 0 0 1-3.2 1.8l-17.4 30c.7.5 1 1.2 1 1.9 0 1.2-1 2.2-2.2 2.2-1.2 0-2.2-.8-2.3-2h-34.6c-.1 1-1 2-2 2-.4 0-.8 0-1.2-.2l-15.5 27a5.8 5.8 0 0 1 0 9.7l15.5 27a2.3 2.3 0 0 1 3.2 2c0 1.3-1 2.3-2.2 2.3l-1-.2-17.3 30c.6.4 1 1.1 1 1.8 0 1.3-1.1 2.3-2.3 2.3-1.2 0-2.2-1-2.2-2h-34.7c-.1 1-1.1 2-2.2 2l-.9-.2-15.8 27.1a5.8 5.8 0 0 1-3 10.7 5.8 5.8 0 0 1-5.8-5.8h-31c0 1.2-1 2.2-2.3 2.2-1.3 0-2.3-1-2.3-2.3 0-.8.4-1.6 1.1-2l-17.3-30a2.3 2.3 0 1 1 0-4l17.3-30a2.3 2.3 0 0 1 0-3.7l-15.6-27a5.8 5.8 0 1 1 0-10.1l15.6-27a2.3 2.3 0 0 1-.7-2.9c.2-.3.4-.6.7-.7l-17.3-30a2.3 2.3 0 0 1-3.2-1.9h-31.1a5.8 5.8 0 0 1-8.5 4.9l-15.6 27c.6.4 1 1 1 1.8 0 1.2-1 2.2-2.2 2.2-1.2 0-2.2-.8-2.3-2h-34.6a2.3 2.3 0 0 1-3.2 1.8l-17.3 30c.6.5.9 1.1.9 1.9 0 1.2-1 2.2-2.2 2.2-1.2 0-2.1-.9-2.3-2h-31.6c0 3.2-2.6 5.8-5.8 5.8a5.8 5.8 0 0 1-2.6-11l-15.5-26.9a2.3 2.3 0 1 1 0-4.1l17.4-30a2.3 2.3 0 0 1 0-3.6l-17.4-30h-.1a2.3 2.3 0 0 1-3-1.8H86.1a5.8 5.8 0 0 1-5.8 5.6 5.8 5.8 0 0 1-2.9-10.8l-15.5-26.8a2.3 2.3 0 0 1-3.2-2H24.1c0 1.2-1 2.2-2.3 2.2-1.3 0-2.3-1-2.3-2.3 0-.8.4-1.5 1-1.9l-17.3-30a2.3 2.3 0 1 1 0-4.1l15.5-26.8a6 6 0 0 1-2.7-5 5.8 5.8 0 0 1 5.8-5.2c2.8 0 5.3 2.2 5.7 5h31.2a2.3 2.3 0 0 1 3.2-1.8l17.3-30c-.6-.5-1-1.2-1-1.9 0-1.2 1.1-2.2 2.3-2.2 1.2 0 2.2.8 2.2 2h34.7c.2-1.1 1.1-2 2.3-2l.8.2 17.4-30c-1-.7-1.2-1.9-.7-2.9l.7-.8-15.6-27a5.8 5.8 0 1 1 .1-10.3l15.5-26.8a2.3 2.3 0 0 1 0-3.6l-17.4-30a2.3 2.3 0 0 1-3.1-1.9H82.7c0 1.2-1 2.3-2.3 2.3-1.3 0-2.3-1-2.3-2.3 0-.8.4-1.6 1.1-2l-15.5-27a5.8 5.8 0 1 1 0-10.3l15.5-26.8c-.6-.4-1-1.1-1-1.9 0-1.2 1.1-2.2 2.3-2.2 1.2 0 2.2.9 2.2 2h34.8c.2-1.1 1.1-2 2.3-2l.8.2 17.4-30c-.6-.4-1-1.1-1-1.8 0-1.2 1-2.2 2.3-2.2 1.2 0 2.2.8 2.2 2h31c0-3.1 2.7-5.6 5.8-5.6a5.8 5.8 0 0 1 3.2 10.6l15.5 27a2.3 2.3 0 0 1 3.2 1.8h34.6a2.3 2.3 0 0 1 3.2-1.8l17.2-30a2.3 2.3 0 0 1 0-3.7l-17.3-30a2.3 2.3 0 0 1-3.2-2 2.3 2.3 0 0 1 3.2-2l17.3-30a2.3 2.3 0 0 1 0-3.7l-17.3-30a2.3 2.3 0 1 1 0-4.1l17.4-30a2 2 0 0 1-1-1.8c0-1.2 1-2.2 2.2-2.2 1.2 0 2.2.8 2.3 2h31.1l-.2-.1c.2-3 2.7-5.4 5.8-5.4a5.8 5.8 0 0 1 3.2 10.6l15.5 26.8a2.3 2.3 0 0 1 3.2 2H352c0-1.2 1-2.3 2.3-2.3 1.3 0 2.3 1 2.3 2.3 0 .8-.4 1.6-1.1 2l17.4 30 .8-.2c1.2 0 2.1.9 2.3 2h34.8c.2-1.1 1.1-2 2.3-2l.8.2 15.5-26.8a5.4 5.4 0 0 1-2.8-4.8 5.8 5.8 0 0 1 11.5-.4h31.3c0-1.2 1-2.2 2.3-2.2 1.3 0 2.3 1 2.3 2.3 0 .8-.4 1.5-1 1.9l17.3 30a2.3 2.3 0 0 1 3.2 2c0 1.3-1 2.3-2.2 2.3l-1-.2-17.3 30a2.3 2.3 0 0 1 0 3.6l17.4 30a2.3 2.3 0 0 1 3 1.4l.1.5h34.6c0-1.2 1-2.2 2.3-2.2 1.3 0 2.3 1 2.3 2.3 0 .8-.4 1.5-1 1.9l15.8 27.3a6 6 0 0 1 2.4-.5c2.8 0 5.3 2.2 5.7 5h31.2a2.3 2.3 0 0 1 3.2-1.8l17.3-30a2 2 0 0 1-1-1.7v-.1c0-1.2 1.1-2.2 2.3-2.2 1.2 0 2.2.8 2.2 2h31a5.8 5.8 0 0 1 8.5-4.7l15.7-27.1c-1-.7-1.2-2-.7-3l.7-.7-15.6-27a5.8 5.8 0 1 1 .1-10.3l15.5-26.8a2.3 2.3 0 0 1 0-3.7l-17.3-30a2.3 2.3 0 0 1-3.2-1.8h-34.6c0 1.2-1 2.2-2.3 2.2-1.3 0-2.3-1-2.3-2.3 0-.8.4-1.5 1-1.9l-15.5-27a5.8 5.8 0 1 1 0-10.2l15.5-27c-.6-.4-.9-1.1-.9-1.8 0-1.2 1-2.2 2.2-2.2 1.2 0 2.1.8 2.3 2h34.6a2.3 2.3 0 0 1 3.2-1.8l17.3-30c-.6-.5-1-1.1-1-1.9 0-1.2 1-2.2 2.3-2.2 1.2 0 2.2.9 2.2 2.1h31c0-3.1 2.7-5.6 5.8-5.6a5.8 5.8 0 0 1 3.2 10.6l15.5 27a2.3 2.3 0 0 1 3.2 1.8h34.6a2.3 2.3 0 0 1 3.2-1.8l17.3-30a2.3 2.3 0 0 1 0-3.7l-17.3-30a2.3 2.3 0 0 1-3.2-2c0-1.3 1-2.3 2.2-2.3l1 .2 17.3-30a2.3 2.3 0 0 1 0-3.7l-17.3-30a2.3 2.3 0 0 1-3.2-2c0-1.2 1-2.2 2.2-2.2.4 0 .7 0 1 .2l17.4-30c-.7-.4-1-1.1-1-1.9 0-1.2 1-2.2 2.2-2.2 1.2 0 2.2.9 2.3 2h31c.1-3 2.7-5.5 5.8-5.5a5.8 5.8 0 0 1 3.2 10.6l15.5 27a2.3 2.3 0 0 1 3.2 1.8h34.6c0-1.2 1-2.2 2.3-2.2 1.3 0 2.3 1 2.3 2.3 0 .8-.4 1.5-1 1.9l17.3 30a2.3 2.3 0 0 1 3.1 1.9h34.7a2.3 2.3 0 0 1 3.1-1.9l15.5-26.7a5.5 5.5 0 0 1-2.8-4.9 5.8 5.8 0 0 1 11.5-.4h31.3c.1-1.2 1.1-2 2.3-2a2.2 2.2 0 0 1 1.3 4.1l17.3 30a2.3 2.3 0 0 1 3.2 2 2.3 2.3 0 0 1-3.2 2l-17.3 30a2.3 2.3 0 0 1 0 3.7l17.4 30a2.3 2.3 0 0 1 3 1.4l.1.5h34.6c0-1.2 1-2.2 2.3-2.2 1.3 0 2.3 1 2.3 2.3 0 .8-.4 1.5-1 1.9l17.3 30a2.3 2.3 0 0 1 3.2 1.8h34.6a2.3 2.3 0 0 1 3.2-1.8l17.3-30c-.6-.4-1-1.1-1-1.8 0-1.3 1.1-2.3 2.3-2.3 1.2 0 2.2.9 2.2 2.1h31c0-3.1 2.7-5.6 5.8-5.6a5.8 5.8 0 0 1 3.2 10.6l15.6 27a2.3 2.3 0 0 1 3.1 2.1 2.3 2.3 0 0 1-3.1 2l-17.4 30a2.3 2.3 0 0 1 0 3.7l17.4 30a2.3 2.3 0 0 1 3.1 2 2.3 2.3 0 0 1-3.1 2l-17.4 30c.6.5 1 1.1 1 1.9 0 1.2-1 2.2-2.3 2.2-1.2 0-2.2-.9-2.2-2h-34.7a2.2 2.2 0 0 1-3.1 1.8l-17.3 30a2.3 2.3 0 0 1 0 3.7l17.3 30 .8-.2c1.2 0 2.1.9 2.3 2h34.7c0-1.2 1-2.3 2.3-2.3 1.3 0 2.3 1 2.3 2.3 0 .8-.4 1.6-1.1 2l15.6 26.9a5.8 5.8 0 0 1 8.4 5h31.1c.1-1.2 1.1-2 2.3-2a2.2 2.2 0 0 1 1.3 4.1l17.3 30a2.3 2.3 0 0 1 3.2 2c0 1.2-1 2.2-2.2 2.2-.4 0-.7 0-1-.2l-17.4 30c.6.4 1 1 1 1.8 0 1.3-1 2.3-2.2 2.3-1.2 0-2.2-.9-2.3-2h-34.6a2.3 2.3 0 0 1-3.2 1.8l-17.3 30c.6.4 1 1.1 1 1.8 0 1.2-1.1 2.2-2.3 2.2-1.2 0-2.2-.8-2.2-2h-31.2a5.8 5.8 0 0 1-8.4 4.9l-15.6 27a2.3 2.3 0 0 1 0 3.7l17.4 30a2.3 2.3 0 0 1 3.1 2c0 1.2-1 2.2-2.2 2.2l-.9-.1-15.7 27a5.9 5.9 0 0 1 2.6 4.8 5.8 5.8 0 0 1-5.8 5.1 5.9 5.9 0 0 1-5.7-5h-31c0 1.2-1 2.3-2.3 2.3-1.3 0-2.3-1-2.3-2.3 0-.8.4-1.6 1.1-2l-17.3-30a2.3 2.3 0 0 1-3.2-1.8h-34.6a2.3 2.3 0 0 1-3.2 1.8l-17.4 30c.7.4 1 1.1 1 1.9 0 1.2-1 2.2-2.2 2.2-1.2 0-2.2-.9-2.3-2h-34.6c-.1 1-1 1.9-2 2-.4 0-.8 0-1.2-.2l-15.5 27a5.8 5.8 0 0 1 0 9.7l15.5 27a2.3 2.3 0 0 1 3.2 2c0 1.3-1 2.3-2.2 2.3-.4 0-.7-.1-1-.3l-17.3 30c.6.5.9 1.2.9 1.9 0 1.2-1 2.2-2.2 2.2-1.2 0-2.1-.8-2.3-2h-34.6c-.1 1.2-1.1 2-2.2 2-.3 0-.7 0-1-.2l-15.6 27.2a6 6 0 0 1 2.6 4.9 5.8 5.8 0 0 1-11.5 0v-.1h-31c0 1.2-1 2.3-2.3 2.3-1.3 0-2.3-1-2.3-2.3 0-.8.4-1.6 1.1-2l-17.3-30a2.3 2.3 0 1 1 0-4.1l17.3-30a2.3 2.3 0 0 1 0-3.6l-15.6-27a5.8 5.8 0 1 1 0-10.1l15.6-27a2.3 2.3 0 0 1-.7-2.9l.7-.8-17.3-30a2.3 2.3 0 0 1-3.3-1.8h-31a5.8 5.8 0 0 1-8.5 4.9l-15.6 26.9c.7.5 1 1.1 1 1.9 0 1.2-1 2.2-2.2 2.2-1.2 0-2.2-.9-2.3-2h-34.6a2.3 2.3 0 0 1-3.2 1.8l-17.3 30c.6.4.9 1.1.9 1.8 0 .8-.4 1.5-1 2M547 667.6l-15.8-27.4a2.3 2.3 0 0 1-3.2-1.8h-34.6a2.3 2.3 0 0 1-3.2 1.8l-15.6 27a5.8 5.8 0 0 1 0 9.7l15.6 27a2.3 2.3 0 0 1 3.2 1.8H528a2.3 2.3 0 0 1 3.2-1.8l15.5-27a6 6 0 0 1-2.6-4.9 5.8 5.8 0 0 1 2.9-4.4m-19 38.6h-34.6a2.3 2.3 0 0 1-3.2 1.8l-17.3 30c.6.4 1 1.1 1 1.8 0 .8-.4 1.4-1 1.8l17.3 30c1.2-.5 2.5 0 3 1.2.2.2.2.4.2.7h31.1a5.8 5.8 0 0 1 8.5-4.9l15.5-27a2.3 2.3 0 0 1-.8-2.4c.1-.5.4-.9.8-1.2l-17.3-30a2.3 2.3 0 0 1-3.2-1.8m20.8 35.7-15.5 26.9a5.8 5.8 0 0 1 0 9.7l15.6 27a2.3 2.3 0 0 1 3.2 1.8h34.6a2.2 2.2 0 0 1 3.2-1.8l15.4-26.8a5.8 5.8 0 0 1 .1-9.9L590 742l-.8.2h-.1c-1.2 0-2.2-1-2.3-2.1h-34.5a2.3 2.3 0 0 1-3.4 2m57 37.1L590.5 806a2.3 2.3 0 0 1 0 3.7l17.3 29.9a2.3 2.3 0 0 1 3.1 2h34.5c0-1.2 1-2.2 2.3-2.2a2.4 2.4 0 0 1 1 .1l17.4-29.9a2.3 2.3 0 0 1 0-3.6l-17.4-30-.9.2c-1.2 0-2.2-.8-2.2-2h-31.3a5.8 5.8 0 0 1-8.4 5m39.5 62.7h-34.5a2.2 2.2 0 0 1-3.2 1.8l-17.3 30a2.3 2.3 0 0 1 0 3.6l17.3 30a2.3 2.3 0 0 1 3.1 1.9h34.7a2.2 2.2 0 0 1 3.1-1.8l15.4-26.6a5.8 5.8 0 0 1 .2-10.2l-15.6-26.9a2.3 2.3 0 0 1-3.2-1.8m19 39.2L649 907.4c.5.3.9.9 1 1.6v.2c0 .8-.4 1.4-1 1.8l17.2 30a2.3 2.3 0 0 1 3.2 1.8H704a2.2 2.2 0 0 1 3.2-1.8l17.3-30a2.3 2.3 0 0 1 0-3.6l-17.3-30a2.1 2.1 0 0 1-1.1.2c-1-.1-2-1-2-2H673a5.8 5.8 0 0 1-2.7 4.5 5.8 5.8 0 0 1-6 .8m43-7.6 17.3-30a2.3 2.3 0 0 1 0-3.7l-17.3-30a2.3 2.3 0 0 1-3.2-1.8l-34.6.1c-.2 1.1-1.1 2-2.3 2l-.8-.2-17.3 29.8a2.3 2.3 0 0 1-.1 3.9l15.6 26.7.4-.2a5.8 5.8 0 0 1 8 5.2h31a2.3 2.3 0 0 1 3.3-1.8m-58.2-97.7 17.3 29.9a2.3 2.3 0 0 1 3.1 1.9h34.7a2.3 2.3 0 0 1 3.1-1.9l17.3-30a2.3 2.3 0 0 1 0-3.6l-17.3-30a2.3 2.3 0 0 1-3.1-1.9h-34.7c0 1.3-1 2.2-2.2 2.2l-.9-.2-17.4 30c.6.3 1 1 1 1.7v.1c0 .7-.4 1.4-1 1.8m0-67.7 17.3 29.9.8-.2c1.2 0 2.1.9 2.3 2h34.7c.2-1.1 1.1-2 2.2-2 .3 0 .6 0 .9.2l15.5-26.8a5.8 5.8 0 0 1 .1-9.9l-15.6-27-.8.2c-1.2 0-2.1-.9-2.3-2h-34.7c0 1.2-1 2.1-2.2 2.1l-.9-.2-17.4 30c.6.4 1 1 1 1.7v.1c0 .8-.4 1.4-1 1.9m1.7-64.7 15.6 26.8.8-.2c1.2 0 2.1.9 2.3 2H704c.1-1.1 1-2 2.2-2l.9.2 17.3-30a2.3 2.3 0 0 1 0-3.6l-17.3-30a2.3 2.3 0 0 1-3.1-1.9h-34.7a2.3 2.3 0 0 1-3.1 1.9l-15.7 27a5.8 5.8 0 0 1 .1 9.8m429.6-72.9 34.6-.1a2.3 2.3 0 0 1 3.2-1.8l17.3-30a2.3 2.3 0 0 1 0-3.7l-17.3-30a2.3 2.3 0 0 1-3.2-1.8h-34.6a2.3 2.3 0 0 1-3.2 1.8l-15.6 27a5.8 5.8 0 0 1 0 9.6l15.6 27a2.3 2.3 0 0 1 3.2 2m-21.9 167.2-.1.1c.4 0 .7 0 1 .2l17.3-30a2.3 2.3 0 0 1 0-3.7l-15.6-27a5.8 5.8 0 0 1-8.5-4.8h-31c-.2 1.1-1.2 2-2.2 2l-1-.2-17.3 30c.8.5 1.1 1.5.8 2.5v.2c-.2.4-.4.7-.8 1l17.3 30a2.3 2.3 0 0 1 3.2 1.7h34.6c.1-1 1.1-2 2.3-2m-58.7-33.9c.4 0 .7 0 1 .2l17.3-30a2.3 2.3 0 0 1 0-3.6l-17.3-30a2.3 2.3 0 0 1-3.2-1.9H963a2.3 2.3 0 0 1-3.2 1.8l-15.5 27a5.8 5.8 0 0 1 0 9.7l15.5 27a2.3 2.3 0 0 1 3.2 1.8h34.5a2.4 2.4 0 0 1 2.3-2.1M726 505c-.4 0-.7 0-1-.2l-15.5 26.9a5.8 5.8 0 0 1 0 9.8l15.5 27a2.3 2.3 0 0 1 3.2 1.8h34.6c.2-1.1 1.2-2 2.2-2 .4 0 .7 0 1 .2l17.3-30a2.2 2.2 0 0 1 0-3.7l-17.3-30a2.3 2.3 0 0 1-3.2-1.8h-34.6c-.2 1.1-1.1 2-2.2 2m117.5-67.8-1-.2-17.3 30a2.3 2.3 0 0 1 0 3.6l17.3 30a2.3 2.3 0 0 1 3.2 1.8h34.6a2.3 2.3 0 0 1 3.2-1.8l17.3-30a2.3 2.3 0 0 1 0-3.6l-17.3-30a2.3 2.3 0 0 1-3.2-1.8h-34.6c-.2 1.1-1.2 2-2.2 2m36.7 404.5h-34.7c-.2 1.1-1.1 2-2.3 2l-.8-.2-15.6 27a5.8 5.8 0 0 1 0 9.6l15.6 27a2.3 2.3 0 0 1 3.2 1.9h34.6c.2-1.1 1.1-2 2.3-2l.8.2 17.4-30a2.2 2.2 0 0 1 0-3.7l-17.4-30-.8.2c-1.2 0-2.1-.9-2.3-2m-95.6-39.9c3.1 0 5.7 2.5 5.8 5.5h31.1a2.3 2.3 0 0 1 3.2-1.7l15.5-27a5.8 5.8 0 0 1 0-9.7l-15.5-27a2.3 2.3 0 0 1-3.2-1.8h-34.6c-.1 1-1 1.9-2 2-.4 0-.8 0-1.2-.2l-17.3 30 .1.1a2.3 2.3 0 0 1-.1 3.5l15.6 27a6 6 0 0 1 2.6-.7m97.8-30.4.8.2 17.4-30a2.3 2.3 0 0 1 0-3.6l-17.3-30a2.3 2.3 0 0 1-3.2-1.8h-34.6a2.3 2.3 0 0 1-3.2 1.8L825 738v.1a2.3 2.3 0 0 1 0 3.5l15.5 27a5.8 5.8 0 0 1 8.5 4.8h31.2c.1-1 1.1-2 2.2-2m76-404.2c0-.8.4-1.4 1-1.9l-17.4-30-.8.2c-1.2 0-2.1-.9-2.3-2h-34.8c-.2 1.1-1.1 2-2.3 2l-.8-.2-17.3 30a2.3 2.3 0 0 1 0 3.7l15.6 27a5.8 5.8 0 0 1 8.3 4.8h31.2a2.2 2.2 0 0 1 3.1-1.8l17.4-30c-.6-.4-1-1.1-1-1.8m-173.8 235c1.2 0 2.2.8 2.3 2h31a5.8 5.8 0 0 1 8.5-4.8l15.6-27a2.3 2.3 0 0 1 0-3.7l-17.3-30a2.3 2.3 0 0 1-3.2-1.8h-34.6a2.3 2.3 0 0 1-3.2 1.8l-17.3 30c.5.4.8.8.9 1.4.2.9-.2 1.8-.9 2.3l17.3 30c.3-.2.6-.2.9-.2M726 640.4v.1c-.4 0-.7-.1-1-.3l-17.3 30a2.3 2.3 0 0 1 0 3.7l15.3 26.5.3.5a5.8 5.8 0 1 1-.1 10.3L707.8 738a2.3 2.3 0 0 1 0 3.6h-.1l17.3 30a2.3 2.3 0 0 1 3.2 1.9h34.6a2.2 2.2 0 0 1 3.2-1.9l17.3-30h-.1a2.3 2.3 0 0 1 .1-3.6l.4-.2a2.3 2.3 0 0 1 3.2 1.8h34.6a2.3 2.3 0 0 1 3.2-1.9l17.2-30a2.3 2.3 0 0 1 .1-3.6l-17.3-30a2.3 2.3 0 0 1-3.2-1.8h-34.6c-.2 1.1-1.2 2-2.2 2l-1-.2-.4-.2a2.3 2.3 0 0 1 0-3.7l-17.3-30a2.3 2.3 0 0 1-3.2-1.8h-34.6c-.2 1.2-1.1 2-2.2 2m58.6-33.7-.8-.2-17.3 30a2.3 2.3 0 0 1 .1 3.6h-.1l17.3 30a2.3 2.3 0 0 1 3.2 1.8h34.5a2.3 2.3 0 0 1 3.2-1.8l17.3-30c-.8-.6-1.2-1.7-.8-2.6.2-.4.4-.8.8-1l-15.5-27a5.8 5.8 0 0 1-8.6-4.8h-31c-.1 1-1.1 2-2.3 2m100 302.5c0 .8-.4 1.4-1 1.8l17.4 30a2.3 2.3 0 0 1 3.1 1.9h34.7a2.3 2.3 0 0 1 3.1-1.9l17.2-30a2.3 2.3 0 0 1 0-3.6l-15.5-26.9a5.8 5.8 0 0 1-8.5-4.9H904c-.2 1.1-1.1 2-2.3 2l-.8-.2-17.4 30c.6.4 1 1.1 1 1.8m-119.4-472-.1-.2c-1.2 0-2.2-.8-2.3-2h-34.6a2.3 2.3 0 0 1-3.2 1.9l-17.3 30a2.3 2.3 0 0 1 0 3.6L723 497l2 3.5a2.3 2.3 0 0 1 3.2 1.8h34.6a2.2 2.2 0 0 1 3.2-1.8l15.6-26.7a5.8 5.8 0 0 1 0-10L766.1 437zm234.7 135.4c-1.2 0-2.1-.9-2.3-2v-.5a2.2 2.2 0 0 1 3.2-1.8l17.3-30a2.3 2.3 0 0 1 0-3.7l-17.2-30c-.4.2-.7.2-1 .2-1.2 0-2.1-.8-2.3-2h-31a5.8 5.8 0 0 1-8.5 4.8l-15.6 27a2.3 2.3 0 0 1 0 3.7l-.3.2c-1.1.5-2.4 0-3-1-.2-.2-.2-.5-.2-.8h-34.7c-.2 1.1-1.1 2-2.3 2l-.8-.2-15.6 26.9a5.8 5.8 0 0 1 0 9.8l10.8 18.6 4.8 8.3a2.3 2.3 0 0 1 3.1 1.9H939a2.3 2.3 0 0 1 3.1-1.9l.4.3c.6.4 1 1.1 1 1.8 0 .8-.4 1.4-1 1.8l17.4 30a2.3 2.3 0 0 1 3.1 1.9h34.5a2.3 2.3 0 0 1 3.2-1.9l17.3-30a2.3 2.3 0 0 1 0-3.6l-17.2-30c-.4.2-.6.2-.9.2M787 265.9a2.3 2.3 0 0 1-3.2 1.8l-17.3 30a2.3 2.3 0 0 1 0 3.6l17.3 30a2.3 2.3 0 0 1 3.2 1.9h34.5a2.3 2.3 0 0 1 3.2-1.8l17.3-30a2.3 2.3 0 0 1 0-3.7l-15.5-26.9a5.8 5.8 0 0 1-8.6-4.9zm352.1 270.4h34.6c.1-1.1 1.1-2 2.2-2l1 .2 17.3-30a2.3 2.3 0 0 1 0-3.6l-17.3-30a2.3 2.3 0 0 1-3.2-1.9h-34.6a2.3 2.3 0 0 1-3.2 1.9l-17.3 30c1 .8 1.2 2.2.4 3.2l-.4.4 17.3 30a2.3 2.3 0 0 1 3.2 1.8m-63.2 34.1h-.1c0-.7.4-1.4 1-1.8l-15.6-27a5.8 5.8 0 0 1-8.5-4.8h-31a2.2 2.2 0 0 1-3.2 1.8l-17.3 30a2.3 2.3 0 0 1 0 3.6l17.4 30a2.3 2.3 0 0 1 3.1 1.9h34.6a2.3 2.3 0 0 1 3.2-1.8l17.4-30c-.7-.5-1-1.1-1-1.9m-406.4-33.6c-.2 1.1-1.1 2-2.3 2l-.8-.2-15.6 26.8a5.8 5.8 0 0 1 0 9.8l15.6 27a2.3 2.3 0 0 1 3.1 1.9h34.7c.2-1.1 1.1-2 2.3-2l.8.2 17.3-30a2.3 2.3 0 0 1 0-3.7l-15.5-26.9a5.8 5.8 0 0 1-8.3-4.9zM826 333.4c0 .8-.4 1.4-1 1.8l17.3 30a2.3 2.3 0 0 1 3.2 1.8h34.6c.2-1.1 1.1-2 2.2-2l1 .2 17.3-30c-.6-.4-1-1.1-1-1.8 0-.8.4-1.4 1-1.8l-17.3-30a2.3 2.3 0 0 1-3.2-1.9h-34.6a2.3 2.3 0 0 1-3.2 1.9l-17.4 30c.6.4 1 1 1 1.8m249.9 101.5c0-.7.4-1.4 1-1.8l-17.3-30a2.3 2.3 0 0 1-3.2-1.8h-34.6a2.3 2.3 0 0 1-3.2 1.8l-15.5 27a5.8 5.8 0 0 1 0 9.7l15.5 27a2.3 2.3 0 0 1 3.2 1.8h34.6c.2-1.2 1.2-2 2.2-2 .4 0 .7 0 1 .2l17.4-30c-.7-.5-1-1.1-1-1.9m58.7 33.9c0-.8.4-1.4 1-1.8l-17.3-30a2.3 2.3 0 0 1-3.2-1.8h-34.6a2.3 2.3 0 0 1-3.2 1.8l-17.3 30a2.3 2.3 0 0 1 0 3.6l13.3 23.2 4 6.8a2.3 2.3 0 0 1 3.2 1.9h34.6a2.3 2.3 0 0 1 3.2-1.9l17.3-30c-.6-.4-.9-1.1-.9-1.8m-291.3 36.1c-.4 0-.6 0-.9-.2l-17.3 30a2.3 2.3 0 0 1 0 3.6v.1l17.3 30a2.3 2.3 0 0 1 3.2 1.8h31a5.8 5.8 0 0 1 8.5-4.8l15.6-27a2.3 2.3 0 0 1-.3-3.4l.3-.3-10.2-17.5-7.1-12.5a2.3 2.3 0 0 1-3.2-1.8h-34.6c-.2 1.1-1.1 2-2.3 2M650 502.7v.1c0 .5-.2 1-.5 1.4l-.5.4 17.4 29.8a2.3 2.3 0 0 1 3.1 2h31.2a5.8 5.8 0 0 1 8.4-5l15.5-26.9a2.3 2.3 0 0 1 0-3.7l-.8-1.5-16.5-28.4a2.3 2.3 0 0 1-3.1-1.9h-34.7c-.2 1.1-1.1 2-2.3 2l-.8-.2-17.4 30c.6.5 1 1.1 1 1.9m425.9 271c0-.8.4-1.4 1-1.8l-17.3-30a2.3 2.3 0 0 1-3.2-1.9h-34.6l-.2.7v.2c-.6 1-2 1.5-3 1l-15.6 27a5.8 5.8 0 0 1 0 9.6l15.6 27a2.3 2.3 0 0 1 3.2 1.8h34.6a2.3 2.3 0 0 1 3.2-1.8l17.3-30c-.6-.4-.9-1.1-.9-1.8m-15.1 33.9c0 .7-.4 1.4-1 1.8l17.3 30 .8-.2c1.2 0 2.1.9 2.3 2h31a5.8 5.8 0 0 1 8.5-4.8l15.7-27a2.3 2.3 0 0 1 0-3.6l-17.3-30a2.3 2.3 0 0 1-3.2-1.9h-34.6a2.3 2.3 0 0 1-3.2 1.8l-17.4 30c.7.5 1 1.1 1 1.9M880.1 909.4l-34.6.1c-.1 1-1 2-2.2 2l-.9-.3-17.3 30a2.3 2.3 0 0 1 0 3.7l17.3 30a2.3 2.3 0 0 1 3.2 1.8h31a5.8 5.8 0 0 1 8.4-4.6l15.6-27.2a2.3 2.3 0 0 1 0-3.6l-17.4-30a2.3 2.3 0 0 1-3.1-1.9m178.4-302.9c-1.2 0-2.2-.9-2.3-2h-34.6a2.2 2.2 0 0 1-3.2 1.8l-17.3 30a2.3 2.3 0 0 1 0 3.6l17.3 30a2.3 2.3 0 0 1 3.2 1.8h31a5.8 5.8 0 0 1 8.5-4.8l15.6-27c-.6-.4-1-1.1-1-1.8 0-.8.4-1.4 1-1.8l-17.3-30zM708.6 807.6c0 .7-.4 1.4-1 1.8l17.3 30a2.3 2.3 0 0 1 3.2 1.8h34.6a2.3 2.3 0 0 1 3.2-1.8l15.6-26.9a5.8 5.8 0 0 1 0-9.7l-15.6-27a2.3 2.3 0 0 1-3.2-1.9h-34.6a2.3 2.3 0 0 1-3.2 1.8l-17.3 30c.6.5.9 1.2.9 1.9m134.8-234.9-1-.2-15.6 27a5.8 5.8 0 0 1 0 9.7l15.6 26.9a2.3 2.3 0 0 1 3.2 1.8h34.6c.1-1.1 1.1-2 2.2-2l1 .2 17.3-30a2.2 2.2 0 0 1 0-3.6l-15.6-27a5.8 5.8 0 0 1-8.5-4.8h-31c-.2 1.1-1.2 2-2.2 2m-76.1-70c0 .5-.1 1-.5 1.4l-.4.4 17.3 30a2.3 2.3 0 0 1 3.2 1.8h34.5a2.3 2.3 0 0 1 3.2-1.8l17.3-30a2.3 2.3 0 0 1-.3-3.4l.3-.2-17.3-30a2.3 2.3 0 0 1-3.2-1.9H790a5.8 5.8 0 0 1-8.3 4.9l-15.5 26.9c.6.5.9 1.1.9 1.9m406.4 236.9c.2-1.1 1.1-2 2.3-2l.8.2 17.3-30a2.3 2.3 0 0 1 0-3.7l-17.3-30-.8.2c-1.2 0-2.1-.9-2.3-2H1139c-.2 1.1-1.1 2-2.3 2l-.8-.2-17.4 30a2.2 2.2 0 0 1 0 3.7l15.6 26.8a5.8 5.8 0 0 1 8.4 5zm-56.6-36 1 .3 17.3-30a2.3 2.3 0 0 1 0-3.6l-17.3-30a2.3 2.3 0 0 1-3.2-1.9h-34.6a2.3 2.3 0 0 1-3.2 1.8l-15.6 27a5.8 5.8 0 0 1 0 9.6l11.6 20.3 4 6.8a2.3 2.3 0 0 1 3.2 1.8h34.6c.1-1.1 1.1-2.1 2.2-2.1m-156.4 67.8c1.2 0 2.1.8 2.2 2h30.9a5.8 5.8 0 0 1 8.6-4.9l15.6-27a2.3 2.3 0 0 1 0-3.6l-17.3-30a2.3 2.3 0 0 1-3.2-1.8h-34.6c-.1.8-.6 1.5-1.4 1.8a2 2 0 0 1-1.8 0l-17.3 30a2.3 2.3 0 0 1 0 3.6l17.3 30zM826 807.6c0 .4-.2 1-.5 1.4l-.4.4 17.3 30 .8-.2c1.2 0 2.1.9 2.3 2h34.7c.2-1.1 1.1-2 2.3-2l.8.2 17.4-30a2.3 2.3 0 0 1 0-3.7l-17.4-30a2.3 2.3 0 0 1-3.2-1.8h-31a5.8 5.8 0 0 1-8.5 4.9L825 805.7c.7.5 1 1.1 1 1.9m173.8-367a5.8 5.8 0 0 1-5.8-5.5h-31a2.3 2.3 0 0 1-3.2 1.8l-17.3 30a2.3 2.3 0 0 1 0 3.6l15.6 27a5.8 5.8 0 0 1 8.5 4.8h31a2.3 2.3 0 0 1 3.2-1.8l17.3-30a2.3 2.3 0 0 1 0-3.6l-15.5-27c-.8.5-1.8.7-2.8.7M723.7 435c-.1-.8.3-1.4.9-1.8l-15.5-26.9a5.8 5.8 0 0 1-8.6-4.9h-31c-.2 1.1-1.1 2-2.3 2l-.8-.2-17.4 30a2.3 2.3 0 0 1 .2 3.6h-.2l17.4 30 .8-.2c1.2 0 2.1.9 2.3 2h34.7c.1-1 1.1-2 2.2-2l.9.2 17.4-30c-.6-.4-1-1.1-1-1.8m161.1 203.2c0 .7-.3 1.3-.9 1.8l17.3 30a2.3 2.3 0 0 1 3.2 1.8h31a5.8 5.8 0 0 1 8.5-4.8l15.5-27a2.3 2.3 0 0 1 0-3.7l-17.3-30-.8.2c-1.2 0-2.1-.9-2.3-2h-34.7c-.2 1.1-1.1 2-2.3 2l-.8-.2-17.4 30c.6.5 1 1.1 1 1.9m-239.3-203h-34.6a2.2 2.2 0 0 1-3.2 1.9l-15.6 26.8a5.8 5.8 0 0 1 0 9.8l15.6 27a2.3 2.3 0 0 1 3.2 1.8h34.6a2.3 2.3 0 0 1 3.2-1.8l17.3-30a2.3 2.3 0 0 1 0-3.6l-17.3-30a2.3 2.3 0 0 1-3.2-1.9m413.1 35.8c-1.2 0-2.2-.8-2.3-2h-34.6a2.3 2.3 0 0 1-3.2 1.9l-17.3 30a2.3 2.3 0 0 1 0 3.6l17.3 30c1.2-.5 2.5 0 3 1.2.2.2.2.4.2.6h31.1a5.8 5.8 0 0 1 8.5-4.8l15.5-27a2.3 2.3 0 0 1 0-3.6l-17.3-30zm75.9 133.4c0-.8.4-1.4 1-1.8l-17.3-30a2.3 2.3 0 0 1-3.2-1.8h-34.6a2.3 2.3 0 0 1-3.2 1.8l-17.3 30a2.3 2.3 0 0 1 .4 3.3l-.4.3 17.3 30a2.3 2.3 0 0 1 3.2 1.9h34.6a2.3 2.3 0 0 1 3.1-1.9l17.4-30c-.6-.4-1-1.1-1-1.7m-54.1 169.1h34.6a2.3 2.3 0 0 1 3.2-1.8l15.5-27a5.8 5.8 0 0 1 0-9.8l-15.5-26.9a2.3 2.3 0 0 1-3.2-1.8h-34.6a2.3 2.3 0 0 1-3.2 1.8l-17.3 30a2.3 2.3 0 0 1 0 3.6l17.3 30a2.3 2.3 0 0 1 3.2 1.9m58.7-304.9h34.6c.1-1.2 1.1-2 2.2-2 .3 0 .7 0 .9.2l17.4-30a2.3 2.3 0 0 1 0-3.7l-15.6-26.8a5.8 5.8 0 0 1-8.5-5h-31a2.3 2.3 0 0 1-3.2 1.8l-17.3 30a2.3 2.3 0 0 1 0 3.6v.1l17.3 30a2.3 2.3 0 0 1 3.2 1.8M843.4 640.4c-.4 0-.7 0-1-.2l-17.3 30a2.3 2.3 0 0 1 0 3.7l17.2 30c.4-.2.7-.2 1-.2 1.2 0 2.1.9 2.3 2h34.6a2.3 2.3 0 0 1 3.2-1.8l17.3-30a2.3 2.3 0 0 1 0-3.7l-17.3-30a2.3 2.3 0 0 1-3.2-1.8h-34.6c-.2 1.2-1.2 2-2.2 2m41.3 201c0 .8-.3 1.4-.8 1.8l-.2.1 17.4 30a2.3 2.3 0 0 1 3.2 1.8h31a5.8 5.8 0 0 1 8.5-4.8l15.5-27a2.3 2.3 0 0 1 0-3.7l.4-.2a2.3 2.3 0 0 1 3.2 1.8h34.6a2.3 2.3 0 0 1 3.2-1.8l17.3-30a2.3 2.3 0 0 1 0-3.7l-15.6-27a5.8 5.8 0 0 1-8.6-4.8H963c-.2 1.2-1.1 2-2.2 2l-1-.2-.4-.2a2.3 2.3 0 0 1 0-3.6l-17.3-30a2.3 2.3 0 0 1-3.1-1.9h-34.8a2.3 2.3 0 0 1-3.1 1.9l-17.4 30a2.3 2.3 0 0 1 0 3.6l12.6 21.7 4.8 8.3.8-.2c1.2 0 2.1.9 2.3 2v.5c-.2 1.1-1.1 2-2.3 2l-.8-.2-17.4 30c.6.4 1 1.1 1 1.8m132.6-439.7c-.3-.9 0-1.9.8-2.5l-17.3-30a2.3 2.3 0 0 1-3.2-1.8H963a2.3 2.3 0 0 1-3.2 1.8l-17.3 30a2.3 2.3 0 0 1 .5 3.3l-.5.4 17.3 30a2.3 2.3 0 0 1 3.2 1.8h31a5.8 5.8 0 0 1 8.5-4.8l15.6-27a2 2 0 0 1-.8-1.2m-132.5 33.2c0 .7-.3 1.3-.9 1.8l17.3 30a2.3 2.3 0 0 1 3.1 1.9H939a2.2 2.2 0 0 1 3.1-1.8l17.4-30a2.3 2.3 0 0 1 0-3.7l-17.4-30-.8.2c-1.2 0-2.1-.9-2.3-2h-31.2a5.8 5.8 0 0 1-8.5 5l-15.5 26.8c.6.4 1 1.1 1 1.8M708.7 604.3c0 .8-.4 1.4-1 1.8l17.3 30a2.3 2.3 0 0 1 3.2 1.8h34.6c.2-1 1.2-2 2.2-2l1 .2 17.3-30a2.3 2.3 0 0 1 0-3.6l-17.3-30a2.3 2.3 0 0 1-3.2-1.8h-34.6a2.3 2.3 0 0 1-3.2 1.8l-17.3 30c.6.4 1 1.1 1 1.8M902 737.6c1.2 0 2.2.8 2.2 2h34.7c0-1 1-2 2-2 .4 0 .8 0 1.1.2l17.3-30a2.3 2.3 0 0 1 0-3.7l-15.5-27a5.8 5.8 0 0 1-8.6-4.8h-31c-.2 1.1-1.1 2-2.3 2l-.8-.2-17.3 30a2.3 2.3 0 0 1 .4 3.3l-.4.3 17.2 30zm0-266.5-.8-.3-17.3 30a2.3 2.3 0 0 1 .4 3.3l-.4.4 4.5 8 12.7 22c1.1-.5 2.4 0 3 1 .2.2.2.5.2.8H939c.2-1.1 1.1-2 2.3-2l.8.2 15.6-27a5.8 5.8 0 0 1 0-9.6l-15.6-27a2.3 2.3 0 0 1-3.1-1.4v-.4h-34.8c-.1 1-1.1 2-2.2 2m60.9-104.2h34.6c.2-1.1 1.2-2 2.2-2l1 .2 17.3-30a2.3 2.3 0 0 1 0-3.6l-17.3-30a2.3 2.3 0 0 1-3.2-1.8h-31.3a5.8 5.8 0 0 1-8.3 5l-15.4 26.8a2.3 2.3 0 0 1 0 3.6h-.1l17.3 30a2.3 2.3 0 0 1 3.2 1.8m234.8 338.8h34.6a2.3 2.3 0 0 1 3.2-1.8l17.3-30a2.3 2.3 0 0 1 0-3.7l-17.3-30a2.3 2.3 0 0 1-3.2-1.8h-31.1a5.8 5.8 0 0 1-8.4 4.9l-15.6 26.9c.5.4.9 1 1 1.6v.3c0 .7-.4 1.4-1 1.8l17.3 30a2.3 2.3 0 0 1 3.2 1.8M821.5 333.6h-34.6a2.3 2.3 0 0 1-3.2 1.8l-17.3 30a2.3 2.3 0 0 1 0 3.7l17.3 30a2.3 2.3 0 0 1 3.2 1.8v.5a2.3 2.3 0 0 1-3.2 1.8l-17.3 30a2.3 2.3 0 0 1 .1 3.6h-.1l15.5 26.8a5.8 5.8 0 0 1 8.3 5h31.3c.2-1 1.2-2 2.2-2 .4 0 .7.1 1 .3l17.3-30a2.3 2.3 0 0 1 0-3.7l.4-.2a2.3 2.3 0 0 1 3.2 1.8h34.6a2.2 2.2 0 0 1 3.2-1.8l15.4-26.8a5.8 5.8 0 0 1 .2-9.9l-15.6-27a2.3 2.3 0 0 1-3.2-1.8h-34.6a2.3 2.3 0 0 1-3.2 1.8l-.4-.2a2.3 2.3 0 0 1 0-3.6l-17.3-30a2.3 2.3 0 0 1-3.2-1.9m370.9 299.7-15.6-26.9a2.3 2.3 0 0 1-3.1-1.9H1139a2.3 2.3 0 0 1-3.1 1.9l-17.3 30a2.3 2.3 0 0 1 0 3.6l17.3 30 .8-.2c1.2 0 2.1.9 2.3 2h34.7a2.2 2.2 0 0 1 3.1-1.7l15.6-27a5.8 5.8 0 0 1 0-9.8M195.6 672v.1c0-.8.3-1.5.9-1.9L181 643.4a5.8 5.8 0 0 1-8.6-5h-31c-.2 1.1-1.1 2-2.3 2l-.8-.2-17.4 30a2.3 2.3 0 0 1 .2 3.6l-.2.1 17.4 30 .8-.2c1.2 0 2.1.9 2.3 2h34.7c.1-1.2 1-2 2.2-2 .3 0 .6 0 .9.2l17.4-30c-.6-.4-1-1.1-1-1.9M352 1078.8h-34.7c-.2 1.1-1.1 2-2.3 2l-.8-.2-15.6 27a5.8 5.8 0 0 1 0 9.7l15.6 27 .8-.2c1.2 0 2.1.9 2.3 2H352c.2-1.1 1.1-2 2.3-2l.8.2 17.4-30a2.2 2.2 0 0 1 0-3.7l-17.4-30-.8.2c-1.2 0-2.1-.9-2.3-2m4.5-.2c0 .7-.3 1.3-.8 1.8h-.2l17.4 30a2.3 2.3 0 0 1 3.2 1.8h31a5.8 5.8 0 0 1 8.5-4.8l15.5-27a2.3 2.3 0 0 1 0-3.6l.4-.3a2.3 2.3 0 0 1 3.2 1.9h34.6a2.3 2.3 0 0 1 3.2-1.9l17.3-30a2.3 2.3 0 0 1 0-3.7l-15.6-27a5.8 5.8 0 0 1-8.6-4.7h-30.9c-.2 1.1-1.1 2-2.2 2l-1-.2-.4-.2a2.3 2.3 0 0 1 0-3.7l-17.3-30a2.3 2.3 0 0 1-3.2-1.8H376c0 1-1 1.9-2 2-.4 0-.8 0-1.1-.2l-17.4 30a2.3 2.3 0 0 1 0 3.7l12.6 21.7 4.8 8.2a2.3 2.3 0 0 1 3.1 1.9v.4a2.3 2.3 0 0 1-3.1 1.9l-17.4 30c.6.4 1 1.1 1 1.8m-99.9-235-.9-.2-17.3 30a2.3 2.3 0 0 1 .1 3.6h-.1l17.3 30a2.3 2.3 0 0 1 3.2 1.9h34.6a2.3 2.3 0 0 1 3.2-1.9l17.3-30c-.8-.6-1.2-1.7-.8-2.6.2-.4.4-.8.8-1l-15.5-26.9a5.8 5.8 0 0 1-8.6-4.9h-31c-.2 1.1-1.1 2-2.3 2m-76.1-2.2h.1c0 .8-.4 1.5-1 1.9l17.3 30a2.3 2.3 0 0 1 3.2 1.8h34.6c.2-1.2 1.2-2 2.2-2 .4 0 .7 0 1 .2l17.3-30a2.3 2.3 0 0 1 0-3.7l-17.3-30a2.3 2.3 0 0 1-3.2-1.8h-34.6a2.3 2.3 0 0 1-3.2 1.8l-17.3 30c.6.4.9 1.1.9 1.8m-4.5.3h-34.6c-.2 1.1-1.1 2-2.3 2l-.8-.2-17.4 30a2.3 2.3 0 0 1 .2 3.6h-.2l17.4 30 .8-.2c1.2 0 2.1.9 2.3 2H176c.2-1 1.2-2 2.2-2l1 .2 17.3-30a2.3 2.3 0 0 1 0-3.6l-17.3-30a2.3 2.3 0 0 1-3.2-1.8m430.2-.3c0-.7.4-1.4 1-1.8l-17.3-30a2.3 2.3 0 0 1-3.2-1.8h-34.6a2.3 2.3 0 0 1-3.2 1.8l-17.3 30a2.3 2.3 0 0 1 .4 3.3l-.4.4 17.3 30a2.3 2.3 0 0 1 3.2 1.8h34.6c.2-1.1 1.1-2 2.3-2l.8.2 17.4-30c-.6-.5-1-1.1-1-1.9M356.6 672.1c0 .7-.3 1.3-.8 1.7l-.2.1 17.4 30 .8-.2c1.2 0 2.1.9 2.3 2h34.8a2.2 2.2 0 0 1 3.1-1.8l17.4-30a2.3 2.3 0 0 1 0-3.7l-17.4-30-.8.2c-1.2 0-2.1-.9-2.3-2h-31.2a5.8 5.8 0 0 1-8.5 5l-15.5 26.8c.6.5 1 1.1 1 1.9m17.2 302.4v.1c1.2 0 2.2.9 2.2 2h34.7c0-1 1-1.9 2-2 .4 0 .8 0 1.1.2l17.3-30a2.3 2.3 0 0 1 0-3.6l-15.5-27a5.8 5.8 0 0 1-8.6-4.9h-31c-.2 1.1-1.1 2-2.3 2l-.8-.2-17.4 30a2.3 2.3 0 0 1 0 3.7l17.3 30c.3-.2.6-.3 1-.3M489 638.9c-.3-1 0-2 .8-2.5l-17.3-30a2.3 2.3 0 0 1-3.2-1.9h-34.6a2.3 2.3 0 0 1-3.2 1.8l-17.3 30a2.3 2.3 0 0 1 .4 3.3l-.4.4 17.3 30a2.3 2.3 0 0 1 3.2 1.8h31a5.8 5.8 0 0 1 8.5-4.8l15.6-27c-.4-.3-.7-.7-.8-1.1m58.6 168.7c0-.7.4-1.4 1-1.9l-15.6-27a5.8 5.8 0 0 1-8.5-4.8h-31a2.3 2.3 0 0 1-3.2 1.8l-17.3 30a2.3 2.3 0 0 1 0 3.7l17.4 30 .8-.2c1.2 0 2.1.9 2.3 2H528a2.3 2.3 0 0 1 3.2-1.8l17.4-30a2 2 0 0 1-1-1.8m-371.7 237.3h-34.6a2.3 2.3 0 0 1-3.1 1.9l-17.4 30a2.3 2.3 0 0 1 0 3.6l15.5 26.9a5.8 5.8 0 0 1 8 4.9h31.6a2.3 2.3 0 0 1 3.2-1.8l17.3-30a2.3 2.3 0 0 1 0-3.6l-17.3-30a2.3 2.3 0 0 1-3.2-1.9m256.6-36.3c1.1 0 2.1.9 2.2 2h30.9a5.8 5.8 0 0 1 8.6-4.8l15.6-27a2.3 2.3 0 0 1 0-3.7l-17.3-30a2.3 2.3 0 0 1-3.2-1.8h-34.6c-.1.8-.6 1.5-1.4 1.8a2 2 0 0 1-1.8 0l-17.3 30a2.3 2.3 0 0 1 0 3.7l17.3 30c.3-.2.6-.2 1-.2M19.2 914.3 3.6 941.2a2.3 2.3 0 0 1 0 3.7l17.3 30a2.3 2.3 0 0 1 3.2 1.8h34.6a2.3 2.3 0 0 1 3.2-1.8l17.3-30a2.3 2.3 0 0 1 0-3.7l-17.3-30a2.3 2.3 0 0 1-3.2-1.8H27.5a5.8 5.8 0 0 1-8.3 4.9m296-240-1-.2-17.3 30a2.3 2.3 0 0 1 0 3.6l17.3 30a2.3 2.3 0 0 1 3.2 1.9H352a2.3 2.3 0 0 1 3.2-1.8l17.3-30a2.3 2.3 0 0 1 0-3.7l-17.3-30a2.3 2.3 0 0 1-3.2-1.8h-34.6c-.2 1.1-1.2 2-2.2 2m-176 237.1-.9-.2-17.4 30a2.3 2.3 0 0 1 0 3.6l17.4 30 .8-.2c1.2 0 2.1.9 2.3 2h34.7c.1-1.1 1-2 2.2-2l.9.2 15.5-26.8a5.8 5.8 0 0 1 .1-9.8l-15.6-27a2.3 2.3 0 0 1-3.2-1.8h-34.6c-.1 1-1.1 2-2.2 2m2.2-137.4c-.2 1.1-1.1 2-2.3 2l-.8-.2-15.6 26.8a5.8 5.8 0 0 1 0 9.9l15.6 27 .8-.2c1.2 0 2.1.9 2.3 2h34.7l.2-.8c.6-1 1.9-1.5 2.9-1l17.3-30a2.3 2.3 0 0 1 0-3.6l-15.5-27a5.8 5.8 0 0 1-8.4-4.9zm115.2 65v.1c1.2 0 2.2.9 2.3 2h31a5.8 5.8 0 0 1 8.5-4.8l15.6-27a2.3 2.3 0 0 1 0-3.7l-17.3-30a2.3 2.3 0 0 1-3.2-1.8h-34.6a2.3 2.3 0 0 1-3.2 1.8l-17.3 30a2.3 2.3 0 0 1 0 3.7l17.3 30zm-58.7 38.5-1-.2-17.3 30a2.3 2.3 0 0 1 0 3.6l15.3 26.5.3.6a5.8 5.8 0 1 1-.1 10.2L179.7 975a2.3 2.3 0 0 1 0 3.6l-.1.1 17.3 30a2.3 2.3 0 0 1 3.2 1.8h34.6a2.2 2.2 0 0 1 3.2-1.9l17.3-30h-.1a2.3 2.3 0 0 1 .1-3.6l.4-.3a2.3 2.3 0 0 1 3.2 2h34.6a2.3 2.3 0 0 1 3.2-2l17.2-30a2.3 2.3 0 0 1 .1-3.5l-17.3-30a2.3 2.3 0 0 1-3.2-1.8h-34.6c-.2 1-1.2 2-2.2 2l-1-.2-.4-.3a2.3 2.3 0 0 1 0-3.6l-17.3-30a2.3 2.3 0 0 1-3.2-1.8h-34.6c-.2 1-1.1 2-2.2 2m-17.5 167.2h.1c0 .8-.4 1.4-1 1.8l17.3 30a2.3 2.3 0 0 1 3.2 1.9h34.6a2.2 2.2 0 0 1 3.2-1.8l15.6-27a5.8 5.8 0 0 1 0-9.7l-15.6-27a2.3 2.3 0 0 1-3.2-1.8H200a2.3 2.3 0 0 1-3.2 1.8l-17.3 30c.6.4.9 1.1.9 1.8m-58.6-33.9h.1c0 .8-.4 1.4-1 1.8l17.4 30a2.3 2.3 0 0 1 3.1 1.9H176a2.3 2.3 0 0 1 3.2-1.8l17.3-30a2.3 2.3 0 0 1 0-3.7l-17.3-30a2.3 2.3 0 0 1-3.2-1.8h-34.7c-.2 1.1-1.1 2-2.3 2l-.8-.2-17.4 30c.6.4 1 1.1 1 1.8m134.7 28.2c3.1 0 5.7 2.5 5.8 5.5h31.1a2.2 2.2 0 0 1 3.2-1.8l15.5-27a5.8 5.8 0 0 1 0-9.7l-15.5-27a2.3 2.3 0 0 1-3.2-1.8h-34.6c-.1 1-1 1.9-2 2-.4 0-.8 0-1.2-.2l-17.3 30a2.3 2.3 0 0 1 0 3.6l15.6 27c.8-.4 1.7-.6 2.6-.6m178.2-434.9 34.6-.1c.2-1 1.2-2 2.2-2 .4 0 .7.1 1 .3l17.3-30a2.3 2.3 0 0 1 0-3.7l-17.3-30a2.3 2.3 0 0 1-3.2-1.8H438a5.8 5.8 0 0 1-8.3 5.1l-15.4 26.7a2.3 2.3 0 0 1 0 3.6h-.1l17.3 30a2.3 2.3 0 0 1 3.2 1.9m-136.9 440.6a2 2 0 0 1-.9 1.8l17.3 30a2.3 2.3 0 0 1 3.1 1.9H352a2.2 2.2 0 0 1 3.1-1.9l17.4-30a2.3 2.3 0 0 1 0-3.6l-17.4-30a2.3 2.3 0 0 1-3.2-1.8h-31a5.8 5.8 0 0 1-8.5 4.8l-15.6 27c.6.4 1 1.1 1 1.8M198 742h-1l-15.5 26.6a5.8 5.8 0 0 1 0 9.8l15.5 27a2.3 2.3 0 0 1 3.2 1.8h34.6a2.2 2.2 0 0 1 3.2-1.8l17.3-30c-.6-.4-1-1.1-1-1.8 0-.8.4-1.4 1-1.8l-17.3-30a2.3 2.3 0 0 1-3.2-1.8h-34.6c-.2 1-1.1 2-2.2 2m38.9-67.7.2-.1c-1.2 0-2.2-.9-2.3-2h-34.6a2.3 2.3 0 0 1-3.2 1.8l-17.3 30a2.3 2.3 0 0 1 0 3.7l15.3 26.4 2 3.5a2.3 2.3 0 0 1 3.2 1.9h34.6a2.3 2.3 0 0 1 3.2-1.9l15.3-26.7a5.8 5.8 0 0 1 0-10l-15.5-26.8c-.3.2-.6.2-.9.2m193.3-70c0-.8.4-1.4 1-1.8l-17.4-30-.8.2c-1.2 0-2.1-.9-2.3-2H376c-.2 1.1-1.1 2-2.3 2l-.8-.2-17.3 30a2.3 2.3 0 0 1 0 3.7l15.6 27a5.8 5.8 0 0 1 8.3 4.8h31.2a2.2 2.2 0 0 1 3.1-1.9l17.4-30c-.6-.4-1-1.1-1-1.8M117.4 875.5H82.7a2.3 2.3 0 0 1-3.1 1.9l-17.3 30a2.3 2.3 0 0 1 0 3.6l17.3 30h.1a2.3 2.3 0 0 1 3 1.8h34.7c.2-1.1 1.1-2 2.3-2l.8.2 17.4-30a2.3 2.3 0 0 1 0-3.6l-17.4-30a2.3 2.3 0 0 1-3.1-1.9M552 1010.6h34.7c.2-1.1 1.1-2 2.3-2l.8.2 15.6-27a5.8 5.8 0 0 1 0-9.7l-15.6-27-.8.2c-1.2 0-2.1-.9-2.3-2H552a2.2 2.2 0 0 1-3.1 1.8l-17.3 30a2.3 2.3 0 0 1 0 3.6v.1l17.3 30 .8-.2c1.2 0 2.1.9 2.3 2M258.7 503a2.3 2.3 0 0 1-3.2 1.8l-17.3 30a2.3 2.3 0 0 1 0 3.7l17.3 30a2.3 2.3 0 0 1 3.2 1.8h34.6a2.3 2.3 0 0 1 3.2-1.8l17.3-30a2.3 2.3 0 0 1 0-3.7L298.3 508a5.8 5.8 0 0 1-8.6-5zm95.6 505.6c.3 0 .6 0 .8.2l17.4-30a2.3 2.3 0 0 1 0-3.7l-17.4-30-.8.2c-1.2 0-2.1-.9-2.3-2h-34.5a2.3 2.3 0 0 1-3.2 1.9l-17.3 30a2.3 2.3 0 0 1 0 3.5l15.5 27a5.8 5.8 0 0 1 8.5 4.9h31.1c.1-1.1 1.1-2 2.2-2M117.4 672.3l-34.6-.1a2.2 2.2 0 0 1-3.1 1.8L64 701a5.8 5.8 0 0 1 0 9.7l15.6 27a2.3 2.3 0 0 1 3.1 1.9h34.7c.2-1.1 1.1-2 2.3-2l.8.2 17.4-30a2.3 2.3 0 0 1 0-3.7l-17.4-30-.8.2c-1.2 0-2.1-.9-2.3-2m197.8 137.4-1-.1-15.6 27a5.8 5.8 0 0 1 0 9.6l15.6 27a2.3 2.3 0 0 1 3.2 1.8H352a2.2 2.2 0 0 1 3.2-1.8l17.3-30a2.2 2.2 0 0 1 0-3.7l-15.6-27a5.8 5.8 0 0 1-8.5-4.8h-31c-.2 1.1-1.2 2-2.2 2m215.1 34.1c-1.2 0-2.2-.9-2.3-2h-34.6a2.2 2.2 0 0 1-3.2 1.8l-17.3 30a2.3 2.3 0 0 1 0 3.6l17.3 30a2.3 2.3 0 0 1 3.1 1.9h31a5.8 5.8 0 0 1 8.6-4.9l15.6-27a2.3 2.3 0 0 1 0-3.6l-17.3-30zm-.1 130.9 1 .2 17.3-30a2.3 2.3 0 0 1 0-3.7l-15.6-27a5.8 5.8 0 0 1-8.5-4.7h-31c-.2 1-1.2 2-2.2 2-.4 0-.7-.1-1-.3l-17.3 30c.8.6 1.1 1.6.8 2.5a2 2 0 0 1-.8 1.2l17.3 30a2.3 2.3 0 0 1 3.2 1.8H528c.2-1.1 1.1-2 2.2-2m-58.7-296.8a5.9 5.9 0 0 1-5.8-5.6h-31a2.2 2.2 0 0 1-3.2 1.8l-17.3 30a2.3 2.3 0 0 1 0 3.6l15.6 27a5.8 5.8 0 0 1 8.5 4.9h31a2.3 2.3 0 0 1 3.2-1.8l17.3-30a2.3 2.3 0 0 1 0-3.7l-15.5-27c-.8.5-1.8.8-2.8.8M315.2 877.5l-.9-.1-17.3 30a2.3 2.3 0 0 1 0 3.6l17.1 29.9c.4-.2.7-.2 1-.2 1.2 0 2.1.9 2.3 2H352a2.3 2.3 0 0 1 3.2-1.8l17.3-30a2.3 2.3 0 0 1 0-3.6l-17.3-30a2.3 2.3 0 0 1-3.2-1.8h-34.6c-.2 1-1.2 2-2.2 2m58.6-169.3-.9-.2-17.3 30a2.3 2.3 0 0 1 0 3.6l4.5 8 12.7 22c1.1-.5 2.4 0 3 1 .2.3.2.5.2.8h34.7c.2-1.1 1.1-2 2.3-2l.8.2 15.6-27a5.8 5.8 0 0 1 0-9.6l-15.6-27-.8.2c-1.2 0-2.1-.9-2.3-2H376c-.1 1.1-1.1 2-2.2 2M315.2 742l-1-.2-17.3 30a2.3 2.3 0 0 1 0 3.6l17.3 30a2.3 2.3 0 0 1 3.2 1.8h31a5.8 5.8 0 0 1 8.5-4.8l15.6-27c-.6-.4-1-1.1-1-1.8 0-.8.4-1.4 1-1.8l-10.2-17.6-7.1-12.4a2.3 2.3 0 0 1-3.2-1.8h-34.5c-.2 1-1.1 2-2.3 2m273.7 198.8.9.2 17.4-30a2.3 2.3 0 0 1 0-3.6l-17.3-30a2.3 2.3 0 0 1-3.2-1.8h-34.6a2.3 2.3 0 0 1-3.2 1.7l-15.6 27a5.8 5.8 0 0 1 0 9.7l11.6 20.2 4 6.8.8-.2c1.2 0 2.1.9 2.3 2h34.7c.1-1.1 1.1-2 2.2-2m-117.3-131c-1.2 0-2.1-.9-2.3-2v-.5c.2-1.1 1.2-2 2.2-2l1 .2 17.3-30a2.3 2.3 0 0 1 0-3.6l-17.3-30a2.3 2.3 0 0 1-3.2-1.9h-31a5.8 5.8 0 0 1-8.5 4.9l-15.6 27a2.3 2.3 0 0 1 0 3.6l-.4.2-.8.2c-1.2 0-2.1-.9-2.3-2H376a2.2 2.2 0 0 1-3.1 1.8l-15.6 27a5.8 5.8 0 0 1 0 9.7l10.8 18.7 4.8 8.3.8-.2c1.2 0 2.1.9 2.3 2h34.7c.2-1.1 1.1-2 2.3-2l.8.2.4.2a2.3 2.3 0 0 1 .4 3.3c-.1.1-.2.3-.4.3l17.4 30a2.3 2.3 0 0 1 3.1 1.9h34.6a2.3 2.3 0 0 1 3.2-1.8l17.3-30a2.3 2.3 0 0 1 0-3.7l-17.2-30c-.4.2-.7.2-1 .2m-349.6-70c0 .5-.2 1-.5 1.4-.2.2-.3.4-.5.4l17.4 30a2.3 2.3 0 0 1 3.1 1.9h31.2a5.8 5.8 0 0 1 8.4-5l15.6-26.9a2.3 2.3 0 0 1 0-3.6l-.8-1.6-16.5-28.4-.8.2c-1.2 0-2.1-.9-2.3-2h-34.7c-.2 1.1-1.1 2-2.3 2l-.8-.2-17.4 30c.6.4 1 1.1 1 1.8m117.2 0c0 .5-.2 1-.5 1.4l-.4.4 17.3 30a2.3 2.3 0 0 1 3.2 1.9h34.6a2.3 2.3 0 0 1 3.2-1.9l17.3-30a2.3 2.3 0 0 1-.3-3.4l.3-.2-17.3-30a2.3 2.3 0 0 1-3.2-1.8h-31.3a5.8 5.8 0 0 1-8.3 4.8l-15.6 27c.6.4 1 1 1 1.8m232.4 200.9.9.2 17.3-30a2.3 2.3 0 0 1 0-3.6l-17.4-30a2.3 2.3 0 0 1-3.1-1.9h-34.6a2.3 2.3 0 0 1-3.2 1.8l-15.5 27a5.8 5.8 0 0 1 0 9.7l15.5 27a2.3 2.3 0 0 1 3.2 1.8h34.6c.1-1.1 1.1-2 2.3-2m173.8 36.1c.2-1.1 1.1-2 2.3-2l.8.2 17.3-30a2.3 2.3 0 0 1 0-3.6l-17.3-30a2.3 2.3 0 0 1-3.1-1.9h-34.7a2.3 2.3 0 0 1-3.2 1.8l-17.3 30a2.3 2.3 0 0 1 0 3.7l15.6 26.9a5.8 5.8 0 0 1 8.4 5zM352 1146.6h-34.7c-.2 1.1-1.1 2-2.3 2l-.8-.2-17.3 30a2.3 2.3 0 0 1 0 3.6l17.3 30a2.3 2.3 0 0 1 3.2 1.9h31a5.8 5.8 0 0 1 8.4-4.7l15.7-27.2a2.3 2.3 0 0 1 0-3.6l-17.4-30-.8.2c-1.2 0-2.1-.9-2.3-2m180.5-101.9c.1.8-.3 1.4-.9 1.8l17.3 30a2.3 2.3 0 0 1 3.1 1.9h31a5.8 5.8 0 0 1 8.5-4.8l15.7-27.1a2.3 2.3 0 0 1 0-3.6l-17.3-30a2.3 2.3 0 0 1-3.2-1.8h-34.6a2.3 2.3 0 0 1-3.2 1.8l-17.4 30c.6.4 1 1 1 1.8m-176 101.6c0 .8-.4 1.4-1 1.9l17.4 30 .8-.2c1.2 0 2.1.9 2.3 2h34.7c.1-1.2 1.1-2 2.1-2 .4 0 .7 0 1 .2l17.3-30a2.3 2.3 0 0 1 0-3.6l-15.5-27a5.8 5.8 0 0 1-8.5-4.9H376c-.2 1.1-1.1 2-2.3 2l-.8-.2-17.4 30c.6.4 1 1.1 1 1.8m-63.1-575.6h-34.6a2.2 2.2 0 0 1-3.2 1.8l-17.3 30a2.3 2.3 0 0 1 0 3.6l17.3 30a2.3 2.3 0 0 1 3.2 1.8v.5a2.3 2.3 0 0 1-3.2 1.8l-17.3 30a2.3 2.3 0 0 1 .1 3.6l-.1.1 15.5 26.8a5.8 5.8 0 0 1 8.3 5h31.3c.2-1.2 1.1-2 2.2-2 .4 0 .7 0 1 .2l17.3-30a2.3 2.3 0 0 1 0-3.7l.4-.2a2.3 2.3 0 0 1 3.2 1.8h34.6a2.2 2.2 0 0 1 3.2-1.8l15.3-26.8a5.8 5.8 0 0 1 .2-9.8l-15.6-27a2.3 2.3 0 0 1-3.2-1.9h-34.5a2.3 2.3 0 0 1-3.2 1.9l-.4-.3a2.3 2.3 0 0 1 0-3.6l-17.3-30a2.3 2.3 0 0 1-3.2-1.8m4.5-.3c0 .8-.4 1.4-1 1.8l17.3 30a2.3 2.3 0 0 1 3.2 1.8H352c.1-1 1.1-2 2.2-2 .4 0 .7.1 1 .3l17.3-30a2.3 2.3 0 0 1 0-3.7l-17.3-30a2.3 2.3 0 0 1-3.2-1.8h-34.5a2.3 2.3 0 0 1-3.2 1.8l-17.4 30c.6.4 1 1 1 1.8m249.6 440.4c0-.8.4-1.4 1-1.8l-17.3-30a2.3 2.3 0 0 1-3.2-1.8h-34.6l-.2.6v.2c-.6 1-2 1.5-3 1l-15.6 27.1a5.8 5.8 0 0 1 0 9.5l15.6 27a2.3 2.3 0 0 1 3.2 1.9H528a2.2 2.2 0 0 1 3.2-1.9l17.3-30c-.6-.4-1-1.1-1-1.8M356.6 875.2c0 .7-.3 1.3-.8 1.8h-.2l17.4 30a2.3 2.3 0 0 1 3.1 1.9h31a5.8 5.8 0 0 1 8.6-4.9l15.5-27a2.3 2.3 0 0 1 0-3.6l-17.3-30-.8.2c-1.2 0-2.1-.9-2.3-2h-34.7c-.2 1.1-1.1 2-2.3 2l-.8-.2-17.4 30c.6.4 1 1.1 1 1.8M63.2 976.9c0 .8-.4 1.5-.9 1.8l15.5 27a5.8 5.8 0 0 1 8.2 4.9h31.4c.2-1.1 1.1-2 2.3-2l.8.2 17.4-30a2.3 2.3 0 0 1 0-3.6l-17.4-30a2.3 2.3 0 0 1-3.1-1.9H82.7c-.2 1.1-1.1 2-2.3 2l-.8-.2-17.4 30c.6.4 1 1 1 1.8m489-237.3h34.5c.2-1.1 1.1-2 2.3-2 .4 0 .7 0 1 .2l17.2-30c-.6-.5-1-1.1-1-1.9 0-.7.4-1.4 1-1.8L590 674.2a2.3 2.3 0 0 1-2.4-.3c-.5-.4-.8-1-.9-1.6h-31.1a5.8 5.8 0 0 1-8.3 4.9l-15.6 26.9a2.3 2.3 0 0 1 0 3.7l17.3 30 .8-.2h.1c1.2 0 2.1.9 2.3 2m58.6-33.9h34.6c.1-1.1 1.1-2 2.2-2h.2l.7.2 17.4-30a2.3 2.3 0 0 1 0-3.7l-15.6-26.8a5.8 5.8 0 0 1-8.6-5h-30.9c-.2 1.1-1.1 2-2.3 2h-.1l-.7-.2-17.3 30a2.3 2.3 0 0 1 0 3.7l17.3 30a2.3 2.3 0 0 1 1.5 0c.8.2 1.5 1 1.6 1.8m3.4 67.8h31.2a2.3 2.3 0 0 1 3.1-1.9l17.4-30-.4-.5a2.3 2.3 0 0 1 .4-3.1l-17.4-30-.7.2h-.1c-1.2 0-2.1-.9-2.3-2h-34.5c-.2 1.1-1.1 2-2.3 2h-.4l-.3-.1h-.2L590.3 738c.6.4 1 1 1 1.8 0 .7-.4 1.4-.9 1.9l15.5 26.8a5.8 5.8 0 0 1 8.3 5"/><path fill="#fff" fill-opacity=".6" d="M1122.3 1032.3c-.6-5.3-4.6-4.4-7-2.7-4 1.3-8 2-12.2 2-4.1 0-9 .1-12.3-2.4l-.3-1.8c.6-.8 2-2 5.3-2.5 3.8-.5 5-.6 5.4-.4l.5.5c.1.2.3.3.6.4l.8.2c1.2 0 2.2-1 2.2-2.2 0-1.3-1-2.2-2.2-2.2-.7 0-1.4.3-1.8.9a2 2 0 0 0-.3.3c-.6 1-5.5 1.5-5.5 1.5s-5 .5-6.1-.9l-1.5-4c2-2.1 4.6-3.8 7.3-4.8 10-4.3 9.4-4.1 11.2-3.2 3 1.6 7.1 0 4.8-4.4-2.4-4.4-5.6-2.3-7.1 0-1.6 2.3-10 5.8-10 5.8-2.6 1-5.4 1.8-8.2 2.2a49.8 49.8 0 0 0-4.2-6.8c.2-1 1-2.7 3.8-4.5 3.2-2.1 4.2-2.7 4.7-2.7l.6.3c.3.1.5.1.8 0 1.1 0 2-1 2-2.1 0-1.2-1-2.2-2.2-2.2-1 0-2 .8-2.2 1.8v.4c-.2 1.2-4.4 3.7-4.4 3.7s-4.3 2.6-6 1.8a48 48 0 0 0-10.3-8.8c-.7-2.2-.9-6.2 2.3-12.3 5.3-10.2 4.8-9.7 7-10.1 3.5-.8 5.9-4.8 1-6.9-5-2-6.2 1.9-6 4.8.4 3-4.1 11.6-4.1 11.6s-3.8 6.8-7.4 9c-1.6-.6-3.2-1.2-5-1.7a12 12 0 0 1 1-3.2c1.3-3.2 1.8-4.2 2.2-4.5h.6l.6-.4a2 2 0 1 0-3.2-.8l.2.4c.5 1-1.4 5.1-1.4 5.1l-1.6 2.9c-2.5-.7-5-1.2-7.5-1.4-1.4-2-2.7-5.3-2.6-11.2.3-11.6.2-10.8 2-12.2 2.7-2.2 3-6.9-2.3-6.6-5.3.3-4.7 4.4-3.1 7 1.5 2.4 1.2 12.1 1.2 12.1s-.3 6.7-2.1 10.6l-3.1.1c-.6 0-2.8-.9-3.8-5.3-.9-3.8-1-4.9-.9-5.4l.5-.5.3-.6a2.2 2.2 0 0 0-2.1-2.8c-1.2 0-2.1 1-2.1 2.2 0 .8.4 1.5 1.1 1.9.7.4.1.2.3.2 1 .5 2 5.4 2 5.4s.7 3.8 0 5.6c-3.4.6-6.7 1.6-10 3a23.3 23.3 0 0 1-3.3-5.5c-4.6-9.9-4.4-9.2-3.5-11 1.4-3-.3-7.2-4.6-4.7-1.6 1-2.4 2-2.5 3a1 1 0 0 1 1.9.4v.1c0 .5-.5 1-1 1a1 1 0 0 1-.7-.3 6 6 0 0 0 2.5 3c4 4.3 6.8 9.6 8.2 15.3l-2.8 1.5a8.7 8.7 0 0 1-1.6-2.6c-1.6-3.2-2-4.2-2-4.6l.4-.6c.1-.2.2-.4.1-.7v-.1a2 2 0 0 0-2-2 2 2 0 0 0-2.3 2 2 2 0 0 0 1.7 2l.4.1c1 .3 2.9 4.5 2.9 4.5l1 2.9a50 50 0 0 0-8 6.2c-2.3 0-6-1.1-10.8-5.8-8.3-8.1-8.2-8.5-7.7-9.7.8-1.8-1.3-5.5-4.7-1.4-3.4 4.1-1.1 5.8 1.3 5.5 2.4-.3 9.8 7.4 9.8 7.4s5.8 6 6.6 10l-1.1 1.6c-1 .2-2.9 0-5.4-2a17 17 0 0 1-4-3.7v-1.4a2.2 2.2 0 0 0-4.3.8 2.2 2.2 0 0 0 2.5 2.2h.5c1-.3 4.8 3 4.8 3s3.5 2.8 3.6 4.7c-3 5.1-5 10.8-6 16.6-2 .2-4 .1-6-.3-10.8-1.7-10.2-1.4-11.2-3.2-1.7-2.9-6-3.8-6.4 1.2-.4 5 3.5 5 6 3.8 2.6-1.2 11.6.3 11.6.3 1.9.4 3.8 1 5.6 1.5a51 51 0 0 0 .6 13.7c-.5.3-1 .5-1.6.6-3.4 1-4.5 1.2-5 1.1a2 2 0 0 0-.4-.4l-.6-.2a2 2 0 0 0-2.5 2c0 1 1 2 2 2a2 2 0 0 0 1.9-1.1l.2-.4c.4-1 4.8-2.1 4.8-2.1l1.4-.3c.6 3.1 1.6 6.2 2.8 9.2-2 1.7-4.2 3.1-6.7 4-10.7 4.6-10 4.5-11.9 3.4-3.1-1.6-7.6 0-5 4.7 2.4 4.8 5.9 2.5 7.5 0a37.8 37.8 0 0 1 18-8.2 44 44 0 0 0 2.7 4.7c.2 1 0 3-3 5.6a18.4 18.4 0 0 1-4.2 3.3l-.7-.2h-.7c-1 .3-1.7 1.2-1.7 2.2 0 1.2 1 2.2 2.1 2.2 1.2 0 2.2-1 2.2-2.1v-.5c0-1.1 3.8-4.3 3.8-4.3s2.9-2.4 4.8-2.7c2 2.4 4 4.6 6.4 6.6-.3 1.7-1 3.2-2 4.4-2.5 3-3.2 3.9-3.7 4h-.7l-.7.1a2.2 2.2 0 0 0 .8 4.2 2.2 2.2 0 0 0 2.2-2.5v-.4c-.3-1.1 2.9-4.9 2.9-4.9 1-1.2 2.1-2.2 3.4-3l3.1 2c-.6 1.4-1.3 2.7-2.1 4-6 9-5.5 8.6-7.6 8.8-3.4.3-6 4-1.5 6.3 4.4 2.4 6-1.1 5.9-4 0-2.7 5-10.3 5-10.3l2.6-3.3c2.1 1.2 4.3 2.2 6.5 3.1.6.7 1.6 2.4.7 6.3-1 3.7-1.3 4.8-1.7 5.2l-.7.2-.5.5a2.2 2.2 0 1 0 3.4.3 2 2 0 0 0-.2-.4c-.7-1 .7-5.7.7-5.7s1-3.6 2.4-5c1.6.5 3.2 1 4.9 1.2.5 3 .4 6-.3 9-2.5 11.3-2.1 10.6-4.1 11.7-3.2 1.6-4.4 6.2 1 6.8 5.2.7 5.4-3.4 4.3-6.2a38 38 0 0 1 4-20.6c4 .4 7.9.3 11.8-.3.8.7 1.9 2.2 2.1 5.4.3 3.8.3 5 .1 5.4l-.5.4c-.2.2-.4.4-.4.6a2.2 2.2 0 1 0 3.3-.8 2 2 0 0 0-.3-.3c-1-.6-1.2-5.6-1.2-5.6s-.2-4.6 1.1-6l3-.7c1 1.6 1.8 3.4 2.3 5.3 3 10.5 2.8 10.8 1.8 11.5-1.5 1.1-1.4 5.1 3.3 3.3 4.7-1.8 3.6-4.3 1.4-5.1-2.1-.9-4.6-10.6-4.6-10.6-.5-1.8-.8-3.6-1-5.5l4.6-2c.8-.1 3 0 5.4 3.6 2.1 3.2 2.7 4.2 2.7 4.7l-.2.6v.7c0 1.1 1 2 2 2 1.3 0 2.3-1 2.3-2.2 0-1-.8-2-1.9-2.2a2 2 0 0 0-.4 0c-1.2-.1-3.8-4.3-3.8-4.3s-2.1-3.3-2.1-5.2a50 50 0 0 0 9.3-7.5c3 1 5.7 2.9 7.8 5.2 8.3 8.1 8.2 8.5 7.7 9.7-.8 1.8 1.3 5.5 4.7 1.4 3.4-4.2 1.1-5.8-1.3-5.5-2.4.3-9.8-7.5-9.8-7.5-2.1-2.2-4-4.6-5.6-7.3l.2-.3c.5-.3 2.6-1.4 6.6 1a17 17 0 0 1 4.5 3v.6c0 .3.1.5.3.7a2.2 2.2 0 0 0 4.1-1.1 2.2 2.2 0 0 0-2.9-2.1 2 2 0 0 0-.4 0c-1 .5-5.3-2.1-5.3-2.1s-3.3-2-4.1-3.8c2.2-3.6 4-7.4 5.3-11.4l1.5.5c3.4 1.2 4.4 1.6 4.7 2l.1.6c0 .2.2.4.4.6a2 2 0 1 0 .6-3.2c-.2 0-.3 0-.4.2-1 .5-5.2-1.2-5.2-1.2l-1.4-.6c1.3-4.4 2-9 2-13.5 1.5-1.7 4.8-4.2 12.2-4.4 11.6-.4 10.8-.6 12.3 1 2.4 2.8 7 2.8 6.4-2.5m-123.4-5c-.9 0-1.6-.6-1.6-1.5s.7-1.6 1.6-1.6c.8 0 1.5.7 1.5 1.6 0 .9-.7 1.6-1.5 1.6m68-20.4c.9 0 1.6.7 1.6 1.6 0 .8-.7 1.5-1.6 1.5-.9 0-1.6-.7-1.6-1.5 0-1 .7-1.6 1.6-1.6m-.6 7.2a5 5 0 0 1 5 5 5 5 0 0 1-5 5 5 5 0 0 1-5-5 5 5 0 0 1 5-5m-43.6-14.7c.9 0 1.6.7 1.6 1.5 0 .9-.7 1.6-1.6 1.6-.9 0-1.6-.7-1.6-1.6 0-.8.7-1.5 1.6-1.5m-1.6 28.5c.9 0 1.6.7 1.6 1.6 0 .8-.7 1.5-1.6 1.5-.8 0-1.5-.7-1.5-1.5 0-.9.7-1.6 1.5-1.6m-15.3 32.3c-.9 0-1.6-.7-1.6-1.6 0-.9.7-1.6 1.6-1.6.8 0 1.5.7 1.5 1.6 0 .9-.7 1.6-1.5 1.6m0-16.3c-2.4 0-4.4-2-4.4-4.4 0-2.4 2-4.4 4.4-4.4 2.4 0 4.4 2 4.4 4.4 0 2.4-2 4.4-4.4 4.4m0-28c0-3.5 3-6.5 6.5-6.5a6.6 6.6 0 0 1 .1 13.2c-3.7 0-6.6-3-6.6-6.6m19.7 57.7c-6.3 0-11.6-5.3-11.6-11.6a11.6 11.6 0 1 1 11.6 11.6m10.2 5.4c-.9 0-1.6-.7-1.6-1.5 0-.9.7-1.6 1.6-1.6.9 0 1.6.7 1.6 1.6 0 .8-.7 1.5-1.6 1.5m2-28.6c-.8 0-1.5-.7-1.5-1.6 0-.9.7-1.6 1.5-1.6 1 0 1.6.7 1.6 1.6 0 .9-.7 1.6-1.6 1.6m-2.1-9.1a6.3 6.3 0 0 1-6.3-6.3c0-3.4 2.8-6.3 6.3-6.3 3.1.4 5.5 3 5.5 6.2s-2.4 5.9-5.5 6.3m8-6.7c-1 0-1.6-.7-1.6-1.6 0-.8.7-1.6 1.5-1.6.9 0 1.6.8 1.6 1.6 0 .9-.7 1.6-1.6 1.6m-1.4-22.4a8.8 8.8 0 0 1 0-17.5c4.8 0 8.8 4 8.8 8.7 0 4.9-4 8.8-8.8 8.8m6.3 10.4c0-.9.7-1.6 1.6-1.6.8 0 1.5.7 1.5 1.6 0 .8-.7 1.5-1.5 1.5-.9 0-1.6-.7-1.6-1.5m6 51c-3 0-5.4-2.3-5.4-5.3a5.4 5.4 0 0 1 5.3-4.7c2.7 0 5 2 5.4 4.7 0 3-2.4 5.4-5.3 5.4m12.5-21c-4.8 0-8.8-4-8.8-8.8 0-4.8 4-8.8 8.8-8.8 4.8 0 8.8 4 8.8 8.8 0 4.8-4 8.8-8.8 8.8m15-22.3c-.8 0-1.5-.7-1.5-1.6 0-.8.7-1.5 1.5-1.5.9 0 1.6.7 1.6 1.5 0 .9-.7 1.6-1.6 1.6M898 1050.3c-.4-2.8-2.5-2.3-3.8-1.4-1.2.9-6.4 1-6.4 1s-4.8.1-6.5-1.2l-.2-1a4 4 0 0 1 2.9-1.3 9 9 0 0 1 2.8-.2l.2.2.4.2h.3c.6 0 1.1-.4 1.2-1 0-.7-.5-1.2-1.1-1.2-.4 0-.7.2-1 .5l-.1.2c-.3.5-2.9.8-2.9.8s-2.6.3-3.3-.5l-.7-2.1c1-1.2 2.4-2 3.8-2.6 5.3-2.2 5-2.1 6-1.6 1.5.8 3.7 0 2.5-2.4-1.3-2.3-3-1.2-3.8 0-2.7 2.3-6 3.7-9.6 4.2-.6-1.2-1.4-2.4-2.2-3.5.3-1 1-2 2-2.5a9 9 0 0 1 2.5-1.3l.3.1h.4c.6 0 1-.5 1-1.1 0-.7-.4-1.2-1-1.2s-1.1.4-1.2 1v.2c-.1.6-2.4 2-2.4 2s-2.2 1.3-3.1.9a26.5 26.5 0 0 0-5.5-4.7c-.4-1.1-.5-3.2 1.2-6.4 2.8-5.5 2.6-5.2 3.7-5.4 1.9-.4 3.1-2.6.5-3.7-2.6-1-3.2 1-3 2.6a20 20 0 0 1-2.3 6.1c-1.1 1.9-2 3.6-3.9 4.8l-2.6-1c0-.5.2-1 .4-1.6l1.2-2.4h.4l.3-.2a1 1 0 0 0-.7-2h-.2a1 1 0 0 0-.8 1.6l.1.2c.3.5-.8 2.7-.8 2.7l-.8 1.5c-1.3-.4-2.6-.6-4-.7-.7-1-1.4-2.8-1.3-6 .1-6 0-5.7 1-6.4 1.5-1.2 1.6-3.7-1.2-3.5-2.8.2-2.5 2.3-1.6 3.7.8 1.3.6 6.4.6 6.4 0 2-.5 3.8-1.1 5.6h-1.7c-.3 0-1.4-.4-2-2.8a9 9 0 0 1-.4-2.8l.2-.2.2-.4v-.3c0-.6-.5-1.2-1.1-1.2-.7 0-1.2.6-1.2 1.2 0 .4.2.8.6 1l.2.1c.5.3 1 2.9 1 2.9.2 1 .3 2 0 3-1.7.3-3.5.8-5.2 1.5-.7-.9-1.3-1.8-1.8-2.9-2.4-5.2-2.3-4.8-1.8-5.8.7-1.6-.2-3.8-2.5-2.5-.6.3-1.1.9-1.3 1.6a.5.5 0 1 1 .1.7 4 4 0 0 0 1.4 1.5 20 20 0 0 1 4.2 8.1l-1.4.8-.9-1.4c-.4-.7-.8-1.6-1-2.4l.2-.3c0-.1.1-.2 0-.4 0-.6-.4-1.1-1-1.1h-.2a1 1 0 0 0-1 1c0 .6.4 1 .9 1.1h.2c1 1.1 1.6 2.5 2 3.9a34 34 0 0 0-4.2 3.3c-1.2 0-3.2-.5-5.7-3-4.4-4.3-4.3-4.5-4-5.1.4-1-.7-3-2.5-.8s-.6 3.1.7 3c1.2-.2 5.1 3.9 5.1 3.9s3 3.1 3.6 5.3l-.7.8c-1 0-2-.4-2.8-1.1-1.6-1.3-2-1.7-2.1-2v-.7a1.2 1.2 0 0 0-2.3.5 1.2 1.2 0 0 0 1.3 1.1h.3c.6-.1 2.5 1.6 2.5 1.6s1.9 1.5 2 2.5a26.2 26.2 0 0 0-3.2 8.8c-1 0-2.2 0-3.3-.2-5.7-.9-5.3-.7-5.9-1.7-.9-1.5-3.2-2-3.3.7-.2 2.6 1.8 2.6 3.2 2 3-.4 6.1 0 9 1a27 27 0 0 0 .3 7.2l-.8.3c-.8.3-1.7.5-2.6.6l-.6-.4h-.3a1 1 0 0 0-1 1c0 .7.5 1.2 1 1.2a1 1 0 0 0 1-.6l.2-.2c.2-.6 2.5-1.2 2.5-1.2l.8-.1c.3 1.7.8 3.3 1.5 4.9a13 13 0 0 1-3.6 2.1c-5.6 2.4-5.2 2.3-6.3 1.8-1.7-.9-4 0-2.7 2.5 1.3 2.5 3.2 1.3 4 0 .9-1.3 5.6-3.3 5.6-3.3 1.3-.5 2.6-.8 3.9-1.1l1.5 2.5c0 .5 0 1.6-1.6 3-1.5 1.3-2 1.7-2.3 1.7h-.3a.3.3 0 0 0-.4 0c-.5 0-.9.5-.9 1 0 .7.5 1.2 1.2 1.2.6 0 1.1-.5 1.1-1v-.3c0-.6 2-2.3 2-2.3.8-.6 1.6-1.1 2.6-1.4a36 36 0 0 0 3.3 3.5c-.1.8-.5 1.6-1 2.3-1.3 1.6-1.7 2-2 2.1h-.7a1.2 1.2 0 0 0 .4 2.3 1.2 1.2 0 0 0 1.2-1.3v-.3c-.2-.6 1.5-2.5 1.5-2.5.5-.7 1.1-1.2 1.8-1.7l1.6 1.2a14 14 0 0 1-1 2c-3.3 4.8-3 4.6-4 4.7-1.9.2-3.2 2-.9 3.3 2.3 1.3 3.1-.6 3.1-2 0-1.5 2.7-5.5 2.7-5.5l1.4-1.8 3.4 1.7c.3.3.9 1.2.4 3.3a9 9 0 0 1-1 2.7l-.3.1-.3.3a1.2 1.2 0 1 0 1.9.1l-.2-.2c-.3-.5.4-3 .4-3 .2-1 .7-1.8 1.3-2.6.8.3 1.7.5 2.6.6a13 13 0 0 1-.2 4.8c-1.3 6-1.1 5.6-2.2 6.1-1.6 1-2.3 3.3.5 3.7 2.8.3 2.9-1.8 2.3-3.3a20 20 0 0 1 2.2-10.9c2 .2 4.1.1 6.2-.2a4 4 0 0 1 1.1 2.9c.2 1 .2 1.9 0 2.8l-.2.2-.2.4a1.2 1.2 0 1 0 1.7-.5l-.1-.1c-.5-.4-.6-3-.6-3s-.2-2.4.5-3.1l1.6-.4c.5.8 1 1.8 1.2 2.8 1.6 5.5 1.5 5.7 1 6-.8.6-.8 2.8 1.7 1.8 2.5-1 1.9-2.2.8-2.7-1.2-.4-2.5-5.6-2.5-5.6l-.5-2.9 2.4-1c.4-.1 1.6 0 2.9 1.9a9 9 0 0 1 1.4 2.4l-.1.3v.4c0 .6.5 1 1.1 1 .6 0 1.2-.5 1.2-1 0-.7-.5-1.1-1-1.2h-.3c-.6-.1-2-2.3-2-2.3-.5-.9-.9-1.8-1-2.8a26 26 0 0 0 4.9-4c1.5.6 3 1.6 4.1 2.8 4.4 4.3 4.3 4.5 4 5.1-.4 1 .7 3 2.5.8s.6-3.1-.6-3c-1.3.2-5.2-3.9-5.2-3.9a21.3 21.3 0 0 1-3-3.9h.1c.3-.3 1.4-.8 3.5.4 1.7 1 2.2 1.3 2.4 1.6v.3l.1.4a1.2 1.2 0 0 0 2.2-.6 1.2 1.2 0 0 0-1.5-1.1h-.3c-.5.3-2.7-1.1-2.7-1.1a7.1 7.1 0 0 1-2.2-2c1.2-2 2.1-4 2.8-6l.8.2c.9.2 1.7.6 2.5 1v.4l.2.3a1 1 0 0 0 1.6-.8 1 1 0 0 0-1.3-.9l-.2.1c-.4.3-2.7-.6-2.7-.6l-.7-.3a25 25 0 0 0 1-7.2c.8-.9 2.6-2.2 6.5-2.3 6.1-.2 5.7-.3 6.5.6 1.2 1.4 3.7 1.4 3.4-1.4m-65.3-2.6a.8.8 0 0 1-.8-.8c0-.5.4-.9.9-.9.4 0 .8.4.8.9 0 .4-.4.8-.8.8m36-10.8c.4 0 .8.4.8.8 0 .5-.4.9-.8.9h-.1a.8.8 0 0 1-.8-.9c0-.4.4-.8.9-.8m-.4 3.8c1.5 0 2.7 1.2 2.7 2.7 0 1.4-1.2 2.6-2.7 2.6a2.7 2.7 0 0 1-2.6-2.6c0-1.5 1.2-2.7 2.6-2.7m-23-7.8c.4 0 .8.4.8.9 0 .4-.4.8-.8.8h-.1a.8.8 0 0 1-.8-.8c0-.5.4-.9.9-.9m-.9 15.1c.5 0 .9.4.9.9 0 .4-.4.8-.9.8a.8.8 0 0 1-.8-.8c0-.5.4-.9.8-.9m-8 17.1a.8.8 0 0 1-1-.8c0-.5.5-.9 1-.9.4 0 .7.4.7.9 0 .4-.3.8-.8.8m0-8.6c-1.3 0-2.3-1-2.3-2.3 0-1.3 1-2.4 2.3-2.4 1.3 0 2.3 1 2.3 2.4 0 1.2-1 2.3-2.3 2.3m0-14.8c0-1.9 1.6-3.5 3.5-3.5 2 0 3.5 1.6 3.5 3.5 0 2-1.6 3.5-3.5 3.5-2 0-3.5-1.6-3.5-3.5m10.5 30.5a6.2 6.2 0 0 1-6.2-6.1c.4-3 3-5.4 6.1-5.4 3.2 0 5.8 2.3 6.2 5.4 0 3.4-2.8 6.1-6.1 6.1m5.4 3a.8.8 0 0 1-.8-.9c0-.4.4-.8.9-.8.4 0 .8.4.8.8 0 .5-.4.8-.8.8m1-15.1a.8.8 0 0 1-.8-.9c0-.4.4-.8.8-.8.5 0 .9.4.9.8 0 .5-.4.9-.9.9m-1.1-4.8a3.3 3.3 0 0 1-3.3-3.4c0-1.8 1.5-3.3 3.3-3.3a3.4 3.4 0 0 1 0 6.7m4.2-3.6a.8.8 0 0 1-.8-.9c0-.4.3-.8.8-.8.4 0 .8.4.8.8 0 .5-.4.9-.8.9m-.7-11.9c-2.5 0-4.6-2-4.7-4.6v-.7c0-2.6 2-4.7 4.7-4.7a4.7 4.7 0 0 1 4.6 5.4c0 2.5-2.1 4.6-4.6 4.6m3.3 5.5c0-.5.3-.8.8-.8s.8.3.8.8-.3.8-.8.8a.8.8 0 0 1-.8-.8m3.1 27a2.8 2.8 0 0 1-2.8-2.8c0-1.5 1.3-2.8 2.8-2.8 1.6 0 2.8 1.3 2.8 2.8 0 1.6-1.2 2.8-2.8 2.8m6.7-11a4.7 4.7 0 0 1-4.7-4.7v-.7c0-2.6 2-4.7 4.7-4.7a4.7 4.7 0 0 1 4.6 5.4c0 2.5-2.1 4.6-4.6 4.6m8-11.7h-.2a.8.8 0 0 1-.8-.9c0-.4.5-.8 1-.8.4 0 .7.4.7.8 0 .5-.3.9-.8.9"/><defs><radialGradient id="a" cx="0" cy="0" r="1" gradientTransform="rotate(1.6 -23080.5 25771.5)scale(517.4998)" gradientUnits="userSpaceOnUse"><stop offset="0" stop-color="#4697b6" stop-opacity=".7"/><stop offset="1" stop-color="#f6f6f6" stop-opacity="0"/></radialGradient><radialGradient id="b" cx="0" cy="0" r="1" gradientTransform="rotate(1.6 -27993.5 37204.7)scale(719.6266)" gradientUnits="userSpaceOnUse"><stop offset="0" stop-color="#46b687" stop-opacity=".5"/><stop offset="1" stop-color="#f6f6f6" stop-opacity="0"/></radialGradient></defs></svg>