<svg xmlns="http://www.w3.org/2000/svg" viewBox="0 0 1562 936">
<circle cx="542.6" cy="430.1" r="430.1" fill="url(#a)"/>
<circle cx="366" cy="569.3" r="366" fill="url(#b)"/>
<circle cx="880.5" cy="454.5" r="366" fill="url(#c)"/>
<path fill="#fff" d="m305.5 253.9-8.5-2.6.6-1.8 10.3 3 11.6-6.2-11.5-7.2-10.1 2.3-.5-1.8 8.3-2-6.2-3.8 1.5-2.4 6.4 4-2-8.6 1.8-.4 2.5 10.4 11.3 7v-13.2l-7.3-7.4 1.3-1.2 6 6v-7.8h2.8v8l6.2-6.2 1.4 1.2-7.6 7.6V244l11.7-6.3 3.1-10.3 1.8.5-2.6 8.6 7.2-3.9 1.3 2.5-6.8 3.7 8.1 2.4-.6 1.8-9.9-3-12 6.5 11.3 7 10.4-2.5.4 1.9-8.6 2 6.8 4.2-1.5 2.4-6.6-4.1 1.9 8.3-1.8.4-2.3-10.1-11.3-7v13.3l7.6 7.5-1.4 1.4-6.2-6.3v7.6H321v-7.4l-6 6.1-1.3-1.4 7.3-7.3v-13.8l-12 6.5-3 9.9-1.8-.6 2.4-8-6.3 3.4-1.4-2.5zm453.1 22-8.4-2.6.5-1.8 10.2 3 11.7-6.2-11.5-7.2-10.1 2.3-.4-1.8 8.3-1.9-6.3-3.9 1.6-2.4 6.4 4-2-8.6 1.8-.4 2.4 10.4 11.3 7v-13.2l-7.3-7.4 1.3-1.2 6 6v-7.8h2.8v8l6.3-6.2 1.3 1.2-7.5 7.6h-.1V266l11.8-6.4 3.1-10.2 1.8.5-2.5 8.4 6.9-3.7 1.4 2.5-6.8 3.7 8.1 2.4-.5 1.8-10-3-11.9 6.5 11.2 7L800 273l.3 1.9-8.6 2 6.8 4.2-1.5 2.4-6.6-4.1 2 8.3-1.9.4-2.3-10.1-11.3-7v13.2l.1.1 7.5 7.6-1.3 1.3-6.3-6.3v7.6h-2.8v-7.3l-6 6-1.3-1.3 7.3-7.4v-13.8l-12 6.5-3 9.9-1.8-.5 2.5-8.2-6.4 3.5-1.4-2.5zM369.2 445.2l-8.1-2.4.5-1.7 10 2.9 12-6.5-11.2-7-10.5 2.5-.4-1.9 8.6-2-6.8-4.2 1.5-2.4 6.6 4.1-1.9-8.2 1.8-.5 2.3 10.1 11.3 7v-13l-7.6-7.6 1.3-1.3 6.3 6.2v-7.5h2.8v7.2l6-5.9 1.3 1.3-7.3 7.3v13.8l12-6.5 3-9.9 1.8.6-2.4 8 6.4-3.4 1.3 2.5-6.7 3.6 8.5 2.5-.5 1.8-10.2-3-11.7 6.2 11.5 7.2 10.1-2.3.4 1.9-8.1 1.9 6.1 3.8-1.5 2.4-6.4-4 2 8.6-1.9.5-2.4-10.4v-.1l-11.3-7v13.2l7.3 7.4-1.3 1.3-6-6v7.8h-2.8v-8l-6.3 6.2-1.3-1.3 7.6-7.7v-13l-11.8 6.4-3.1 10.2-1.8-.6 2.5-8.3-6.9 3.7-1.4-2.6z"/>
<path fill="#fff" fill-opacity=".4" d="m918.4 446.8 3.6-3.5.7.8-3.8 3.6 4.7.1v1.7l-4.4-.1 3.3 3.5-.8.8-4.1-4.4-6.8-.1 3.1 2 .1-.1 4.3-1 .2.8-3.6.9 2.8 1.7-.6 1-2.7-1.7.8 3.4-.5.1 4.5 1.3-.3 1.1-4.9-1.4 2.2 4-1.5.8-2.1-4-1.4 4.8-1-.3 1.2-4.2-.1.1-2.5-2.6v3.1h-1.2v-3l-2.5 2.5-.4-.4 1.3 4.6-1 .3-1.4-4.8-2.1 3.7-1.5-.8 2.1-3.8-4.7 1.4-.4-1 5.9-1.7 3.6-6.3-4 2.1-1.1 4.2-.8-.3 1-3.4-2.7 1.5-.5-1 2.8-1.5-3.6-1.1v-.2l-3.1 3-.7-.8 3.6-3.4-4.3-.1V447l4.4.1-3.5-3.7.8-.7 3.2 3.3-.2-.6 3.4-.8-2.6-1.6.7-1 2.7 1.7-.9-3.6.5-.1-4.4-1.3.4-1.1 4.7 1.4-2-3.7 1.4-.8 2.2 4 1.4-5.1 1 .4-1.2 4.3 2.5 2.4v-3.2h1.2v3.3l2.5-2.6.4.4-1.2-4.3 1.1-.4 1.3 4.8 2.2-3.9 1.4.8-2.3 4 5-1.4.3 1.1-4.3 1.2.5.2-1 3.5 2.8-1.5.6 1-2.8 1.5 3.3 1zm0 0-4.1-1.2-3.6 1.9 6.8.1zm-16.2 4 3.2-1.8-6.5-.1-.8.7zm-4.1-4.7 1 1 6.5.2-3.5-2.1zm13.8-7.4-3.1 3v4l3.3-5.9zm-10 1.4 1 4.1 3.3 2.1-3.2-6zm3-1.2-.3 1 3 5.5v-3.7zm10 1.5-1.5.4-3.1 5.6 3.3-1.8v-.1zm-1.5 11.8-3.2-2 3 5.7 1.2.3zm-8.8 5.6 3-3v-3.7l-3.3 5.8zm7-.1.3-.9-3.1-5.7v3.8zm415.9 36.9-8.4-2.5.6-1.8 10.2 3 11.7-6.2-11.6-7.2-10.1 2.3-.4-1.8 8.3-2-6.2-3.8 1.4-2.4 6.5 4-2-8.6 1.8-.4 2.4 10.4 11.3 7v-13.3l-7.3-7.3 1.3-1.3 6 6V461h2.8v8l6.3-6.3 1.3 1.3-7.5 7.6-.1.1v13.1l11.8-6.4 3.1-10.2 1.8.5-2.5 8.5 7-3.8 1.3 2.5-6.8 3.6 8.2 2.5-.6 1.8-10-3-12 6.5 11.3 7 10.4-2.4.5 1.8-8.6 2 6.7 4.2-1.5 2.4-6.5-4 1.9 8.2-1.8.4-2.4-10.1-11.3-7V503l7.6 7.6-1.3 1.4-6.3-6.4v7.7h-2.8V506l-6 6-1.3-1.4 7.3-7.2v-13.9l-12 6.5-2.9 9.9-1.8-.6 2.4-8-6.4 3.4-1.4-2.5zm9.1-202-4.4-.2.1-1.6 4.3.1-3.5-3.7.9-.8 3 3.2-.1-.5 3.5-.8-2.6-1.6.6-1 2.6 1.6-.8-3.4.5-.2-4.3-1.3.3-1 4.7 1.3-2-3.7 1.5-.8 2.1 4 1.4-5 1 .3-1.2 4.3 2.5 2.5v-3.2h1.2v3.3l2.6-2.6.3.3-1.2-4.3 1.1-.3 1.3 4.6 2.2-3.8 1.5.8-2.3 4.1 4.9-1.4.3 1-4.4 1.3.6.2-1 3.5 2.9-1.6.5 1-2.9 1.6 3.5 1-.2.6 3.4-3.4.8.9-3.6 3.5 4.6.1v1.7l-4.6-.1 3.4 3.6-.8.7-4.1-4.4-6.8-.1 3.3 2 4.2-1 .2.8-3.5.8 2.7 1.7-.6 1-2.7-1.7.8 3.4-.5.1 4.6 1.4-.4 1-4.9-1.4 2.2 4.1-1.4.8-2.1-4-1.4 4.8-1.1-.4 1.2-4-2.6-2.6v3.1h-1.2v-3l-2.5 2.5-.3-.4 1.3 4.6-1.1.3-1.4-4.9-2.1 3.7-1.5-.8 2-3.6-4.6 1.3-.3-1.1 5.8-1.7 3.5-6.1-3.8 2-1.2 4.1-.8-.2 1-3.3-2.6 1.4-.6-1 2.8-1.5-3.6-1.1.1-.3-3.1 3-.8-.7zm4.8 2 3.3-1.9-6.7-.1-.7.7zm-.3-10.8 1 4.2 3.3 2-3.2-5.9zm12.9.3-1.3.4-3.3 5.7 3.3-1.8zm-10-1.5-.3.8 3 5.6v-3.6zm7-.2-3.1 3v4l3.3-5.9zm-13.7 7.5 1 1 6.5.2-3.5-2.2zm6.5 11.7 2.9-3V295l-3.2 5.6zm13.7-11.1-4.1-1.2-3.5 1.9 6.7.2zm-6.7 10.9.2-.8-3.1-5.8v3.7zm1.7-5.5-3.2-2 3 5.7 1.2.3zM808.2 642.4l-4.1-.1v-1.7l4.4.1-3.5-3.7.8-.8 3.2 3.4-.2-.7 3.4-.7-2.6-1.7.7-1 2.6 1.7-.8-3.5.5-.1-4.4-1.3.4-1.1 4.7 1.3-2-3.7 1.4-.8 2.1 4 1.5-5 1 .3-1.2 4.4 2.5 2.4V631h1.2v3.3l2.5-2.6.5.4-1.3-4.4 1.1-.3 1.3 4.6 2.1-3.8 1.5.9-2.3 4 5-1.3.3 1-4.4 1.3.5.1-1 3.5 2.9-1.6.6 1-3 1.6 3.5 1-.2.7 3.6-3.3.7.7-3.8 3.6 4.7.1v1.6l-4.5-.1 3.4 3.6-.8.7-4-4.3-7-.2 3.2 2h.1l4.3-1 .2.8-3.7.8 2.9 1.8-.6 1-2.7-1.7.7 3.3-.5.2 4.6 1.3-.3 1-5-1.4 2.3 4.2-1.5.7-2.1-4-1.4 4.8-1-.4 1.2-4h-.1l-2.5-2.6v3.1h-1.2v-3l-2.5 2.5-.4-.4 1.3 4.6-1 .3-1.4-4.8-2.1 3.7-1.5-.9 2-3.6-4.6 1.3-.4-1.1 5.8-1.6 3.6-6.2-3.8 2-1.3 4.2-.7-.3 1-3.3-2.7 1.4-.5-1 2.8-1.5-3.6-1.1.1-.3-3.2 3-.7-.7zm.9-2.7 1 1 6.6.2-3.6-2.2zm15.3 6.1-3.2-2 3 5.7 1.2.3zm-8.8 5.6 3-3v-3.7l-3.3 5.8zm10.3-17.4-1.5.4-3 5.5 3.2-1.8zm-3-1.8-3.1 3v3.9l3.3-5.9zm-9.7 12.2 3.2-1.8-6.6-.2-.7.7 3.9 1.2zm16.1-4-4.1-1.3-3.6 2 6.8.1zm-6.7 10.8.3-.8-3.1-5.7v3.7zm-6.7-18.8-.3 1 3 5.6v-3.8zm-3 1.3 1 4 3.3 2.2-3.1-6zm312.1-350-5.6-1.8.3-1.2 6.9 2.1 3-1.5-2.7-.8.2-.7 3.3 1 4.1-2.2-4-2.6-3.3.7-.1-.7 2.5-.5-3-1.9-6.7 1.7-.3-1.3 5.6-1.3-4.2-2.6 1-1.6 4.3 2.7-1.4-5.9 1.3-.3 1.7 7.2 2.8 1.7-.6-2.7.7-.2.7 3.4 4 2.5v-4.7l-2.3-2.3.5-.5 1.8 1.8V268l-5-5 1-1 4 4v-5.2h1.9v5.4l4.3-4.2.9 1-5.2 5.2v3.1l2-1.9.5.5-2.5 2.4v4.7l4.2-2.2 1-3.4.7.2-.8 2.7 3-1.6 2-7 1.2.4-1.7 5.8 4.8-2.6.9 1.7-4.6 2.5 5.4 1.6-.3 1.2-6.7-2-2.9 1.6 2.4.7-.2.7-3.1-.9-4.3 2.3 3.9 2.4 3.4-.7.1.7-2.7.6 2.8 1.7h.1l7-1.6.3 1.2-5.8 1.4 4.5 2.8-1 1.7-4.3-2.7 1.3 5.5-1.3.3-1.6-6.8-2.8-1.8.5 2.5-.7.1-.7-3.1-4-2.5v4.6l2.5 2.4-.5.5-2-2v3.4l5.2 5.2-1 1-4.2-4.2v5h-1.9v-4.8l-4 4-1-1 5-5v-3.4l-1.8 1.8-.5-.5 2.3-2.3v-4.8l-4.3 2.3-.9 3.1-.7-.2.8-2.5-3 1.6-2 6.7-1.2-.4 1.6-5.4-4.3 2.3-1-1.7zm-71.8 306.7-5.6-1.8.3-1.2 7 2 2.9-1.5-2.7-.8.2-.6 3.3 1 4.1-2.2-4.2-2.7-3.1.8-.1-.7 2.5-.5-3-1.9-6.8 1.7-.2-1.3 5.6-1.3-4.2-2.6 1-1.7 4.3 2.7-1.4-5.8 1.3-.3 1.7 7.1 2.8 1.7-.6-2.6.7-.2.7 3.4 4 2.5v-4.7l-2.3-2.3.5-.6 1.8 1.9v-3.3l-5-5 1-.9 4 4v-5.2h1.9v5.4l4.3-4.2.9.9-5.2 5.2v3.2l2-2 .4.6-2.4 2.4v4.7l4.1-2.2 1.1-3.4.7.2-.8 2.7 2.9-1.5v-.2l2.1-6.9 1.2.4-1.7 5.8 4.8-2.6 1 1.6-4.7 2.5 5.5 1.7-.4 1.2-6.8-2-3 1.6 2.6.7-.2.7-3.2-1-4.2 2.3 3.9 2.5 3.4-.8.1.7-2.7.6 2.9 1.8 7-1.6.3 1.2-5.8 1.4 4.5 2.8-1 1.7-4.4-2.7 1.3 5.5-1.2.3-1.6-6.8-2.8-1.8.5 2.5-.7.1-.7-3.1-4-2.5v4.6l2.5 2.4-.5.5-2-2v3.4l5.2 5.2-1 1-4.2-4.2v5h-1.9v-4.8l-4 4-1-1 5-5v-3.4l-1.8 1.8-.5-.5 2.3-2.3v-5l-4.3 2.4-.9 3.1-.7-.2.8-2.4-3 1.6-2 6.6-1.2-.3 1.6-5.5-4.4 2.4-.9-1.7zm-840-91.8-5.8-1.8.3-1.2 7 2 3-1.5-2.7-.8.2-.7 3.3 1 4-2.2-4.1-2.6-3.1.7-.2-.6 2.4-.6-2.8-1.7-6.8 1.6-.3-1.3 5.6-1.3-4.2-2.6 1-1.7 4.4 2.7-1.4-5.8 1.3-.2 1.6 7 2.9 1.8-.6-2.7.6-.1.7 3.2 4.1 2.6V487l-2.4-2.4.5-.5 1.9 1.9v-3.3l-5-5 .9-.9 4.1 4.1v-5.3h1.9v5.4l4.3-4.2.9.9-5.2 5.2v3.2l1.9-2 .5.5-2.4 2.5v4.6l4.2-2.2 1-3.3.6.2-.8 2.6 3-1.6 2.1-6.9 1.2.4-1.7 5.6 4.7-2.5 1 1.7-4.7 2.5 5.5 1.7-.3 1.2-6.7-2-3 1.6 2.4.7-.2.7-3-1-4.3 2.3 3.9 2.5 3.3-.8.2.7-2.7.6 2.9 1.8 7-1.6.3 1.2-5.7 1.4 4.5 2.8-1 1.7-4.6-2.8 1.4 5.6-1.3.3-1.6-6.9-2.8-1.8.5 2.5-.6.2-.7-3.1-4-2.5v4.6l2.4 2.4-.5.5-1.9-1.9v3.3l5.2 5.2-1 .9-4.2-4.2v5.1h-1.9v-4.9l-4 4-1-.9 5-5V501l-1.9 1.8-.5-.5 2.4-2.3v-5l-4.3 2.4-.9 3.1-.7-.2.7-2.4-3 1.6-2 6.7-1.2-.4 1.7-5.5-4.4 2.4-.9-1.7zm439.6-207.3-5.7-1.7.3-1.2 7 2 3-1.5-2.7-.8.2-.6 3.3 1 4-2.3-4-2.6-3.2.8-.2-.7 2.5-.6-2.8-1.8-6.9 1.7-.3-1.3 5.7-1.3-4.2-2.6.9-1.7 4.3 2.7-1.3-5.8 1.3-.3 1.6 7.1 2.9 1.8-.6-2.7.6-.2.7 3.4 4.1 2.5v-4.7l-2.4-2.3.5-.6 1.9 1.9v-3.3l-5-5 .9-.9 4.1 4.1v-5.3h1.9v5.4l4.2-4.2 1 .9-5.2 5.2v3.2l1.9-2 .5.6-2.4 2.4v4.7l4.1-2.2 1-3.4.7.2-.8 2.7 3-1.6 2.1-7 1.2.4-1.8 5.8 4.8-2.6 1 1.6-4.7 2.5 5.5 1.7-.3 1.2-6.8-2-3 1.6 2.5.7-.2.7-3-1-4.4 2.4 4 2.4 3.3-.8.2.7-2.7.6 2.8 1.8 7.1-1.6.3 1.2-5.8 1.4 4.5 2.8-1 1.7-4.4-2.8 1.3 5.6-1.3.3-1.6-6.8-2.8-1.8.5 2.5-.6.1-.7-3.1-4-2.5v4.6l2.4 2.4-.5.5-1.9-1.9v3.4l5.1 5.1-.9 1-4.2-4.2v5h-1.9v-4.8l-4 4-1-1 5-5v-3.4l-1.9 1.8-.5-.5 2.4-2.3v-5l-4.3 2.4-1 3.1-.6-.2.7-2.4-3 1.6-2 6.6-1.2-.3 1.6-5.4-4.3 2.3-1-1.7zM701 548.7l-5.7-1.7.3-1.2 7 2 2.8-1.5-2.5-.8.1-.7 3.3 1 4.2-2.2-4-2.6-3.3.7-.2-.6 2.6-.6-2.8-1.8-7 1.6-.3-1.2 5.8-1.3-4.3-2.7 1-1.6 4.3 2.7-1.4-5.8 1.3-.3 1.6 7 2.9 1.8-.6-2.6.6-.2.7 3.3 4.1 2.6v-4.7l-2.4-2.4.5-.5 1.9 1.9V533l-5-5 .9-1 4.1 4.1v-5.2h1.9v5.3l4.3-4.2.9 1-5.2 5.2v3.2l1.9-2 .5.5-2.4 2.5v4.6l4.2-2.3 1-3.2.6.2-.7 2.6 2.9-1.6 2.1-6.9 1.2.4-1.7 5.6 4.7-2.5 1 1.7-4.7 2.5 5.5 1.7-.3 1.2-6.7-2-3 1.5 2.4.8-.2.7-3.1-1-4.3 2.3 4 2.5 3.3-.8.2.7-2.7.6 2.9 1.8 7-1.6.3 1.2-5.9 1.3 4.6 2.9-1 1.6-4.4-2.8 1.3 5.7-1.3.2-1.6-6.9-2.8-1.7.5 2.5-.6.2-.7-3.2-4-2.5v4.7l2.4 2.4-.5.5-1.9-1.9v3.3l5.2 5.2-1 .9-4.2-4.2v5.1h-1.9v-4.9l-4 4-1-1 5-5v-3.3l-1.9 1.8-.5-.5 2.4-2.3v-5l-4.3 2.3-.9 3.2-.7-.2.8-2.5-3 1.6-2 6.8-1.3-.4 1.7-5.6-4.4 2.4-.9-1.7zM420.9 350.2l-5.7-1.7.4-1.2 6.9 2 3-1.5-2.7-.8.2-.7 3.3 1 4.1-2.2-4-2.6-3.3.7-.2-.6 2.6-.6-2.8-1.8-7 1.6-.2-1.3 5.6-1.3-4.2-2.6 1-1.6 4.3 2.7-1.4-5.8 1.3-.3 1.7 7.1 2.8 1.8-.6-2.8.6-.1.8 3.4 4 2.5v-4.8l-2.3-2.3.5-.5 1.8 1.8v-3.2l-5-5 1-1 4 4v-5.1h1.9v5.3l4.3-4.2.9 1-5.2 5.2v3.1l1.9-1.9.5.5-2.4 2.4v4.7l4.2-2.2 1-3.3.7.2-.8 2.6 2.9-1.6 2.1-6.9 1.2.3-1.7 5.8 4.8-2.6.9 1.7-4.6 2.5 5.5 1.6-.4 1.2-6.7-2-3 1.6 2.5.8-.3.6-3-.9-4.4 2.3 4 2.5 3.4-.8.1.7-2.7.6 2.8 1.8 7.2-1.7.2 1.3-5.9 1.3 4.6 2.9-1 1.6-4.4-2.7 1.3 5.5-1.2.3-1.6-6.8-2.9-1.8.6 2.5-.7.2-.7-3.2-4-2.5v4.6l2.4 2.5-.5.5-1.9-2v3.3l5.2 5.2-1 1-4.2-4.2v5.1h-1.9V358l-4 4-1-1 5-5v-3.4l-1.8 1.9-.5-.5 2.3-2.4v-4.9l-4.3 2.3-.9 3.2-.7-.2.8-2.5-3 1.6-2 6.7-1.3-.3 1.7-5.6-4.4 2.4-.9-1.7zm446.4-39.6-3.1-.9.2-.7 3.8 1.1 4.2-2.3-4.2-2.6-3.7.8-.2-.6 3-.7-2.2-1.4.5-.9 2.4 1.5-.7-3.2.7-.2.9 4 4.1 2.5v-5l-2.7-2.6.5-.5 2.2 2.2v-2.9h1v3l2.3-2.3.5.5-2.8 2.8v4.8l4.4-2.4 1.1-3.7.6.2-1 3.1 2.7-1.4.5 1-2.4 1.3 2.9.9-.2.6-3.6-1-4.5 2.3 4 2.6 4-.9.1.7-3.1.7 2.5 1.6-.6.8-2.4-1.5.7 3.1-.7.1-.8-3.7-4.2-2.6v4.9l2.8 2.8-.5.5-2.3-2.4v2.8h-1v-2.7l-2.2 2.3-.5-.5 2.7-2.6v-5.2l-4.4 2.3-1.1 3.8-.7-.2 1-3-2.5 1.2-.4-.9zm563.7-51.4-3.1-.9.2-.7 3.7 1.2 4.3-2.3-4.3-2.7-3.6.8v-.6l2.9-.7-2.3-1.4.6-.9 2.3 1.4-.7-3.1.7-.2.9 3.9 4.1 2.6v-5l-2.7-2.6.5-.5 2.2 2.2v-2.8h1v3l2.3-2.4.5.5-2.7 2.7v4.9l4.3-2.4 1.1-3.7.7.2-.9 3 2.5-1.3.5 1-2.5 1.3 3 .9-.2.6-3.6-1-4.5 2.3 4.2 2.6 3.8-.9.2.7-3.2.7 2.5 1.6-.6.9-2.4-1.5.7 3-.6.2-.8-3.6-4.3-2.7v4.8l2.8 2.8-.4.5-2.4-2.3v2.8h-1v-2.6l-2.2 2.1-.5-.5 2.7-2.6v-5.2l-4.4 2.3-1 3.8-.8-.2 1-3.1-2.5 1.3-.4-.9zM875.7 525l-3.1-.9.2-.7 3.8 1.1 4.3-2.3-4.3-2.6-3.7.8-.1-.7 3-.7-2.3-1.4.6-.9 2.4 1.5-.7-3.2.6-.1.8 3.8h.1l4.1 2.6v-5l-2.6-2.6.4-.5 2.2 2.2v-2.8h1v3l2.4-2.4.5.5-2.9 2.9v4.8l4.4-2.4 1.2-3.7.6.2-.9 3 2.6-1.4.4 1-2.5 1.4 3 .8-.2.7-3.7-1-4.3 2.3 4.1 2.5 3.9-.8v.6l-3.1.7 2.5 1.6-.5 1-2.5-1.6.7 3-.6.2-.8-3.6-4.3-2.7v4.8l2.9 2.9-.5.5-2.4-2.4v2.8h-1v-2.6l-2.2 2.2-.4-.5 2.6-2.7v-5l-4.3 2.2-1.2 3.7-.6-.2.9-3-2.4 1.3-.5-.9zm594 72.7-3.1-.9.2-.7 3.7 1.2 4.2-2.3-4.3-2.7-3.6.8-.1-.6 3-.7-2.3-1.4.6-.9 2.4 1.5-.7-3.2.6-.2.9 3.8v.1l4.1 2.6v-5l-2.6-2.6.5-.5 2.1 2.1v-2.8h1v3l2.4-2.3.5.5-2.9 2.8v4.8l4.4-2.3 1.2-3.8.6.2-1 3.1 2.7-1.4.4 1-2.5 1.3 3 .9-.2.6-3.6-1-4.5 2.3 4.1 2.6 3.9-.9.2.7-3.2.7 2.5 1.6-.5.9-2.5-1.5.7 3-.6.1-.8-3.6-4.3-2.7v4.8l2.9 2.9-.5.5-2.4-2.3v2.7h-1V602l-2.2 2.1-.4-.5 2.6-2.5v-5.2l-4.3 2.2-1.2 3.8-.6-.2 1-3-2.5 1.2-.5-.9zm-824-168.8-2.9-.9.2-.6 3.6 1 4.4-2.3-4.2-2.5-3.7.8-.2-.7 3-.7-2.2-1.4.5-.9 2.4 1.5-.7-3.2.6-.1.9 3.8 4.2 2.6v-4.8l-2.7-2.8.5-.5 2.2 2.3v-2.9h1v2.9l2.3-2.3.5.5-2.8 2.8v4.8l4.3-2.3 1.1-3.8.7.2-1 3.1 2.7-1.4.5 1-2.5 1.3 3 .9-.2.7-3.7-1-4.4 2.3 4 2.5h.1l3.8-.8.2.6-3.2.7 2.5 1.6-.5.9-2.5-1.6.7 3.1-.6.2-.8-3.7-4.2-2.6v4.9l2.8 2.8-.5.4-2.3-2.2v2.7h-1V433l-2.2 2.2-.5-.4 2.7-2.8v-5l-4.4 2.3-1 3.7-.8-.2.9-3-2.4 1.3-.5-1zm-305-5.4-1.9-.5.2-.5 2.3.8 2.8-1.5-2.8-1.8-2.3.6-.1-.4 2-.5-1.5-.9.3-.6 1.6 1-.5-2.1h.4l.6 2.4 2.7 1.7V418l-1.8-1.7.3-.3 1.5 1.4v-1.8h.7v1.8l1.4-1.4.4.3-1.8 1.7v3.2l2.7-1.5.8-2.4.4.1-.5 2 1.6-.9.3.6-1.6.9 1.9.6-.1.4-2.4-.7-2.8 1.5 2.7 1.7 2.4-.6.1.4-2 .5 1.6 1-.4.6-1.5-1 .4 2h-.4l-.6-2.3-2.6-1.7v3.2l1.7 1.7-.3.4-1.4-1.5v1.8h-.7v-1.7l-1.4 1.3-.4-.2 1.8-1.7v-3.4l-2.9 1.6-.7 2.4-.4-.2.6-2-1.6.9-.3-.6zm646.5 203.9-2-.6.1-.4 2.4.7 2.8-1.5-2.7-1.7-2.4.5-.1-.4 2-.5-1.5-.9.3-.5 1.6 1-.5-2.1.4-.1.6 2.4 2.7 1.7v-3.1l-1.7-1.7.3-.4 1.4 1.5v-1.9h.7v1.8l1.4-1.4.4.3-1.8 1.8v3l2.7-1.4.7-2.4.5.1-.5 2 1.6-.9.3.6-1.6.9 1.9.6-.1.4-2.4-.7-2.8 1.5 2.7 1.7 2.4-.6.1.5-2 .4 1.6 1-.4.6-1.5-1 .4 2-.4.1-.6-2.4-2.6-1.7v3.2l1.7 1.8-.3.3-1.4-1.4v1.7h-.7V630l-1.4 1.4-.4-.3 1.8-1.8v-3.2l-2.9 1.5-.7 2.4-.4-.2.5-1.8-1.5.8-.3-.7zM797.7 420l-2-.6.1-.4 2.4.7 2.8-1.5-2.7-1.7-2.4.5-.1-.4 2-.4-1.5-1 .3-.5 1.5 1-.4-2.1.4-.1.6 2.5 2.7 1.7v-3.2l-1.7-1.7.3-.4 1.4 1.5V412h.7v1.8l1.4-1.4.3.3-1.7 1.8v3.1l2.7-1.4v-.1l.8-2.4.4.1-.6 2 1.6-.8.4.5-1.6.9 1.9.6-.1.4-2.4-.7-2.9 1.6 2.7 1.6 2.5-.6.1.5-2.1.4 1.7 1.1-.4.5-1.6-1 .5 2-.4.1-.6-2.4-2.6-1.7v3.3l1.7 1.7-.3.3-1.4-1.4v1.7h-.7v-1.8l-1.4 1.5-.4-.3 1.8-1.8v-3.2l-2.9 1.5-.7 2.4-.4-.2.5-1.8-1.5.8-.3-.7zm-52.8-76.1-2-.6.1-.5 2.4.8 2.8-1.5-2.8-1.8-2.4.6v-.4l1.9-.5-1.5-.9.4-.6 1.5 1-.5-2.1.5-.1.5 2.5 2.7 1.7v-3.2l-1.7-1.7.3-.3 1.4 1.3V336h.7v1.9l1.5-1.5.3.3-1.8 1.8v3.1l2.9-1.5.6-2.4.5.1-.6 2 1.6-.9.4.6-1.7.9 2 .6-.2.4-2.3-.7-2.9 1.5 2.7 1.7 2.5-.6v.4l-2 .5 1.6 1-.3.6-1.6-1 .5 2h-.5l-.5-2.3-2.7-1.7v3.1l1.8 1.8-.3.4-1.5-1.5v1.8h-.7v-1.7l-1.3 1.3-.4-.2 1.7-1.7v-3.3l-2.9 1.5-.6 2.4-.4-.2.6-2-1.6.9-.3-.6zM1207 505.5l-2-.6.2-.4 2.4.7 2.8-1.5-2.7-1.7-2.4.5-.1-.4 1.9-.5-1.5-.9.4-.5 1.5 1-.4-2.1.4-.1.6 2.5 2.7 1.7V500l-1.7-1.7.2-.3 1.5 1.4v-1.9h.7v1.9l1.5-1.4.2.2-1.7 1.8v3.1l2.7-1.4v-.1l.8-2.4.4.1-.6 2 1.6-.8.4.5-1.6.9 2 .6-.2.4-2.4-.7-2.9 1.6 2.6 1.6h.1l2.5-.6v.5l-2 .4 1.6 1.1-.3.5-1.6-1 .5 2.1h-.4l-.6-2.4-2.6-1.6v3.2l1.7 1.7-.3.3-1.4-1.4v1.7h-.7v-1.8l-1.4 1.5-.4-.3 1.8-1.8v-3.2l-3 1.6-.6 2.3-.4-.1.5-2-1.5.9-.3-.7zm-855.3 38.3-2-.6.1-.5 2.4.8 2.8-1.5-2.8-1.8-2.3.6-.1-.4 2-.5-1.5-.9.3-.6 1.6 1-.5-2.1.4-.1.6 2.5 2.7 1.7v-3.1l-1.7-1.8.3-.3 1.4 1.4v-1.8h.7v1.8l1.4-1.4.4.3-1.8 1.7v3.2l2.7-1.5.8-2.4.4.1-.5 2 1.5-.9.4.6-1.6.9 1.9.6-.1.4-2.4-.7-2.8 1.5 2.7 1.7 2.4-.6.1.4-2 .5 1.6 1-.4.6-1.6-1 .5 2h-.4l-.6-2.3-2.6-1.7v3.2l1.7 1.7-.3.4-1.4-1.5v1.8h-.7v-1.7l-1.4 1.3-.4-.2 1.8-1.8v-3.3l-2.9 1.6-.7 2.4-.4-.2.6-2-1.6.9-.3-.6zm1129.7-67.6-2-.6.1-.4 2.4.8 2.8-1.5-2.8-1.8-2.3.6-.1-.5 2-.4-1.5-.9.3-.6 1.5 1-.4-2.1.4-.1.6 2.5 2.7 1.7v-3.1l-1.7-1.8.2-.4 1.5 1.5v-1.9h.7v1.8l1.4-1.4.3.4-1.7 1.7v3.2l2.7-1.5.8-2.4h.4l-.6 2.1 1.7-.9.3.6-1.6.9 1.9.5-.1.4-2.3-.6-3 1.5 2.7 1.6 2.5-.5v.4l-2 .5 1.7 1-.4.6-1.6-1 .5 2h-.4l-.6-2.3-2.6-1.7v3.3l1.7 1.6-.3.3-1.4-1.4v1.7h-.7v-1.8l-1.4 1.5-.4-.3 1.8-1.7V475l-2.9 1.6-.7 2.3-.4-.1.6-2-1.6.9-.3-.6zm52.2 37.2-2.1-.6.2-.4 2.5.7 2.8-1.5-2.8-1.7-2.4.6-.1-.5 2-.4-1.5-.9.3-.7 1.5 1-.4-2 .4-.1.6 2.4 2.7 1.7v-3l-1.7-1.7.2-.4 1.5 1.5v-1.9h.7v1.8l1.4-1.4.3.3-1.7 1.8v3.2l2.7-1.5.8-2.5.4.2-.7 2 1.8-.9.3.6-1.6.9 1.9.5-.1.4-2.3-.6-2.9 1.5 2.6 1.6 2.5-.5v.4l-2 .5 1.7 1-.4.5-1.5-1 .4 2.1h-.4l-.6-2.4-2.6-1.6v3.2l1.7 1.7-.3.3-1.4-1.4v1.7h-.7V516l-1.4 1.5-.4-.3 1.8-1.8v-3.2l-2.9 1.6-.7 2.3-.4-.1.5-2-1.5.9-.3-.6zm-450.8-52.7-2-.6.1-.4 2.4.7 2.8-1.5-2.7-1.7-2.5.5v-.4l1.9-.5-1.5-.9.4-.6 1.5 1-.5-2 .5-.1.5 2.3 2.7 1.8V455l-1.6-1.6.2-.4 1.4 1.4v-1.8h.7v1.9l1.5-1.5.3.3-1.8 1.9v3l2.8-1.5.7-2.4.5.1-.6 2 1.6-.9.4.6-1.6.9 1.9.6-.2.4-2.4-.7-2.7 1.5 2.6 1.7 2.5-.6v.5l-2 .4 1.6 1-.3.6-1.6-1 .5 2-.5.1-.5-2.4-2.7-1.7v3.2l1.8 1.7-.3.4-1.5-1.5v1.8h-.7v-1.7l-1.3 1.4-.4-.3 1.7-1.7v-3.3l-2.9 1.6-.6 2.3-.4-.2.5-1.8-1.5.8-.3-.7zm127.9-58.8-2-.6.1-.5 2.4.8 2.8-1.5-2.8-1.8-2.4.6v-.4l1.9-.5-1.5-.9.4-.6 1.5 1-.5-2.1.4-.1.6 2.4 2.7 1.8v-3.2l-1.7-1.7.4-.3 1.3 1.3v-1.7h.7v1.9l1.5-1.5.3.3-1.8 1.8v3.1l2.8-1.5.7-2.4.5.1-.6 2 1.6-.9.3.6-1.6.9 2 .6-.2.4-2.3-.7-2.8 1.5 2.6 1.7 2.5-.6v.4l-2 .5 1.6 1-.3.6-1.6-1 .5 2h-.5l-.5-2.3-2.7-1.7v3.2l1.8 1.7-.3.4-1.5-1.5v1.8h-.7v-1.7l-1.3 1.3-.4-.2 1.7-1.7v-3.3l-2.9 1.6-.6 2.3-.5-.2.6-1.8-1.5.8-.3-.7zm-266-143.3-2-.6.1-.4 2.5.7 2.7-1.5-2.7-1.7-2.4.6-.1-.5 2-.4-1.5-.9.3-.6 1.5 1-.4-2.1.4-.2.6 2.6 2.7 1.7V253l-1.7-1.7.3-.4 1.4 1.5v-1.9h.7v1.8l1.4-1.4.3.3-1.7 1.8v3.2l2.7-1.5.8-2.5.4.2-.6 2 1.6-.9.4.6-1.6.9 1.9.5-.1.4-2.3-.6-3 1.5 2.7 1.6 2.5-.5.1.4-2 .5 1.6 1-.4.5-1.6-1 .5 2.1h-.4l-.6-2.4-2.6-1.6v3.2l1.7 1.7-.3.3-1.4-1.4v1.7h-.7v-1.7l-1.5 1.4-.3-.3 1.8-1.8v-3.2l-2.9 1.6-.7 2.3-.4-.1.5-2-1.5.9-.3-.6zm-695.3 14.7-3.1-1 .2-.6 3.7 1 4.3-2.2-4.2-2.6-3.7.8-.1-.7 3-.7-2.3-1.4.6-.9 2.4 1.5-.7-3.2.5-.1 1 3.7v.1l4.2 2.6v-4.8l-2.7-2.8.5-.5 2.2 2.3v-2.9h1v2.9l2.3-2.3.5.5-2.8 2.8v4.8l4.3-2.2v-.1l1.1-3.7.7.2-1 3 2.7-1.3.4.9-2.5 1.3 3 .9-.2.7-3.7-1-4.3 2.3 4.1 2.6 3.8-.9.2.6-3.2.7 2.5 1.6-.5 1-2.5-1.6.7 3-.6.2-.8-3.6-4.2-2.6v4.9l2.8 2.7-.5.5-2.3-2.3v2.7h-1v-2.7l-2.3 2.3-.4-.5 2.7-2.7v-5.1l-4.4 2.3-1.2 3.7-.6-.2.9-3-2.4 1.3-.5-1zm786.2 140-3.2-.9.2-.6 3.8 1.1 4.2-2.3-4.3-2.7-3.6.8-.2-.6 3-.7-2.2-1.4.5-1 2.4 1.5-.7-3.1.6-.2.8 3.8h.1l4.2 2.6v-4.9l-2.7-2.6.5-.5 2.2 2.3V401h1v3l2.3-2.4.5.5-2.8 2.8v4.8l4.4-2.3 1.1-3.8.7.2-1 3.1 2.6-1.4.5 1-2.5 1.3 3 .9-.2.7-3.6-1.1-4.5 2.3 4.2 2.6 3.8-.9.1.7-3.1.7 2.5 1.6-.6.9-2.4-1.5.7 3-.7.2-.8-3.7-4.2-2.6v4.8l2.8 2.8-.5.5-2.3-2.3v2.8h-1v-2.7l-2.2 2.2-.5-.5 2.7-2.6v-5.2l-4.4 2.3-1.1 3.8-.7-.2 1-3-2.5 1.2-.4-.8zM462.8 262.6l-3.1-.9.3-.7 3.6 1.2 4.4-2.3-4.2-2.6-3.8.8-.1-.7 3-.7-2.3-1.4.6-.9 2.4 1.5-.7-3.2.6-.1.8 3.8h.1l4.1 2.6v-5l-2.7-2.7.5-.4 2.2 2.1v-2.8h1v3l2.4-2.3.5.4-2.9 2.9v4.8l4.4-2.4 1.1-3.7.7.1-.9 3.1 2.5-1.3.5.9-2.4 1.3 2.9.9-.2.7-3.7-1-4.3 2.3 4 2.5h.1l3.8-.8.2.6-3.2.7 2.5 1.6-.5.9-2.5-1.5.7 3-.6.2-.8-3.7-4.3-2.7v4.9l2.9 2.9-.5.5-2.4-2.4v2.8h-1v-2.6l-2.2 2.2-.5-.5 2.7-2.7v-5l-4.3 2.2-1.2 3.7-.6-.2.9-3-2.4 1.3-.5-1zm63.4 304-3.1-.9.2-.7 3.8 1.1 4.3-2.3-4.2-2.6-3.8.8-.1-.6 3-.7-2.3-1.5.6-.8 2.4 1.5-.7-3.2.6-.2.8 3.8h.1v.1l4.1 2.6v-5l-2.7-2.6.5-.5 2.2 2.1v-2.8h1v3l2.4-2.3.5.5-2.9 2.8v4.8l4.4-2.4 1.1-3.7.7.2-.9 3 2.5-1.3.5 1-2.4 1.3 2.9.9-.2.6-3.6-1-4.5 2.3 4 2.6 4-.9.2.7-3.2.7 2.5 1.6-.5.8-2.5-1.6.7 3.2-.6.1-.8-3.7-4.3-2.7v5h.1l2.8 2.8-.5.5-2.4-2.4v2.8h-1v-2.6l-2.2 2.2-.5-.5 2.7-2.6v-5.1l-4.3 2.3-1.2 3.7-.6-.2.8-3-2.3 1.2-.5-.9zM174.4 399.5l-3-.9.2-.7 3.8 1.1 4.2-2.3-4.2-2.6-3.7.8-.2-.6 3-.8-2.2-1.4.5-.9 2.4 1.5-.7-3.1.6-.2.8 3.8h.1l4.2 2.6V391l-2.7-2.8.5-.4 2.2 2.2v-2.9h1v3l2.3-2.3.5.4-2.8 2.8v4.9l4.4-2.4 1.1-3.7.6.2-1 3.1 2.7-1.4.5.9-2.5 1.3 3 .9-.2.7-3.7-1-4.4 2.3 4.1 2.6 3.9-.9.1.7-3.1.7 2.4 1.5-.5 1-2.5-1.6.7 3.1-.6.1-.8-3.6-4.2-2.7v4.9l2.8 2.8-.5.5-2.3-2.4v2.8h-1v-2.7L178 406l-.5-.5 2.7-2.8v-5l-4.4 2.3-1.1 3.7-.7-.2.9-3-2.4 1.3-.5-.9zM1506.1 374l-3.2-.9.1-.6 3.9 1.1 4.2-2.3-4.3-2.7-3.6.8-.2-.6 3-.7-2.2-1.4.6-.9 2.3 1.4-.7-3.1.6-.1.8 3.7 4.3 2.7v-5l-2.7-2.6.5-.5 2.2 2.3v-2.9h1v3l2.3-2.4.5.5-2.8 2.8v4.8l4.3-2.3v-.1h.1l1.1-3.7.7.2-1 3.1 2.6-1.4.5 1-2.4 1.3 2.9.9-.2.7-3.6-1.1-4.5 2.3 4.2 2.6 3.8-.9.1.7-3.1.7 2.5 1.6-.6.9-2.4-1.5.7 3-.7.2-.8-3.7-4.2-2.6v4.8l2.8 2.8-.5.5-2.3-2.3v2.8h-1v-2.7l-2.2 2.2-.5-.5 2.7-2.6V372l-4.4 2.3-1.1 3.8-.7-.2 1-3-2.5 1.2-.4-.8zm-247.9 233.5-3-1 .2-.6 3.7 1 4.3-2.2-4.2-2.6-3.7.8-.2-.7 3-.7-2.2-1.4.5-.9 2.4 1.5-.7-3.2.7-.1.9 3.8 4.1 2.6v-4.9l-2.7-2.7.5-.5 2.2 2.3v-3h1v3l2.3-2.4.5.5-2.8 2.9v4.8l4.4-2.4 1.1-3.7.7.2-1 3 2.6-1.3.5.9-2.5 1.3 3 .9-.2.7-3.7-1-4.4 2.3 4.2 2.5 3.8-.8.1.6-3.1.7 2.5 1.6-.6 1-2.4-1.5.7 2.9-.7.2-.8-3.6-4.2-2.7v4.8l2.8 2.9-.5.5-2.3-2.4v2.8h-1v-2.7l-2.2 2.3-.5-.5 2.7-2.7v-5.1l-4.4 2.3-1.1 3.7-.7-.2.9-3-2.4 1.3-.4-1zM1532.5 263l-3-.9.2-.7 3.6 1.2 4.4-2.4-4.3-2.6-3.6.8-.2-.6 3-.7-2.2-1.4.6-.9 2.3 1.4-.7-3.1.6-.2.9 3.8 4.2 2.7v-4.9l-2.7-2.7.4-.5 2.3 2.3v-2.9h1v3l2.3-2.4.5.5-2.8 2.7v4.8l4.3-2.3 1.2-3.7.6.2-.9 3 2.5-1.3.6 1-2.5 1.3 3 .9-.2.6-3.6-1-4.5 2.3 4.1 2.6h.1l3.8-.9.1.7-3.2.7 2.5 1.6-.5.9-2.4-1.5.7 3-.7.2-.8-3.7-4.2-2.6v4.9l2.8 2.7-.5.5-2.3-2.3v2.8h-1v-2.7l-2.2 2.2-.5-.5 2.7-2.7v-5l-4.4 2.2-1.1 3.8-.7-.2 1-3-2.5 1.2-.5-.9zm-124.6 154c-.4 2.8-2.8 5-5.6 5a5.7 5.7 0 0 1-5.7-5c0-3 2.5-5.6 5.6-5.6 3 0 5.6 2.5 5.7 5.6M331.1 263.4c0 1.4-1.1 2.5-2.5 2.5a2.5 2.5 0 0 1-2.5-2.5c0-1.4 1.1-2.5 2.5-2.5s2.5 1.1 2.5 2.5m81.6 4.5c0 1.4-1.2 2.5-2.6 2.5a2.5 2.5 0 0 1-2.5-2.5c0-1.4 1.2-2.6 2.6-2.6 1.3 0 2.5 1.2 2.5 2.6m207.8 332.9c0 1.8-1.5 3.3-3.2 3.3a3.3 3.3 0 0 1-3.3-3.3 3.3 3.3 0 0 1 3.3-2.7c1.5 0 3 1.1 3.2 2.7M304.7 395c0 1.8-1.5 3.2-3.3 3.2a3.3 3.3 0 0 1-3.3-3.2c0-1.8 1.5-3.3 3.3-3.3 1.8 0 3.3 1.5 3.3 3.3m858.3-11.2c0 1.8-1.6 3.3-3.3 3.3a3.3 3.3 0 0 1-3.3-3.3 3.3 3.3 0 0 1 3.3-2.7c1.5 0 3 1.1 3.2 2.7zm377.8 35.2c0 1.8-1.5 3.3-3.3 3.3a3.3 3.3 0 0 1-3.2-3.3c0-1.8 1.5-3.3 3.2-3.3 1.8 0 3.3 1.5 3.3 3.3m-794.6 46.7c0 1.8-1.4 3.3-3.2 3.3a3.3 3.3 0 0 1-3.3-3.3c0-1.8 1.5-3.3 3.3-3.3 1.8 0 3.2 1.5 3.2 3.3M196.4 307.8c0 1.8-1.5 3.3-3.3 3.3a3.3 3.3 0 0 1-3.3-3.3c0-1.8 1.5-3.2 3.3-3.2 1.8 0 3.3 1.4 3.3 3.2m56.7 292.9c0 1.8-1.4 3.3-3.2 3.3a3.3 3.3 0 0 1-3.3-3.3c0-1.8 1.5-3.3 3.3-3.3 1.8 0 3.2 1.5 3.2 3.3m-73.5-111.2c0 1.8-1.5 3.3-3.3 3.3a3.3 3.3 0 0 1-3.2-3.3c0-1.8 1.4-3.3 3.2-3.3 1.8 0 3.3 1.5 3.3 3.3m1090.4-54c0 1.8-1.4 3.2-3.2 3.2a3.3 3.3 0 0 1-3.2-3.2c0-1.8 1.4-3.3 3.2-3.3 1.8 0 3.3 1.5 3.3 3.3zm112.7-71c0 1.8-1.5 3.3-3.3 3.3a3.3 3.3 0 0 1-3.3-3.3c0-1.8 1.5-3.3 3.3-3.3 1.8 0 3.3 1.5 3.3 3.3M564.5 500.9c0 3.1-2.5 5.7-5.6 5.7a5.7 5.7 0 0 1-5.7-5.7c0-3.1 2.6-5.7 5.7-5.7 3 0 5.6 2.6 5.6 5.7M268.6 364.5c-.4 2.8-2.8 5-5.6 5a5.7 5.7 0 0 1-5.7-5c0-3.1 2.5-5.7 5.6-5.7 3.1 0 5.7 2.6 5.7 5.7M1429.3 340c0 3-2.6 5.6-5.7 5.6-3 0-5.5-2.5-5.6-5.6 0-3.1 2.5-5.7 5.6-5.7 3.1 0 5.7 2.6 5.7 5.7m-349.1 5.6c0 3.1-2.6 5.7-5.7 5.7-3 0-5.6-2.6-5.6-5.7a5.7 5.7 0 0 1 11.3 0m-751.3-49.3c0 3.1-2.6 5.7-5.7 5.7-3 0-5.6-2.6-5.6-5.7a5.7 5.7 0 0 1 11.3 0m1128.5 232.3c0 3-2.6 5.6-5.7 5.6-3 0-5.5-2.5-5.6-5.6 0-3.1 2.5-5.7 5.6-5.7 3.1 0 5.7 2.6 5.7 5.7M785.7 271.3c0 3-2.5 5.6-5.6 5.6-3 0-5.6-2.5-5.7-5.6 0-3.1 2.6-5.7 5.7-5.7 3 0 5.6 2.6 5.6 5.7m245.5 60.7c0 3-2.6 5.6-5.7 5.6-3 0-5.5-2.5-5.6-5.6 0-3.1 2.5-5.7 5.6-5.7 3.1 0 5.7 2.6 5.7 5.7m-100.5-2.4c0 3.1-2.5 5.7-5.6 5.7a5.7 5.7 0 0 1-5.7-5.7c0-3 2.6-5.6 5.7-5.6 3 0 5.6 2.5 5.6 5.6M986 496.9c0 3-2.6 5.6-5.7 5.6-3 0-5.6-2.5-5.7-5.6 0-3.1 2.6-5.7 5.7-5.7 3 0 5.6 2.6 5.6 5.7zM1528.8 608c0 3.1-2.6 5.7-5.7 5.7-3 0-5.6-2.6-5.6-5.7a5.7 5.7 0 0 1 11.3 0M306 550c0 3-2.6 5.6-5.7 5.6-3 0-5.5-2.5-5.6-5.6 0-3.1 2.5-5.7 5.6-5.7 3.1 0 5.7 2.6 5.7 5.7m45.7 68.5c0 3.1-2.6 5.7-5.7 5.7-3 0-5.6-2.6-5.6-5.7a5.7 5.7 0 0 1 11.3 0m-31.7-129c0 3.1-2.5 5.7-5.6 5.7a5.7 5.7 0 0 1-5.7-5.7c0-3 2.6-5.6 5.7-5.6s5.6 2.5 5.6 5.6m938.2-143.9c0 3.1-2.6 5.7-5.7 5.7a5.7 5.7 0 0 1-5.7-5.7c0-3 2.6-5.6 5.7-5.6s5.7 2.5 5.7 5.6m-404.6 9.8c0 3-2.6 5.6-5.7 5.6-3 0-5.5-2.5-5.6-5.6 0-3.1 2.5-5.7 5.6-5.7 3.1 0 5.7 2.6 5.7 5.7m16.6-94.6c0 3.1-2.6 5.7-5.7 5.7-3 0-5.6-2.6-5.6-5.7a5.7 5.7 0 0 1 11.3 0m-199.2 91c0 3.1-2.5 5.7-5.6 5.7a5.7 5.7 0 0 1-5.7-5.7 5.7 5.7 0 0 1 11.3 0m-99.4-96c0 3.1-2.5 5.7-5.6 5.7a5.7 5.7 0 0 1-5.7-5.7c0-3.1 2.6-5.7 5.7-5.7 3 0 5.6 2.6 5.6 5.7m-18.4 52.1c0 3.1-2.5 5.7-5.6 5.7a5.7 5.7 0 0 1-5.7-5.7 5.7 5.7 0 0 1 11.3 0M1131 420.2c0 5-4 9.1-9 9.1s-9-4-9-9 4-9.1 9-9.1 9 4 9 9M655.8 525.6a9 9 0 0 1-18.1 0c0-5 4-9 9-9s9 4 9 9zm782.7 81.3a9 9 0 0 1-18.1 0 9 9 0 0 1 18.1 0m-1235-331.1a9 9 0 0 1-18.1 0c0-5 4-9 9-9s9 4 9 9zm764.9 396.3a9 9 0 0 1-18.1 0c0-5 4-9 9-9s9 4 9 9zm577.2 2.6-3.1-.9.2-.6 3.7 1 4.4-2.3-4.2-2.6-3.8.8v-.6l3-.7-2.5-1.6.6-.9 2.4 1.5-.7-3 .7-.1.8 3.6 4.2 2.6V666l-2.8-2.7.5-.5 2.3 2.3v-2.8h1v2.7l2.2-2.2.5.5-2.7 2.7v5.1l4.4-2.3 1.1-3.8.7.2-1 3 2.5-1.2.5.9-2.4 1.3 3 .9-.2.7-3.7-1.2-4.3 2.3 4.3 2.7 3.6-.9.2.7-3 .7 2.2 1.4-.5 1-2.4-1.5.7 3.1-.6.2-.8-3.8-4.3-2.6v4.8l2.7 2.7-.5.5-2.2-2.2v2.8h-1v-2.9l-2.3 2.3-.5-.5 2.8-2.7v-5l-4.3 2.3v.1l-1.2 3.8-.6-.2 1-3.2-2.7 1.4-.5-.8zM496.2 394.1v.5c0 1.8-1.4 3.3-3.2 3.3a3.3 3.3 0 0 1-3.3-3.9c0-1.7 1.4-3.2 3.2-3.2 1.8 0 3.3 1.5 3.3 3.3m1019-88.5c0 5-4 9.1-9 9.1s-9-4-9-9 4-9.1 9-9.1 9 4 9 9m-722 215c0 5-4 9.1-9 9.1s-9-4-9-9 4-9.1 9-9.1 9 4 9 9m409 34c0 5-4.1 9.2-9.1 9.2s-9-4.1-9.1-9.1c0-5 4.1-9.1 9.1-9.1s9 4 9 9zm-780-47a9 9 0 0 1-18.1 0c0-5 4-9 9-9s9 4 9 9zM196 613c0 5-4 9-9 9s-9-4-9-9 4-9 9-9 9 4 9 8.9zm1015.2-350.4c0 3.1-2.6 5.7-5.7 5.7-3 0-5.6-2.6-5.6-5.7a5.7 5.7 0 0 1 11.3 0m124.6 351.7c0 3.1-2.6 5.7-5.7 5.7-3 0-5.6-2.6-5.6-5.7a5.7 5.7 0 0 1 11.3 0M593.5 399.9c0 3-2.5 5.6-5.6 5.6-3 0-5.6-2.5-5.7-5.6 0-3.1 2.6-5.7 5.7-5.7 3 0 5.6 2.6 5.6 5.7m37.1-72.5c0 1.8-1.5 3.2-3.3 3.2a3.3 3.3 0 0 1-3.3-3.2c0-1.8 1.5-3.3 3.3-3.3 1.8 0 3.3 1.5 3.3 3.3m410.6 160.9a3.3 3.3 0 0 1-3.2 2.7c-1.6 0-3-1.1-3.3-2.7 0-1.8 1.4-3.3 3.2-3.3 1.8 0 3.3 1.5 3.3 3.3M375.2 345c0 1.8-1.5 3.3-3.3 3.3a3.3 3.3 0 0 1-3.3-3.3 3.3 3.3 0 0 1 3.3-2.7c1.5 0 3 1.1 3.2 2.7zm631.9-46.8c0 1.8-1.5 3.3-3.3 3.3a3.3 3.3 0 0 1-3.2-3.3c0-1.8 1.4-3.2 3.2-3.2 1.8 0 3.3 1.4 3.3 3.2M404.3 579.9c0 1.8-1.5 3.2-3.3 3.2a3.3 3.3 0 0 1-3.3-3.2c0-1.8 1.5-3.3 3.3-3.3 1.8 0 3.3 1.5 3.3 3.3m-126.2-16.1c0 1.4-1 2.5-2.5 2.5a2.5 2.5 0 0 1-2.5-2.5c0-1.4 1.1-2.5 2.5-2.5s2.5 1.1 2.5 2.5m252.4-290c0 1.4-1.2 2.5-2.6 2.5a2.5 2.5 0 0 1-2.5-2.5c0-1.4 1.2-2.5 2.5-2.5 1.4 0 2.6 1.1 2.6 2.5M980 562.2c0 1.3-1 2.5-2.5 2.5a2.5 2.5 0 0 1-2.5-2.5c0-1.4 1.1-2.6 2.5-2.6s2.5 1.2 2.5 2.6m110.8-303.7c0 1.4-1 2.5-2.5 2.5a2.5 2.5 0 0 1-2.5-2.5c0-1.4 1.1-2.5 2.5-2.5s2.5 1.1 2.5 2.5M882.5 408c0 1.4-1 2.5-2.5 2.5a2.5 2.5 0 0 1-2.5-2.5c0-1.4 1.1-2.5 2.5-2.5s2.5 1.1 2.5 2.5m563.2 75.6c0 1.4-1 2.5-2.5 2.5a2.5 2.5 0 0 1-2.5-2.5c0-1.4 1.1-2.5 2.5-2.5s2.5 1.1 2.5 2.5M909 586.7c0 1.4-1.2 2.5-2.6 2.5a2.5 2.5 0 0 1-2.5-2.5c0-1.4 1.1-2.5 2.5-2.5s2.5 1.1 2.5 2.5zm472.5-1.3c0 1.3-1 2.5-2.5 2.5a2.5 2.5 0 0 1-2.5-2.5c0-1.4 1.1-2.5 2.5-2.5s2.5 1 2.5 2.5M512 465.7c0 1.4-1 2.5-2.5 2.5a2.5 2.5 0 0 1-2.5-2.5c0-1.4 1.1-2.5 2.5-2.5s2.5 1.1 2.5 2.5m285.1-89.8c0 1.4-1 2.5-2.5 2.5a2.5 2.5 0 0 1-2.5-2.5c0-1.4 1.1-2.5 2.5-2.5s2.5 1.1 2.5 2.5m335 115.1c0 1.4-1.3 2.5-2.7 2.5a2.5 2.5 0 0 1-2.5-2.5c0-1.4 1.2-2.5 2.5-2.5 1.4 0 2.6 1.1 2.6 2.5zm158.2-176c0 1.3-1 2.5-2.5 2.5a2.5 2.5 0 0 1-2.5-2.5c0-1.4 1.1-2.5 2.5-2.5s2.5 1 2.5 2.5M371 461c0 1.3-1.2 2.5-2.6 2.5a2.5 2.5 0 0 1-2.5-2.5c0-1.4 1.2-2.6 2.5-2.6 1.4 0 2.6 1.2 2.6 2.6m596-36.8c0 1.4-1.2 2.5-2.5 2.5a2.5 2.5 0 0 1-2.5-2.5c0-1.4 1-2.5 2.5-2.5 1.3 0 2.5 1.1 2.5 2.5M655.4 678.5c0-5 4-9 9-9s9 4 9 9-4 9-9 9-9-4-9-9"/>
<path fill="#fff" fill-opacity=".1" d="M655 420c0 1.8-1.5 3.3-3.3 3.3a3.3 3.3 0 0 1-3.3-3.2c0-1.8 1.5-3.3 3.3-3.3 1.8 0 3.3 1.5 3.3 3.3m764.9-97.4a9 9 0 1 1-3.3-4.6h.3c1.8 0 3.2 1.5 3.2 3.3 0 .4 0 .9-.2 1.3m-2.3 89.7c0-1.3 1.2-2.5 2.5-2.5 1.4 0 2.6 1.2 2.6 2.5 0 1.4-1.2 2.6-2.6 2.6a2.5 2.5 0 0 1-2.5-2.6m-41.8-32c0-1.8 1.4-3.3 3.2-3.3 1.8 0 3.3 1.5 3.3 3.3 0 1.8-1.5 3.3-3.3 3.3a3.3 3.3 0 0 1-3.2-3.3m-13.6 75.7c0-3 2.6-5.6 5.7-5.6a5.7 5.7 0 0 1 0 11.3 5.7 5.7 0 0 1-5.7-5.7m99.6 9.1a9 9 0 0 1 18.1 0c0 5-4 9-9 9s-9-4-9-9zm-191.2-57.8c0-1.4 1.1-2.5 2.5-2.5s2.5 1 2.5 2.5c0 1.3-1.1 2.5-2.5 2.5a2.5 2.5 0 0 1-2.5-2.5m-4-91.1c0-1.8 1.5-3.3 3.2-3.3 1.8 0 3.3 1.5 3.3 3.3 0 1.8-1.5 3.3-3.3 3.3a3.3 3.3 0 0 1-3.2-3.3m-37.9 59c0-1.8 1.5-3.2 3.3-3.2 1.8 0 3.3 1.4 3.3 3.2 0 1.8-1.5 3.3-3.3 3.3a3.3 3.3 0 0 1-3.3-3.3m-13.5 75.8c0-3.1 2.5-5.7 5.6-5.7 3.1 0 5.7 2.6 5.7 5.7 0 3-2.6 5.6-5.7 5.6-3 0-5.5-2.5-5.6-5.6M1347.4 348c0 1.4-1.2 2.5-2.6 2.5a2.5 2.5 0 0 1-2.5-2.5c0-1.4 1.1-2.5 2.5-2.5s2.5 1.1 2.5 2.5zm5 91c0 1.8-1.5 3.3-3.3 3.3a3.3 3.3 0 0 1-3.3-3.3c0-1.8 1.5-3.3 3.3-3.3 1.8 0 3.3 1.5 3.3 3.3m37.2-59.5c0 1.8-1.5 3.3-3.3 3.3a3.3 3.3 0 0 1-3.2-3.2c0-1.8 1.5-3.3 3.3-3.3 1.7 0 3.2 1.4 3.2 3.2m12.7-75.9v.1c0 3.1-2.6 5.7-5.7 5.7-3 0-5.6-2.6-5.6-5.7 0-3 2.5-5.6 5.6-5.7 3 0 5.6 2.5 5.7 5.6m-99.7-7.9v.1a9 9 0 0 1-18.1 0c0-5 4-9 8.9-9 5-.1 9 4 9.1 8.9zm191.8 55.7c0 1.4-1 2.5-2.5 2.5a2.5 2.5 0 0 1-2.5-2.5c0-1.4 1.1-2.5 2.5-2.5s2.5 1 2.5 2.5m5.1 91c0 1.8-1.5 3.3-3.3 3.3a3.3 3.3 0 0 1-3.3-3.3c0-1.8 1.5-3.3 3.3-3.3 1.8 0 3.3 1.5 3.3 3.3m37.2-59.5c0 1.8-1.5 3.3-3.3 3.3a3.3 3.3 0 0 1-3.3-3.3c0-1.8 1.5-3.3 3.3-3.3 1.8 0 3.3 1.5 3.3 3.3m12.7-75.8c0 3-2.6 5.6-5.7 5.6-3 0-5.6-2.5-5.7-5.6 0-3 2.6-5.6 5.6-5.7 3.1 0 5.7 2.5 5.7 5.6zm-99.8-8v.1a9 9 0 0 1-18.1 0c0-5 4-9 9-9 5-.1 9 4 9.1 8.9M367.4 472.3a9 9 0 0 1-8 12.3h-.4c-5 0-9-4-9.1-9a9 9 0 0 1 7.8-9c.8-2 2.9-3.4 5.2-3.4a5.7 5.7 0 0 1 4.5 9.1M504 324c0 1.3-1.2 2.4-2.6 2.4a2.5 2.5 0 0 1-2.5-2.5c0-1.4 1.1-2.5 2.5-2.5s2.5 1.1 2.5 2.5zm4 91a3.3 3.3 0 0 1-3.2 2.7c-1.6 0-3-1.2-3.3-2.8 0-1.8 1.4-3.2 3.2-3.2 1.7 0 3.2 1.5 3.2 3.3zm37.8-59c0 1.8-1.5 3.2-3.3 3.2a3.3 3.3 0 0 1-3.3-3.2c0-1.8 1.5-3.3 3.3-3.3 1.8 0 3.3 1.5 3.3 3.3m13.5-75.8c0 3.1-2.5 5.7-5.6 5.7a5.7 5.7 0 0 1-5.7-5.7c0-3 2.6-5.6 5.7-5.6 3 0 5.6 2.5 5.6 5.6M651 329c0 1.4-1.2 2.5-2.6 2.5a2.5 2.5 0 0 1-2.5-2.5c0-1.4 1.1-2.5 2.5-2.5s2.5 1.1 2.5 2.5zm41.8 32c0 1.8-1.5 3.3-3.3 3.3a3.3 3.3 0 0 1-3.2-3.3c0-1.8 1.4-3.2 3.2-3.2 1.8 0 3.3 1.4 3.3 3.2m13.5-75.7c0 3.1-2.5 5.7-5.6 5.7a5.7 5.7 0 0 1-5.7-5.7c.4-2.8 2.8-5 5.6-5 2.9 0 5.3 2.2 5.7 5m-99.6-9.1a9 9 0 1 1-18.1.1 9 9 0 0 1 18.1-.1m-32.5 112.2c0-1.4 1.1-2.5 2.5-2.5s2.5 1.1 2.5 2.5-1.1 2.5-2.5 2.5a2.5 2.5 0 0 1-2.5-2.5m-5.1-91c0-1.8 1.5-3.3 3.3-3.3 1.6.3 2.7 1.7 2.7 3.3 0 1.5-1.1 3-2.7 3.2a3.3 3.3 0 0 1-3.3-3.2M532 356.8c0-1.8 1.4-3.3 3.2-3.3 1.8 0 3.3 1.5 3.3 3.3 0 1.8-1.5 3.3-3.2 3.3a3.3 3.3 0 0 1-3.3-3.3m-12.7 75.9c0-3.1 2.5-5.7 5.6-5.7 3.1 0 5.7 2.6 5.7 5.7 0 3-2.5 5.6-5.6 5.6-3 0-5.6-2.5-5.7-5.6m99.7 8a9 9 0 1 1 18.1-.1 9 9 0 0 1-18.1.1M427.1 385c0-1.4 1.1-2.5 2.5-2.5s2.5 1.1 2.5 2.5c0 1.3-1 2.5-2.5 2.5a2.5 2.5 0 0 1-2.5-2.5m-5.1-91c0-1.8 1.5-3.3 3.3-3.3 1.6.3 2.7 1.7 2.7 3.3 0 1.5-1.1 3-2.7 3.2a3.3 3.3 0 0 1-3.3-3.2m-37.1 59.5c0-1.9 1.4-3.4 3.2-3.4 1.8 0 3.3 1.5 3.3 3.3 0 1.8-1.4 3.3-3.2 3.3a3.3 3.3 0 0 1-3.3-3.2m-12.7 75.8c0-3.1 2.5-5.7 5.6-5.7 3.1 0 5.7 2.6 5.7 5.7a5.7 5.7 0 0 1-11.3 0m99.7 8c0-5 4-9 9-9s9 4 9 9c0 4.9-4 9-8.9 9s-9-4-9.1-9m-227.4 19.1c1.4 0 2.5 1.1 2.5 2.5s-1 2.5-2.5 2.5c-1.3 0-2.4-1-2.5-2.4 0-1.4 1.1-2.6 2.4-2.6zm90.8-7c1.8 0 3.3 1.5 3.3 3.2a3.3 3.3 0 0 1-6.5.1c0-1.8 1.4-3.3 3.1-3.3zM275 413.5c1.9 0 3.4 1.5 3.4 3.3 0 1.8-1.5 3.2-3.3 3.2a3.3 3.3 0 0 1-3.3-3.1c0-1.8 1.4-3.3 3.2-3.4m-76.2-11h.2c3.1 0 5.7 2.5 5.7 5.6 0 3.1-2.6 5.7-5.7 5.7-2.9-.3-5-2.8-5-5.7 0-2.8 2-5.2 4.8-5.6m45.8-93.2c1.4 0 2.6 1.1 2.6 2.5s-1.2 2.5-2.6 2.5c-1.3 0-2.4-1-2.5-2.4 0-1.4 1-2.6 2.5-2.6m90.8-7c1.8 0 3.3 1.4 3.3 3.2a3.3 3.3 0 0 1-6.5.1c0-1.8 1.4-3.3 3.1-3.3m-60.2-35.9c1.8 0 3.3 1.5 3.3 3.2a3.3 3.3 0 0 1-6.5.1c0-1.8 1.4-3.3 3.1-3.3m-76.1-11.1c3.1 0 5.7 2.6 5.7 5.7-.4 2.8-2.8 5-5.6 5a5.7 5.7 0 0 1-5.7-5c0-3 2.4-5.6 5.5-5.7zm-5.9 99.9h.3a9 9 0 0 1 0 18.1c-5 0-9-4-9-9 0-4.9 3.8-9 8.7-9zM306.7 384a2.5 2.5 0 0 1-2.5-2.5c0-1.4 1.2-2.5 2.6-2.5 1.4 0 2.5 1.1 2.5 2.5s-1.1 2.5-2.4 2.5zm-90.6 8-.2.1a3.3 3.3 0 0 1-3.2-3.3c0-1.8 1.4-3.2 3.2-3.2 1.8 0 3.2 1.4 3.3 3 0 1.9-1.3 3.4-3.1 3.5zm60.6 35.3a3.3 3.3 0 0 1-3.3-3.3c0-1.8 1.5-3.2 3.3-3.2 1.7 0 3.2 1.3 3.2 3v.2c0 1.8-1.3 3.2-3 3.3zm76.4 10.2h-.3c-3 0-5.6-2.6-5.6-5.7 0-3 2.5-5.6 5.6-5.6 3 0 5.5 2.4 5.7 5.4.1 3-2.3 5.7-5.4 5.9m4.6-100h-.4c-5 0-9-4-9-9s4-9 9-9 9 4 9 9a9 9 0 0 1-8.6 9m-49.2 193.7a2.5 2.5 0 0 1-2.5-2.6c0-1.3 1.1-2.5 2.5-2.5s2.5 1.1 2.5 2.5-1 2.5-2.4 2.6m-90.8 8a3.3 3.3 0 0 1-3.3-3.3 3.3 3.3 0 0 1 6.5-.1v.2c0 1.7-1.3 3.1-3 3.2zm60.8 35.2h-.2a3.3 3.3 0 0 1-3.2-3.3c0-1.8 1.4-3.2 3.2-3.2 1.8 0 3.2 1.4 3.3 3 0 1.9-1.3 3.4-3.1 3.5m76.2 10.2h-.2a5.7 5.7 0 0 1-5.7-5.7 5.7 5.7 0 0 1 5.7-5.1c2.8 0 5.2 2 5.6 4.8v.3c0 3-2.4 5.5-5.4 5.7m-41.6-72c0 1.4-1.1 2.5-2.5 2.5a2.5 2.5 0 0 1-2.5-2.5c0-1.4 1.1-2.5 2.5-2.5s2.5 1.1 2.5 2.5m4 91c0 1.8-1.5 3.3-3.2 3.3a3.3 3.3 0 0 1-3.3-3.3 3.3 3.3 0 0 1 3.3-2.7c1.5 0 3 1.1 3.2 2.7m37.9-59c0 1.8-1.5 3.3-3.3 3.3a3.3 3.3 0 0 1-3.3-3.3c0-1.8 1.5-3.2 3.3-3.2 1.8 0 3.3 1.4 3.3 3.2M269 459.8c0 5-4.1 9.1-9 9.1-5 0-9-4-9-9s4-9 9-9c4.9 0 9 4 9 8.9m191.2 57.9c0 1.3-1 2.5-2.5 2.5a2.5 2.5 0 0 1-2.5-2.5c0-1.4 1.1-2.6 2.5-2.6s2.5 1.2 2.5 2.6m4.1 91c0 1.8-1.5 3.3-3.3 3.3a3.3 3.3 0 0 1-3.3-3.3c0-1.8 1.5-3.2 3.3-3.2 1.8 0 3.3 1.4 3.3 3.2m37.8-59c0 1.8-1.5 3.3-3.3 3.3a3.3 3.3 0 0 1-3.2-3.3c0-1.8 1.4-3.3 3.2-3.3 1.8 0 3.3 1.5 3.3 3.3m13.6-75.7c0 3-2.6 5.6-5.7 5.6-3 0-5.6-2.5-5.7-5.6 0-3.1 2.6-5.7 5.7-5.7s5.7 2.6 5.7 5.7m23.9 203.4c0 3.1-2.5 5.7-5.6 5.7a5.7 5.7 0 0 1-5.7-5.7c0-3 2.6-5.6 5.7-5.6 3 0 5.6 2.5 5.6 5.6M383.4 577c0-1.3 1.1-2.5 2.5-2.5s2.5 1.2 2.5 2.5c0 1.4-1.1 2.5-2.5 2.6a2.5 2.5 0 0 1-2.5-2.5zm-5.1-91c0-1.8 1.5-3.2 3.3-3.2 1.8 0 3.3 1.4 3.3 3.2 0 1.8-1.5 3.3-3.3 3.3a3.3 3.3 0 0 1-3.3-3.2zm-37.1 59.5c0-1.8 1.4-3.3 3.2-3.3 1.8 0 3.3 1.5 3.3 3.3 0 1.7-1.5 3.2-3.2 3.2a3.3 3.3 0 0 1-3.3-3.2m-12.7 75.9c0-3.2 2.5-5.7 5.6-5.7 3.1 0 5.7 2.5 5.7 5.6 0 3.1-2.5 5.6-5.6 5.7-3 0-5.6-2.5-5.7-5.6m99.7 7.9a9 9 0 1 1 18.1-.1c0 5-4 9-9 9h-.1a9 9 0 0 1-9-8.9m-191.9-55.6c0-1.4 1.1-2.6 2.5-2.6s2.5 1.2 2.5 2.5c0 1.4-1 2.5-2.5 2.6a2.5 2.5 0 0 1-2.5-2.5m-5.1-91v-.6c0-1.8 1.4-3.3 3.2-3.3a3.3 3.3 0 0 1 3.3 3.9c0 1.7-1.4 3.2-3.2 3.2a3.3 3.3 0 0 1-3.3-3.2M194 542.1c0-1.8 1.6-3.3 3.3-3.3 1.6.3 2.7 1.7 2.7 3.3 0 1.5-1.1 3-2.7 3.2a3.3 3.3 0 0 1-3.2-3.2zM181.4 618c0-3.2 2.5-5.7 5.6-5.7 3.1 0 5.7 2.5 5.7 5.6 0 3.1-2.5 5.6-5.6 5.7-3 0-5.6-2.5-5.7-5.6m99.7 8v-.2a9 9 0 0 1 18.1 0c0 5-4 9-9 9-4.9.2-9-3.9-9-8.9zM1244 408.2a2.5 2.5 0 0 1-2.5-2.5c0-1.4 1.2-2.5 2.5-2.5 1.4 0 2.6 1 2.6 2.5 0 1.3-1.2 2.5-2.5 2.5zm-91 4.4a3.3 3.3 0 0 1-3.3-3.2 3.3 3.3 0 0 1 3.3-2.7c1.5 0 3 1.1 3.2 2.7 0 1.8-1.4 3.2-3.2 3.2m59.2 37.6a3.3 3.3 0 0 1-3.2-3.3c0-1.8 1.4-3.2 3.2-3.2 1.8 0 3.3 1.4 3.3 3.2 0 1.8-1.5 3.3-3.3 3.3m75.8 13.2c-3 0-5.6-2.6-5.6-5.7 0-3 2.5-5.6 5.6-5.6 3 0 5.6 2.5 5.7 5.6 0 3.1-2.6 5.7-5.7 5.7m8.6-99.7a9 9 0 1 1-.1-18.1 9 9 0 0 1 .1 18.1m-56.9 191.5a2.5 2.5 0 0 1-2.5-2.5c0-1.4 1.1-2.5 2.5-2.5s2.5 1.1 2.5 2.5-1 2.5-2.5 2.5m-91 4.5a3.3 3.3 0 0 1-3.3-3.3c0-1.8 1.5-3.2 3.3-3.2 1.8 0 3.2 1.4 3.2 3.2 0 1.8-1.4 3.3-3.2 3.3m59.2 37.6a3.3 3.3 0 0 1-3.3-3.3c0-1.8 1.5-3.3 3.3-3.3 1.8 0 3.2 1.5 3.2 3.3 0 1.8-1.4 3.2-3.2 3.2zm75.8 13.1c-3 0-5.6-2.5-5.7-5.6 0-3.1 2.6-5.7 5.7-5.7 3 0 5.6 2.6 5.6 5.6 0 3.2-2.5 5.7-5.6 5.7m6.1 70.8c-3 0-5.6-2.5-5.7-5.6 0-3.1 2.6-5.7 5.7-5.7 3 0 5.6 2.6 5.6 5.7 0 3-2.5 5.6-5.6 5.6m2.5-170.4c-5 0-9.1-4.1-9.1-9.1s4-9 9-9 9 4 9 9-4 9-9 9zm-112.3-32c1.3 0 2.5 1.1 2.5 2.5s-1.2 2.5-2.5 2.5a2.5 2.5 0 0 1-2.5-2.5c0-1.4 1-2.5 2.4-2.5zm91-5.5c1.8 0 3.2 1.4 3.2 3.2 0 1.8-1.4 3.3-3.2 3.3a3.3 3.3 0 0 1-3.3-3.2c0-1.8 1.4-3.3 3.2-3.3zm-59.7-36.9c1.8 0 3.3 1.5 3.3 3.3a3.3 3.3 0 0 1-3.3 2.7c-1.5 0-3-1.1-3.2-2.7 0-1.8 1.4-3.3 3.2-3.3m-76-12.4c3.1 0 5.7 2.6 5.7 5.7s-2.6 5.7-5.7 5.7a5.7 5.7 0 0 1-.1-11.3zm-7.4 99.8c5 0 9.1 4.1 9.1 9.1s-4 9-9 9-9-4-9.1-9c0-5 4-9 9-9zm54.6-192.1c1.4 0 2.5 1.1 2.5 2.5s-1 2.5-2.5 2.5a2.5 2.5 0 0 1-2.5-2.5c0-1.4 1.1-2.5 2.5-2.5m91-5.5c1.8 0 3.3 1.4 3.3 3.2 0 1.8-1.5 3.3-3.3 3.3a3.3 3.3 0 0 1-3.2-3.2c0-1.8 1.4-3.3 3.2-3.3m-59.6-36.9c1.8 0 3.3 1.5 3.3 3.3a3.3 3.3 0 0 1-3.3 2.7c-1.5 0-3-1.1-3.2-2.7 0-1.8 1.4-3.3 3.1-3.3zM1138 277c3.2 0 5.7 2.5 5.7 5.6 0 3.1-2.5 5.7-5.6 5.7-3 0-5.6-2.5-5.7-5.6 0-3 2.5-5.7 5.6-5.7M964 413.4a2.5 2.5 0 0 1 1.9-4.2c1.4 0 2.5 1.2 2.5 2.6a2.5 2.5 0 0 1-4.4 1.6m-62.8-66.1a3.3 3.3 0 1 1 4-5.2 3.3 3.3 0 0 1-4 5.2m10.2 69.4a3.3 3.3 0 1 1 4-5.2 3.3 3.3 0 0 1-4 5.2m39.4 66a5.7 5.7 0 1 1 7.5-8.6 5.7 5.7 0 0 1-7.5 8.6m81.2-58.5a9 9 0 1 1 16-5.9c0 5-4.1 9.2-9.1 9.2a9.1 9.1 0 0 1-6.9-3.2zM849.7 506a2.5 2.5 0 1 1 3.8-3.3 2.5 2.5 0 0 1-3.8 3.3M787 440a3.3 3.3 0 1 1 4.9-4.3 3.3 3.3 0 0 1-5 4.3zm10.1 69.3a3.3 3.3 0 1 1 4.4-5 3.3 3.3 0 0 1-4.4 5m39.5 66.1a5.7 5.7 0 1 1 7.4-8.7 5.7 5.7 0 0 1-7.4 8.7m81.1-58.5a9.1 9.1 0 1 1 13.7-12 9.1 9.1 0 0 1-13.7 12m-49-106a2.5 2.5 0 1 1-3.8 3.3 2.5 2.5 0 0 1 3.8-3.3m63.5 65.3a3.3 3.3 0 1 1-3.5 5.6 3.3 3.3 0 0 1 3.5-5.6m-11-69.2a3.3 3.3 0 1 1-4.9 4.3 3.3 3.3 0 0 1 5-4.3zM881 341.4a5.7 5.7 0 1 1-6.6 9.3 5.7 5.7 0 0 1 6.6-9.3M981.9 317a2.5 2.5 0 0 1-3.8 3.3 2.6 2.6 0 1 1 3.8-3.4zm63.5 65.3a3.3 3.3 0 1 1-3.5 5.6 3.3 3.3 0 0 1 3.5-5.6m-11-69.3a3.3 3.3 0 1 1-2.7 6 3.3 3.3 0 0 1 2.7-6m-40.2-65.6a5.7 5.7 0 1 1-6.6 9.3 5.7 5.7 0 0 1 6.6-9.3m-80.4 59.5a9 9 0 1 1-13.6 12 9 9 0 0 1 13.6-12m554.5 119a2.5 2.5 0 1 1 3.8-3.3 2.5 2.5 0 0 1-3.8 3.3m-62.8-66.1a3.3 3.3 0 1 1 4-5.2 3.3 3.3 0 0 1-4 5.2m10.2 69.3a3.3 3.3 0 1 1 4.9-4.2 3.3 3.3 0 0 1-5 4.2zm39.4 66.1a5.7 5.7 0 1 1 7.5-8.6 5.7 5.7 0 0 1-7.5 8.6m81.2-58.5a9 9 0 1 1 6.8 3.1 9.1 9.1 0 0 1-6.9-3.1zM1354 518.5a2.5 2.5 0 1 1 3.8-3.3 2.5 2.5 0 0 1-3.8 3.3m-62.8-66.1a3.3 3.3 0 1 1 4-5.2 3.3 3.3 0 0 1-4 5.2m10.2 69.4a3.3 3.3 0 1 1 4.9-4.3 3.3 3.3 0 0 1-5 4.3zm39.4 66a5.7 5.7 0 1 1 7.5-8.6 5.7 5.7 0 0 1-7.5 8.6m81.2-58.5a9 9 0 1 1 16-5.9c0 5-4.1 9.2-9.1 9.2a9.1 9.1 0 0 1-6.9-3.2zm-49-106a2.5 2.5 0 0 1-3.8 3.3 2.5 2.5 0 0 1 3.7-3.3zm63.5 65.4a3.3 3.3 0 1 1-4 5.2 3.3 3.3 0 0 1 4-5.2m-11-69.3a3.3 3.3 0 1 1-3.5 5.6 3.3 3.3 0 0 1 3.5-5.6m-40.2-65.6a5.7 5.7 0 1 1-7.5 8.6 5.7 5.7 0 0 1 7.5-8.6m100.9-24.4a2.5 2.5 0 1 1-3.8 3.3 2.5 2.5 0 0 1 3.8-3.3m63.5 65.3a3.3 3.3 0 1 1-3.5 5.6 3.3 3.3 0 0 1 3.5-5.6m-11-69.2a3.4 3.4 0 1 1-4 5.4 3.4 3.4 0 0 1 4-5.4m-40.2-65.6a5.7 5.7 0 1 1-6.6 9.3 5.7 5.7 0 0 1 6.6-9.3"/>
<path fill="#fff" fill-opacity=".6" d="M794.3 532.7c.5-4 3.6-3.3 5.4-2 1.8 1.3 9 1.5 9 1.5s6.8 0 9.3-1.8l.2-1.3c-.4-.7-1.5-1.6-4-2-2.8-.3-3.7-.4-4-.2l-.3.3a1 1 0 0 1-.5.3l-.6.1c-.8 0-1.6-.7-1.6-1.6 0-.9.8-1.6 1.6-1.6.5 0 1 .2 1.3.6l.3.3c.4.7 4 1.1 4 1.1s3.8.4 4.7-.6l1-3a14.8 14.8 0 0 0-5.4-3.7c-7.5-3.1-7-3-8.4-2.3-2.2 1.2-5.3 0-3.6-3.3 1.8-3.4 4.2-1.8 5.4 0 3.9 3.2 8.6 5.3 13.6 6 .9-1.8 2-3.5 3.1-5.1-.1-.8-.7-2-2.8-3.5-2.4-1.5-3.2-2-3.5-2l-.5.3a1 1 0 0 1-.6 0c-.8 0-1.5-.8-1.5-1.6 0-1 .7-1.7 1.6-1.7.8 0 1.5.6 1.7 1.4v.3c.1.9 3.3 2.8 3.3 2.8s3.2 2 4.5 1.3a38 38 0 0 1 7.8-6.6c.5-1.7.6-4.6-1.8-9.2-4-7.7-3.6-7.2-5.3-7.6-2.6-.5-4.3-3.6-.6-5.1 3.7-1.6 4.6 1.4 4.3 3.6 1.2 6 4.2 11.4 8.7 15.5 1.2-.6 2.5-1 3.7-1.4a6 6 0 0 0-.6-2.3c-1-2.5-1.4-3.2-1.7-3.4l-.5-.1a.9.9 0 0 1-.4-.3 1.5 1.5 0 0 1 1-2.7 1.5 1.5 0 0 1 1.3 2.2v.3c-.5.7 1 3.8 1 3.8.3.7.7 1.5 1.2 2.1 1.8-.5 3.7-.8 5.6-1 1-1.5 2-4 2-8.4-.3-8.7-.2-8.1-1.5-9.2-2-1.6-2.3-5.1 1.7-4.9 4 .2 3.5 3.3 2.3 5.2-1.2 1.9-1 9.2-1 9.2s.3 5 1.7 7.8l2.3.2c.5-.1 2-.7 2.9-4 .6-2.8.7-3.7.6-4l-.3-.4a1 1 0 0 1-.3-.5v-.5c0-.9.7-1.6 1.6-1.6 1 0 1.7.7 1.7 1.6 0 .6-.3 1.2-.9 1.5l-.2.2c-.8.3-1.5 4-1.5 4s-.6 2.8 0 4.2c2.5.4 5 1.2 7.4 2.2 1-1.3 1.8-2.6 2.5-4 3.4-7.5 3.3-7 2.6-8.4-1-2.3.2-5.3 3.5-3.5 1.2.7 1.7 1.5 1.8 2.3a.8.8 0 1 0 0 1c-.4.8-1.1 1.6-2 2-3 3.3-5 7.3-6 11.6l2 1.1c.5-.5.9-1.2 1.2-2 1.2-2.3 1.5-3 1.4-3.4l-.2-.4-.1-.5c0-1 .7-1.6 1.5-1.6s1.5.7 1.5 1.5c0 .7-.4 1.3-1 1.5h-.3c-.8.3-2.2 3.4-2.2 3.4l-.8 2.2a34 34 0 0 1 6 4.6c1.8 0 4.6-.8 8.1-4.3 6.3-6.1 6.2-6.4 5.8-7.3-.6-1.3 1-4.1 3.5-1 2.6 3 .9 4.3-1 4.1-1.8-.2-7.3 5.6-7.3 5.6s-4.3 4.4-5 7.5l.9 1.2c.8 0 2.1-.1 4-1.6 2.2-1.8 2.9-2.4 3-2.7v-1.1c.1-.8.8-1.3 1.6-1.3a1.6 1.6 0 0 1 1.6 1.9 1.7 1.7 0 0 1-1.8 1.7h-.4c-.8-.3-3.6 2.2-3.6 2.2s-2.6 2.1-2.7 3.5c2.2 3.9 3.7 8.1 4.4 12.5 1.6.1 3.1 0 4.6-.2 8.1-1.3 7.6-1 8.4-2.4 1.3-2.2 4.6-2.9 4.8.9.3 3.8-2.6 3.7-4.5 2.8-4.3-.5-8.8 0-12.9 1.4.3 3.4.2 6.9-.4 10.3l1.2.4c2.5.8 3.3 1 3.6.8l.4-.3.5-.2h.3c.8 0 1.5.7 1.5 1.5 0 .9-.7 1.6-1.5 1.6-.6 0-1.1-.4-1.4-.9l-.1-.3c-.3-.7-3.6-1.6-3.6-1.6l-1-.2a37 37 0 0 1-2.2 7 17 17 0 0 0 5 3c8 3.4 7.5 3.3 9 2.5 2.3-1.2 5.6 0 3.8 3.6-2 3.5-4.5 1.8-5.7 0-1.3-1.9-8-4.7-8-4.7a33 33 0 0 0-5.4-1.6c-.7 1.3-1.4 2.5-2.2 3.6 0 .7 0 2.2 2.3 4.2 2.1 1.9 2.8 2.4 3.2 2.5l.5-.2h.5c.8 0 1.5.8 1.5 1.6a1.7 1.7 0 0 1-1.8 1.7c-1 0-1.6-.7-1.7-1.6v-.3c0-.9-2.8-3.2-2.8-3.2s-2.2-1.8-3.6-2c-1.5 1.7-3 3.4-4.8 4.9a6 6 0 0 0 1.6 3.3c1.8 2.2 2.3 2.9 2.7 3h1c.8.1 1.3.8 1.3 1.6a1.6 1.6 0 0 1-1.9 1.6 1.7 1.7 0 0 1-1.6-1.9v-.3c.2-.8-2.2-3.6-2.2-3.6a10 10 0 0 0-2.6-2.4 37 37 0 0 1-2.3 1.7l1.6 2.9c4.5 6.8 4.2 6.4 5.7 6.6 2.5.3 4.5 3 1.2 4.8-3.4 1.8-4.5-1-4.5-3s-3.8-7.8-3.8-7.8l-2-2.5a37 37 0 0 1-4.7 2.4c-.5.4-1.3 1.8-.6 4.7.7 2.8 1 3.6 1.3 3.9l.5.1.4.4a1.6 1.6 0 1 1-2.6.2l.2-.3c.5-.7-.5-4.2-.5-4.2s-.8-2.8-1.8-3.8l-3.7 1c-.4 2.2-.3 4.4.2 6.6 1.9 8.5 1.6 8 3 8.8 2.5 1.2 3.4 4.6-.6 5.2-4 .5-4-2.6-3.3-4.7.8-2-.7-9.2-.7-9.2-.6-2.2-1.3-4.3-2.3-6.3-3 .3-6 .2-8.9-.2-.6.5-1.4 1.6-1.6 4-.2 2.9-.2 3.8 0 4l.4.4.3.5.1.6c0 1-.7 1.7-1.6 1.7-.9 0-1.6-.8-1.6-1.7 0-.5.2-1 .6-1.3l.2-.2c.7-.4.9-4.1.9-4.1s.2-3.5-.8-4.5l-2.3-.6c-.7 1.2-1.3 2.6-1.7 4-2.3 7.8-2 8-1.4 8.6 1.2.8 1.1 3.8-2.4 2.5-3.5-1.4-2.7-3.2-1-3.9 1.5-.6 3.4-7.9 3.4-7.9.4-1.4.6-2.7.8-4.1l-3.5-1.6c-.6 0-2.2.1-4 2.8-1.6 2.4-2 3.1-2 3.5l.1.4v.6c0 .8-.7 1.5-1.6 1.5-.9 0-1.6-.8-1.6-1.7 0-.8.6-1.5 1.4-1.6h.3c.8-.1 2.8-3.2 2.8-3.2s1.6-2.5 1.6-4c-2.6-1.5-5-3.4-7-5.6-2.2.8-4.2 2.2-5.8 3.9-6.3 6.1-6.2 6.4-5.8 7.3.6 1.3-1 4.1-3.5 1-2.6-3-.9-4.3 1-4.1 1.8.2 7.3-5.6 7.3-5.6 1.6-1.6 3-3.5 4.2-5.5l-.2-.2c-.3-.2-1.9-1-4.9.7-2.4 1.5-3.2 2-3.3 2.3v.5c0 .2-.2.3-.3.5a1.6 1.6 0 0 1-3-.9 1.7 1.7 0 0 1 2.1-1.5h.3c.8.4 4-1.6 4-1.6s2.5-1.5 3-2.9c-1.6-2.6-3-5.5-4-8.5l-1 .4c-2.6.9-3.3 1.2-3.5 1.4 0 .2 0 .4-.2.5 0 .2 0 .3-.2.4a1.5 1.5 0 0 1-2.7-1 1.5 1.5 0 0 1 2.2-1.3l.3.1c.7.4 3.9-.8 3.9-.8l1-.5a35 35 0 0 1-1.5-10.2c-1-1.3-3.6-3-9-3.3-8.8-.3-8.2-.4-9.3.9-1.8 2-5.3 2-4.9-2M887 529c.7 0 1.2-.5 1.2-1.2 0-.6-.5-1.1-1.2-1.1-.6 0-1.1.5-1.1 1.1 0 .7.5 1.2 1.1 1.2m-51-15.3c-.6 0-1.1.6-1.1 1.2 0 .7.5 1.2 1.1 1.2.7 0 1.2-.5 1.2-1.2 0-.6-.5-1.2-1.2-1.2m.5 5.4c-2 0-3.8 1.7-3.8 3.8 0 2 1.7 3.8 3.8 3.8 2 0 3.8-1.7 3.8-3.8 0-2-1.7-3.8-3.8-3.8m32.7-11c-.7 0-1.2.5-1.2 1.2 0 .6.5 1.1 1.2 1.1.6 0 1.2-.5 1.2-1.1 0-.7-.6-1.2-1.2-1.2m1.2 21.4c-.7 0-1.2.5-1.2 1.2 0 .6.5 1.1 1.2 1.1.6 0 1.1-.5 1.1-1.1 0-.7-.5-1.2-1.1-1.2m11.5 24.2c.6 0 1.2-.5 1.2-1.2 0-.6-.6-1.1-1.2-1.1-.7 0-1.2.5-1.2 1.1 0 .7.5 1.2 1.2 1.2m0-12.2c1.8 0 3.3-1.5 3.3-3.3 0-1.8-1.5-3.3-3.3-3.3a3.3 3.3 0 0 0-3.3 3.3c0 1.8 1.5 3.3 3.3 3.3m0-21a5 5 0 0 0-5-4.9 5 5 0 0 0-4.9 5 5 5 0 0 0 5 4.9 5 5 0 0 0 4.9-5M867 563.9c4.7 0 8.7-4 8.7-8.7 0-4.8-4-8.7-8.7-8.7-4.8 0-8.7 4-8.7 8.7 0 4.8 4 8.7 8.7 8.7m-7.7 4.1c.7 0 1.2-.5 1.2-1.1 0-.7-.5-1.2-1.2-1.2-.6 0-1.1.5-1.1 1.2 0 .6.5 1.1 1.1 1.1m-1.5-21.5c.6 0 1.2-.5 1.2-1.2 0-.6-.6-1.1-1.2-1.1s-1.2.5-1.2 1.1c0 .7.6 1.2 1.2 1.2m1.6-6.8c2.6 0 4.7-2.1 4.7-4.7s-2-4.7-4.7-4.7a4.7 4.7 0 0 0-4.7 4.7c0 2.6 2.2 4.7 4.7 4.7m-6-5c.7 0 1.2-.6 1.2-1.3 0-.6-.5-1.1-1.1-1.1-.7 0-1.2.5-1.2 1.1 0 .7.5 1.2 1.2 1.2m1-16.8c3.6 0 6.6-3 6.6-6.6 0-3.6-3-6.5-6.6-6.5-3.6 0-6.6 3-6.6 6.6 0 3.6 3 6.5 6.6 6.5m-4.7 7.8c0-.7-.5-1.2-1.2-1.2-.6 0-1.1.5-1.1 1.2 0 .6.5 1.2 1.1 1.2.7 0 1.2-.6 1.2-1.2m-4.5 38.3a4 4 0 0 0 4-4 4 4 0 0 0-4-4 4 4 0 0 0-4 4 4 4 0 0 0 4 4m-9.4-15.7c3.6 0 6.6-3 6.6-6.6 0-3.6-3-6.6-6.6-6.6-3.6 0-6.6 3-6.6 6.6 0 3.6 3 6.6 6.6 6.6m-11.3-16.7c.7 0 1.2-.6 1.2-1.2s-.5-1.2-1.2-1.2c-.6 0-1.1.6-1.1 1.2s.5 1.2 1.1 1.2m138 14.7c.3-2 1.9-1.7 2.8-1 1 .6 4.8.7 4.8.7s3.6 0 5-.9v-.7c-.5-.6-1.2-1-2-1-.8-.2-1.5-.2-2.2-.2l-.4.4h-.4a.9.9 0 0 1-.9-.8c0-.5.5-1 1-1 .2 0 .5.2.7.5v.1c.3.4 2.3.6 2.3.6s2 .2 2.4-.3l.6-1.7a7.9 7.9 0 0 0-3-1.9c-4-1.6-3.6-1.6-4.4-1.2-1.1.6-2.8 0-1.9-1.8 1-1.7 2.3-.9 2.9 0 .6 1 4 2.3 4 2.3 1 .4 2 .7 3.2.9.4-1 1-1.8 1.6-2.7-.2-.8-.7-1.4-1.5-1.8-.5-.4-1.2-.8-1.8-1h-.3l-.3.1a.9.9 0 0 1-.8-.9c0-.4.4-.8.9-.8.4 0 .8.3.8.7v.2c.1.4 1.8 1.4 1.8 1.4s1.7 1 2.4.7c1.2-1.3 2.6-2.5 4-3.5.4-.9.4-2.4-.8-4.8-2.2-4.1-2-3.9-2.8-4-1.4-.4-2.3-2-.4-2.8 2-.8 2.5.8 2.3 2a15 15 0 0 0 4.6 8.1l2-.7a4 4 0 0 0-.4-1.2c-.1-.7-.4-1.3-.8-1.8h-.3l-.2-.2a.8.8 0 1 1 1.2-.3v.1c-.2.4.5 2 .5 2l.7 1.2 3-.6c.5-.7 1-2 1-4.4-.2-4.6-.1-4.3-.8-4.8-1.1-.9-1.2-2.8.9-2.6 2 0 1.8 1.7 1.2 2.7-.6 1-.5 4.8-.5 4.8 0 1.5.4 2.9.9 4.2h1.2c.2 0 1-.3 1.5-2 .2-.7.4-1.4.4-2.2-.1 0-.2 0-.2-.2l-.2-.2v-.2c0-.5.4-1 .9-1s.9.5.9 1c0 .3-.2.6-.5.7l-.1.1c-.4.2-.8 2.1-.8 2.1-.2.7-.2 1.5 0 2.2l3.9 1.2c.5-.6 1-1.4 1.3-2.1 1.8-4 1.8-3.7 1.4-4.4-.5-1.2.1-2.9 1.9-1.9.5.2.8.7 1 1.2l-.4-.2c-.2 0-.4.2-.4.4s.2.4.4.4h.3c-.2.4-.6.8-1 1-1 .6-2.5 4-2.5 4a17 17 0 0 0-.8 2.2c.4.2.8.3 1.1.6l.7-1c.3-.6.6-1.3.7-2l-.1-.1v-.3c0-.5.3-.9.7-.9.5 0 .9.4.9.9 0 .3-.3.6-.6.7h-.2c-.4.2-1.1 1.8-1.1 1.8l-.4 1.2c1.1.7 2.2 1.5 3.2 2.5.9 0 2.4-.5 4.3-2.3 3.2-3.3 3.2-3.4 3-3.9-.3-.7.5-2.2 1.9-.5 1.3 1.6.4 2.3-.6 2.1-1 0-3.8 3-3.8 3s-2.3 2.3-2.7 4l.5.6a3 3 0 0 0 2.1-.8l1.6-1.5v-.5a.9.9 0 0 1 1.7.3.9.9 0 0 1-1 .9h-.2c-.4-.2-1.9 1.1-1.9 1.1s-1.4 1.2-1.4 2c1.1 2 2 4.2 2.3 6.5l2.5-.1c4.2-.7 4-.6 4.4-1.3.7-1.1 2.4-1.5 2.5.5.2 2-1.4 2-2.4 1.5s-4.5.1-4.5.1l-2.3.6c.2 1.8.1 3.7-.2 5.5l.6.2c.7.2 1.3.4 2 .4l.4-.2h.2c.4 0 .8.3.8.8 0 .4-.4.8-.8.8a.8.8 0 0 1-.7-.5l-.1-.1c-.2-.4-2-.9-2-.9l-.5-.1c-.2 1.3-.6 2.5-1.1 3.7.8.7 1.7 1.2 2.6 1.6 4.3 1.8 4 1.7 4.8 1.3 1.2-.6 3 0 2 1.9s-2.4 1-3 0c-.7-1-4.2-2.5-4.2-2.5l-3-.8-1 1.9c-.1.3 0 1.2 1.2 2.2 1 1 1.5 1.3 1.6 1.3h.6c.4 0 .7.4.7.8 0 .5-.4.9-.9.9a.9.9 0 0 1-.9-.9v-.1c0-.5-1.5-1.7-1.5-1.7-.5-.5-1.2-.9-1.9-1.1-.7 1-1.6 1.8-2.5 2.6.1.7.4 1.3.8 1.7 1 1.2 1.3 1.6 1.5 1.6h.5c.4 0 .8.5.8.9a1 1 0 0 1-1.1.9.9.9 0 0 1-.9-1v-.2c.1-.5-1.1-2-1.1-2a7 7 0 0 0-1.4-1.2l-1.2.9.8 1.5c2.4 3.6 2.2 3.4 3 3.5 1.4.1 2.4 1.6.6 2.5-1.7 1-2.3-.4-2.3-1.5s-2-4.2-2-4.2l-1-1.3c-.8.5-1.7 1-2.6 1.3-.2.2-.6 1-.3 2.5l.7 2 .3.1.2.2.2.5c0 .5-.4.9-.9.9a.9.9 0 0 1-.7-1.3l.1-.2c.3-.3-.3-2.2-.3-2.2-.1-.7-.5-1.4-1-2l-1.9.5c-.2 1.2-.1 2.4.2 3.6 1 4.5.8 4.2 1.6 4.6 1.2.6 1.7 2.4-.4 2.7-2 .3-2.1-1.4-1.7-2.4.4-1.1-.4-5-.4-5-.3-1-.7-2.2-1.2-3.2-1.6.1-3.1 0-4.7-.2a3 3 0 0 0-.8 2.2c-.2.7-.2 1.4 0 2.1l.1.2.2.2v.4c0 .5-.3.9-.8.9a.9.9 0 0 1-.5-1.6l.1-.1c.4-.3.5-2.2.5-2.2s0-1.8-.5-2.4l-1.2-.3-.9 2.1c-1.2 4.2-1 4.3-.7 4.6.6.4.6 2-1.3 1.3-1.8-.7-1.4-1.7-.5-2 .8-.4 1.8-4.2 1.8-4.2l.4-2.2-1.8-.8c-.3 0-1.2 0-2.2 1.4a7 7 0 0 0-1 1.9v.5c0 .4-.4.8-.8.8a.9.9 0 0 1-.9-.9c0-.4.3-.8.8-.9h.1c.5 0 1.5-1.7 1.5-1.7.5-.6.7-1.3.9-2a22 22 0 0 1-3.7-3 8.3 8.3 0 0 0-3.1 2c-3.3 3.3-3.3 3.4-3 3.9.3.7-.6 2.2-2 .5-1.3-1.6-.4-2.3.6-2.1 1 0 3.9-3 3.9-3a16 16 0 0 0 2.2-2.9v-.1c-.3-.1-1.1-.6-2.7.4l-1.8 1.1v.6a.9.9 0 1 1-.6-1.3h.2c.4.2 2-.8 2-.8.7-.4 1.3-1 1.7-1.5-.9-1.4-1.6-3-2-4.5a5 5 0 0 0-.7.1c-.7.2-1.3.5-1.8.8l-.1.3-.1.2a.8.8 0 1 1-.3-1.3l.2.1c.3.2 2-.4 2-.4l.6-.3c-.5-1.7-.8-3.5-.8-5.3-.6-.7-2-1.7-4.8-1.8-4.6-.2-4.4-.2-5 .4-.9 1.1-2.7 1.1-2.5-1m49-2c.3 0 .6-.2.6-.6 0-.3-.3-.6-.6-.6s-.6.3-.6.6c0 .4.3.7.6.7m-27-8.1c-.3 0-.6.3-.6.6s.3.6.6.6c.4 0 .6-.3.6-.6s-.2-.6-.6-.6m.3 2.8a2 2 0 0 0-2 2c0 1.1.9 2 2 2a2 2 0 0 0 2-2c0-1-1-2-2-2m17.2-5.8c-.3 0-.6.3-.6.6 0 .4.3.6.6.6.4 0 .7-.2.7-.6 0-.3-.3-.6-.7-.6m.7 11.3c-.4 0-.7.3-.7.6 0 .4.3.7.7.7.3 0 .6-.3.6-.7 0-.3-.3-.6-.6-.6m6 12.8c.4 0 .7-.3.7-.6s-.3-.6-.6-.6c-.4 0-.7.3-.7.6s.3.6.7.6m0-6.4c1 0 1.7-.8 1.7-1.8s-.8-1.7-1.7-1.7c-1 0-1.8.8-1.8 1.7 0 1 .8 1.8 1.8 1.8m0-11.1a2.6 2.6 0 0 0-2.7-2.6 2.6 2.6 0 0 0-2.6 2.6c0 1.5 1.2 2.7 2.7 2.7 1.4 0 2.6-1.2 2.6-2.7m-7.9 22.9c2.6 0 4.6-2.1 4.6-4.6 0-2.6-2-4.6-4.6-4.6-2.5 0-4.6 2-4.6 4.6 0 2.5 2.1 4.6 4.6 4.6m-4 2.1c.3 0 .6-.2.6-.6 0-.3-.3-.6-.6-.6-.4 0-.6.3-.6.6 0 .4.2.6.6.6m-.8-11.3c.3 0 .6-.3.6-.7 0-.3-.3-.6-.6-.6-.4 0-.6.3-.6.6 0 .4.2.7.6.7m.8-3.6c1.4 0 2.5-1.2 2.5-2.5 0-1.4-1-2.5-2.5-2.5a2.5 2.5 0 0 0-2.4 2.5c0 1.3 1 2.5 2.4 2.5m-3.1-2.7c.3 0 .6-.3.6-.7 0-.3-.3-.6-.6-.6-.4 0-.6.3-.6.6 0 .4.2.7.6.7m.5-8.9c2 0 3.5-1.6 3.5-3.5 0-2-1.6-3.5-3.5-3.5-2 0-3.5 1.6-3.5 3.5 0 2 1.6 3.5 3.5 3.5m-2.5 4.1c0-.3-.2-.6-.6-.6-.3 0-.6.3-.6.6s.3.6.6.6c.4 0 .6-.3.6-.6m-2.3 20.3c1.1 0 2.1-1 2.1-2.1 0-1.2-1-2.2-2.1-2.2-1.2 0-2.1 1-2.1 2.2 0 1.1 1 2 2 2m-4.9-8.3c2 0 3.5-1.5 3.5-3.4 0-2-1.6-3.5-3.5-3.5-2 0-3.5 1.6-3.5 3.5s1.6 3.4 3.5 3.4m-6-8.8c.4 0 .7-.3.7-.6 0-.4-.3-.6-.7-.6-.3 0-.6.2-.6.6 0 .3.3.6.6.6"/>
<defs>
<radialGradient id="a" cx="0" cy="0" r="1" gradientTransform="rotate(1.6 -15098 19600.3)scale(388.1253)" gradientUnits="userSpaceOnUse">
<stop offset="0" stop-color="#4697b6" stop-opacity=".7"/>
<stop offset="1" stop-color="#f6f6f6" stop-opacity="0"/>
</radialGradient>
<radialGradient id="b" cx="0" cy="0" r="1" gradientTransform="rotate(1.6 -20146 13342.6)scale(330.26176)" gradientUnits="userSpaceOnUse">
<stop offset="0" stop-color="#46b687" stop-opacity=".5"/>
<stop offset="1" stop-color="#f6f6f6" stop-opacity="0"/>
</radialGradient>
<radialGradient id="c" cx="0" cy="0" r="1" gradientTransform="rotate(1.6 -15786.5 31705.1)scale(330.26176)" gradientUnits="userSpaceOnUse">
<stop offset="0" stop-color="#46b687" stop-opacity=".5"/>
<stop offset="1" stop-color="#f6f6f6" stop-opacity="0"/>
</radialGradient>
</defs>
</svg>
