<svg xmlns="http://www.w3.org/2000/svg" viewBox="0 0 1634 1695">
  <circle cx="802.9" cy="430.1" r="430.1" fill="url(#a)"/>
  <circle cx="626.3" cy="569.3" r="366" fill="url(#b)"/>
  <circle cx="430.1" cy="724.9" r="430.1" fill="url(#c)"/>
  <circle cx="680.6" cy="758.6" r="607.1" fill="url(#d)"/>
  <circle cx="830.6" cy="758.6" r="430.1" fill="url(#e)"/>
  <circle cx="1007.3" cy="897.8" r="366" fill="url(#f)"/>
  <circle cx="1203.4" cy="1053.4" r="430.1" fill="url(#g)"/>
  <circle cx="952.9" cy="1087.1" r="607.1" fill="url(#h)"/>
  <path fill="#fff" d="m634.9 589.3-8.5-2.5.6-1.8 10.2 3 11.7-6.2-11.5-7.2-10.1 2.3-.5-1.8 8.3-2-6.2-3.8 1.5-2.4 6.4 4-2-8.6 1.8-.4 2.4 10.4 11.4 7v-13.2l-7.3-7.4 1.3-1.3 6 6v-7.7h2.8v8l6.2-6.3 1.4 1.3-7.6 7.6v13.1l11.8-6.3 3-10.2 1.8.5-2.5 8.4 7-3.8 1.4 2.6-6.8 3.7 8.1 2.4-.6 1.8-9.9-3-12 6.5 11.3 7 10.4-2.4.4 1.8-8.6 2 6.8 4.2-1.5 2.4-6.6-4.1 1.9 8.3-1.8.4-2.3-10.1-11.3-7v13.2l7.6 7.7-1.4 1.3-6.2-6.3v7.6h-2.8v-7.4l-6 6.1-1.3-1.3 7.3-7.4v-13.8l-12 6.5-3 9.9-1.8-.5 2.4-8.2-6.4 3.5-1.3-2.5zm-453.2-22-8.4-2.5.5-1.8 10.2 3h.1l11.6-6.2-11.5-7.2-10.1 2.3-.4-1.8 8.3-1.9-6.3-3.9 1.6-2.4 6.4 4-2-8.6 1.8-.4 2.4 10.4 11.3 7V544l-7.3-7.3 1.3-1.3 6 6v-7.7h2.8v8l6.3-6.3 1.3 1.3-7.5 7.6-.1.1v13l11.8-6.3v-.1l3.2-10 1.8.5-2.5 8.4 7-3.8 1.3 2.6-6.7 3.6 8 2.5-.5 1.8-10-3-11.9 6.5 11.2 7 10.4-2.4.4 1.8-8.6 2 6.8 4.2-1.5 2.4-6.6-4.1 2 8.3-1.9.4-2.3-10.1-11.3-7v13.2l7.6 7.6-1.3 1.4-6.3-6.3v7.6h-2.8v-7.3l-6 6-1.3-1.4 7.3-7.2v-13.9l-12 6.5-3 9.9-1.7-.6 2.3-8-6.3 3.4-1.4-2.5zM245.5 759l-8.2-2.5.6-1.7 10 2.9 11.9-6.5-11.2-7-10.5 2.5-.4-1.9 8.7-2-6.9-4.2 1.5-2.4 6.6 4.1-1.9-8.2 1.8-.5 2.3 10.1 11.3 7v-13.3l-7.5-7.5 1.3-1.3 6.2 6.2v-7.5h2.8v7.3l6.1-6 1.3 1.3-7.4 7.3V749l12-6.5 3.1-9.8 1.7.5-2.4 8 6.4-3.4 1.4 2.5-6.7 3.6 8.5 2.6-.6 1.7-10.2-3-11.6 6.3 11.4 7.1 10.1-2.3.5 1.9-8.2 1.9 6.1 3.8-1.5 2.4-6.4-4 2 8.6-1.8.5-2.4-10.4-11.4-7.2v13.4l7.4 7.3-1.4 1.3-6-6v7.8h-2.8v-8l-6.2 6.2-1.3-1.3 7.5-7.5v-13.2l-11.7 6.4-3.1 10.2-1.8-.6 2.4-8.3-6.8 3.7-1.4-2.6z"/>
  <path fill="#fff" fill-opacity=".4" d="m1203.8 808.1-8.4-2.5.6-1.8 10.2 3 11.6-6.2-11.5-7.2-10.1 2.3-.4-1.8 8.2-2-6.2-3.8 1.5-2.4 6.4 4-2-8.6 1.9-.4 2.4 10.3v.1l11.3 7V785l-7.3-7.4 1.3-1.3 6 6v-7.7h2.8v8l6.3-6.3 1.3 1.3-7.6 7.6v13.2l11.8-6.4 3.1-10.2 1.7.5-2.5 8.5 7-3.8 1.4 2.5-6.8 3.7 8.1 2.4-.6 1.8-9.9-3-12 6.5 11.3 7 10.3-2.4.5 1.8-8.6 2 6.8 4.2-1.5 2.4-6.6-4.1 1.9 8.3-1.8.4-2.3-10.1-11.3-7v13.3l7.6 7.5-1.3 1.4-6.3-6.3v7.6h-2.8v-7.4l-6 6.1-1.3-1.4 7.3-7.3V803l-12 6.5-3 9.9-1.8-.6 2.4-8-6.3 3.4-1.4-2.5zm9-202-4.3-.2v-1.6l4.4.1-3.5-3.7.8-.7 3.2 3.3-.2-.7 3.4-.8-2.6-1.6.7-1 2.6 1.6-.8-3.4.5-.2-4.4-1.3.4-1 4.7 1.3-2-3.7 1.4-.8 2.1 4 1.5-5 1 .3-1.2 4.3 2.5 2.6v-3.3h1.2v3.2l2.5-2.5.5.4-1.3-4.4 1.1-.3 1.3 4.7 2.2-3.9 1.4.8-2.3 4.1 5-1.4.3 1-4.6 1.3.7.2-1 3.5 2.9-1.6.6 1-3 1.6 3.5 1-.2.6 3.5-3.3.8.8-3.7 3.5 4.6.1v1.7l-4.6-.1 3.4 3.6-.7.7-4.1-4.4-6.8-.1 3.2 2 4.3-1 .1.8-3.5.8 2.8 1.7-.6 1-2.7-1.7.7 3.4-.5.1 4.6 1.4-.3 1-5-1.4 2.3 4.1-1.5.8-2.1-4-1.4 4.8-1-.4 1.2-4h-.1l-2.5-2.6v3.1h-1.2v-3l-2.5 2.5-.3-.3 1.2 4.5-1 .3-1.4-5-2.2 3.8-1.4-.8 2-3.7-4.7 1.4-.3-1.1 5.8-1.6 3.6-6.3-3.9 2.1-1.2 4.1-.7-.2 1-3.4-2.7 1.5-.5-1 2.8-1.5-3.6-1.1v-.3l-3.1 3-.7-.7zm4.6-8.8.8 4.1 3.4 2.1-3.1-5.8zm-4 6 1 1.1 6.7.2-3.5-2.2zM1227 615l.2-.8-3-5.7v3.7zm6.7-11-4-1.1-3.6 1.9 6.7.2zm-16 4.1 3.2-1.8-6.6-.1-.8.7zm9.5-12.1-3 3v4l3.3-5.9zm1.6 13.5-3.2-2 3 5.7 1.2.3zm-8.6-13.3-.2 1 3 5.5V599zm10.1 1.5-1.5.4-3.2 5.7 3.4-1.9zm-10.2 17.4 2.9-2.9v-3.9l-3.2 5.7zM773.6 762.3l-4.2-.1v-1.7l4.4.1-3.5-3.7.7-.7 4.3 4.5 6.5.1-3.4-2.1-4.1.9-.3-.7 3.4-.8-2.5-1.6.6-1 2.7 1.7-.8-3.6.5-.1-4.4-1.3.3-1.1 4.7 1.4-2-3.7 1.5-.8 2.1 3.9 1.5-4.9 1 .3-1.3 4.2 2.5 2.5v-3.2h1.2v3.3l2.6-2.6.3.4-1.2-4.3 1.1-.4 1.3 4.6 2.2-3.8 1.5.9-2.3 4 4.9-1.3.3 1-4.3 1.2.5.2-1 3.6 2.9-1.6.5 1-2.8 1.5 3.4 1-.2.6 3.5-3.3.8.8-3.8 3.6 4.7.1v1.7l-4.5-.1 3.3 3.5-.8.8-4.1-4.4-6.8-.1 3.2 2v-.1l4.3-1 .2.8-3.5.8 2.8 1.8-.7 1-2.7-1.7.8 3.4h-.4l4.5 1.5-.3 1-4.9-1.4 2.2 4-1.5.8-2.1-4-1.4 4.8-1.1-.3 1.2-4.1-2.6-2.6v3.1h-1.2v-3l-2.5 2.5-.3-.4 1.3 4.6-1.1.3-1.4-4.8-2.1 3.7-1.5-.8 2.1-3.8-4.7 1.4-.3-1 5.8-1.6 3.5-6.3-3.7 2-1.3 4.2-.7-.3 1-3.3-2.7 1.4-.6-1 2.9-1.5-3.6-1.1v-.2l-3.1 3-.8-.8zm16 3.4-3-2 3 5.6 1 .3zm-10.4-8 3.3 2.1-3.3-6-1-.3zm2.4 4.8-6.4-.1-.8.7 4 1.2zm-.7 8.8 2.9-2.8v-3.8l-3.2 5.6zm7 0 .2-1-3.1-5.8v3.8zm6.7-11-4-1.3-3.6 2 6.7.1zm-13.5-8-.3 1 3 5.4v-3.6zm10 1.6-1.4.4-3.2 5.6 3.4-1.8v-.1zm-3-1.7-3.1 3v3.9l3.3-5.8zM684.4 955.9l-4.2-.1.1-1.7 4.4.1-3.5-3.7.7-.8 3.3 3.5-.3-.8 3.6-.8-2.6-1.6.5-1 2.7 1.7-.8-3.5.5-.1-4.4-1.3.3-1.1 4.7 1.3-2-3.7 1.5-.7 2 3.9 1.5-5 1 .3-1.2 4.3 2.5 2.5v-3.2h1.2v3.3l2.6-2.6.3.3-1.2-4.3 1.1-.3 1.3 4.6 2.2-3.8 1.5.9-2.3 4 4.9-1.3.3 1-4.3 1.2.5.2-1 3.5 2.9-1.6.5 1-2.9 1.6 3.5 1-.2.6 3.5-3.3.7.8-3.7 3.6 4.7.1v1.6l-4.6-.1 3.4 3.6-.8.7-4-4.3-7-.2 3.3 2 4.3-1 .2.8-3.6.8 2.9 1.8-.7 1-2.7-1.7.8 3.3-.5.2 4.6 1.3-.3 1-5-1.4 2.2 4.1-1.4.8-2.1-4-1.4 4.8-1.1-.4 1.2-4-2.6-2.6v3.1h-1.2v-3l-2.5 2.5-.3-.4 1.3 4.6-1.1.3-1.4-4.8-2.1 3.7-1.5-.9 2-3.6-4.6 1.3-.3-1.1 5.7-1.6 3.6-6.2-3.7 2-1.3 4.2-.8-.3 1-3.3-2.6 1.4-.6-1 2.8-1.5-3.5-1.1v-.3l-3.1 3-.8-.7zm.8-2.7 1 1 6.7.2-3.5-2.2zm16.9-5.7-1.5.4-3.1 5.5 3.3-1.8zm-1.5 11.8-3.3-2 3 5.7 1.2.3zm-1.8 5.5.2-1-3.1-5.7v3.7zm6.6-11-4.1-1.2-3.5 2 6.7.1zm-6.5-8.1-3 3v4l3.3-5.9zm-7.1 19.2 2.9-2.9v-3.7l-3.2 5.6zm-2.5-7 3.3-1.8-6.6-.2-.8.8 4 1.2zm-.3-10.8 1 4.2 3.4 2-3.2-5.8zm3-1.2-.3.9 3 5.6v-3.8zM1001.3 597l-5.7-1.7.4-1.2 6.8 2.1 3-1.6-2.6-.7.2-.7 3.3 1 4-2.3-4-2.5-3.2.7-.2-.7 2.6-.5-3-1.9-6.8 1.7-.3-1.3 5.6-1.3-4.1-2.6.9-1.6 4.4 2.7-1.4-5.9 1.3-.2 1.6 7 3 1.9-.7-2.8.6-.1.7 3.3 4.1 2.5v-4.7l-2.4-2.3.6-.5 1.8 1.8v-3.2l-5-5 .9-1 4.1 4.1v-5.3h1.9v5.4l4.3-4.2.8 1-5.1 5.1v3.2l1.9-1.9.5.5-2.4 2.4v4.7l4.2-2.3 1-3.2.6.1-.8 2.7 3-1.6 2.1-7 1.2.4-1.8 5.8 4.8-2.6 1 1.7-4.6 2.5 5.4 1.6-.3 1.2-6.7-2-3 1.6 2.4.7-.2.7-3-.9-4.4 2.3 4 2.4 3.4-.7v.7l-2.6.6 2.8 1.7 7.1-1.6.3 1.2-5.8 1.4 4.5 2.8-1 1.7-4.4-2.7 1.3 5.5-1.3.3-1.6-6.8-2.9-1.8.6 2.5-.6.1-.7-3.1-4-2.5v4.6l2.4 2.4-.5.5-1.9-1.9v3.4l5.1 5.1-.9 1-4.2-4.2v5h-1.9V605l-4 4-1-1 5-5v-3.4l-1.9 1.8-.5-.4 2.4-2.4v-4.9l-4.3 2.4-1 3.1-.6-.2.7-2.5-3 1.6-2 6.7-1.2-.4 1.7-5.5-4.4 2.4-1-1.7zm-71.8 306.7-5.7-1.7.3-1.1 7 2 2.9-1.6-2.6-.8.2-.6 3.2 1 4.1-2.3-4-2.6-3.2.8-.2-.7 2.5-.6-2.8-1.8-6.9 1.7-.3-1.3 5.7-1.3-4.2-2.6.9-1.7 4.3 2.7-1.3-5.8 1.3-.3 1.6 7.1 2.9 1.8-.6-2.7.6-.2.7 3.4 4.1 2.5v-4.7l-2.4-2.3.5-.5 1.9 1.8V888l-5-5 1-.9 4 4V881h1.9v5.4l4.2-4.2 1 .9-5.2 5.2v3.2l1.9-1.9.5.5-2.4 2.4v4.6l4.2-2.2.9-3.3.7.2-.7 2.6 2.9-1.6 2.1-6.8 1.2.3-1.7 5.7 4.7-2.6 1 1.7-4.7 2.5 5.5 1.7-.3 1.2-6.8-2-3 1.6 2.5.7-.2.7-3-1-4.4 2.4 4 2.4 3.3-.7.2.6-2.7.6 2.8 1.8 7.1-1.6.3 1.2-5.8 1.4 4.5 2.8-1 1.7-4.4-2.8 1.3 5.6-1.3.3-1.6-6.8-2.9-1.8.6 2.5-.6.1-.7-3.1-4-2.5v4.6l2.4 2.4-.5.5-1.9-1.9v3.4l5.1 5.1-.9 1-4.2-4.2v5H940v-4.8l-4 4-1-1 5-5v-3.4l-1.9 1.8-.5-.5 2.4-2.3v-5l-4.3 2.4-1 3.1-.6-.2.7-2.4-3 1.6-2 6.6-1.2-.3 1.6-5.4-4.3 2.3-1-1.7zM89.3 812l-5.7-1.7.4-1.2 7 2 2.8-1.5-2.6-.8.2-.7 3.3 1 4-2.2-4-2.6-3.2.7-.1-.6 2.4-.6L91 802l-6.8 1.7-.3-1.3 5.6-1.3-4.2-2.6 1-1.7 4.3 2.7-1.3-5.8 1.2-.3 1.7 7 2.8 1.9-.6-2.7.6-.2.8 3.3 4.1 2.6v-4.6l-2.4-2.5.5-.5 1.9 2v-3.3l-5.1-5.1 1-.9 4.1 4.1v-5.3h1.9v5.3l4.2-4.1.9.9-5.1 5.1v3.2l1.9-1.9.5.5-2.4 2.4v4.7l4.2-2.3 1-3.2.6.2-.8 2.6 3-1.6 2-6.9 1.2.4-1.7 5.6 4.7-2.5 1 1.7-4.6 2.5 5.4 1.7-.3 1.2-6.7-2-3 1.6 2.5.7-.2.7-3.1-1-4.3 2.3 4 2.5 3.3-.8.1.7-2.7.6 3 1.8 6.9-1.6.3 1.2-5.7 1.4 4.5 2.8-1 1.7-4.4-2.8 1.3 5.6-1.3.3-1.7-6.9-2.8-1.7.6 2.4-.7.2-.7-3.1-3.9-2.5v4.7l2.4 2.3-.5.5-1.9-1.8v3.3l5.1 5.1-.9.9-4.2-4.2v5.1h-1.9v-5l-4.1 4.1-1-.9 5.1-5v-3.5l-1.9 1.9-.5-.5 2.4-2.4v-4.8l-4.3 2.3-1 3.1-.7-.2.7-2.4-3 1.6-1.9 6.7-1.2-.4 1.7-5.5-4.4 2.4-1-1.7zM529 605l-5.6-1.8.3-1.1 7 2 2.8-1.6-2.6-.8.2-.6 3.3 1 4-2.3-4-2.6-3.2.8-.1-.7 2.5-.5-3-1.9-6.8 1.7-.2-1.3 5.6-1.3-4.2-2.6 1-1.7 4.3 2.7-1.4-5.8 1.3-.3 1.7 7.1 2.8 1.7-.6-2.6.7-.2.7 3.4 4 2.5v-4.7l-2.3-2.3.5-.5 1.8 1.8v-3.3l-5-5 1-.9 4 4V582h1.9v5.4l4.3-4.2.9.9-5.2 5.2v3.2l2-1.9.5.5-2.5 2.4v4.7l4.2-2.3 1-3.3.7.2-.8 2.6 2.9-1.5v-.1l2.1-6.8 1.2.3-1.7 5.7 4.8-2.6.9 1.7-4.6 2.5 5.5 1.7-.4 1.2-6.8-2-3 1.6 2.6.7-.2.7-3.2-1-4.2 2.3 4 2.5 3.3-.7.1.6-2.7.6 2.9 1.8 7-1.6.3 1.2-5.8 1.4 4.5 2.8-1 1.7-4.4-2.7 1.3 5.5-1.2.3-1.6-6.8-2.9-1.8.6 2.5-.7.1-.7-3.1-4-2.5v4.6l2.5 2.4-.5.5-2-2v3.4l5.2 5.2-1 1-4.2-4.2v5h-1.9v-4.8l-4 4-1-1 5-5v-3.4l-1.8 1.8-.5-.5 2.3-2.3v-5l-4.3 2.4-.9 3.1-.7-.2.8-2.4-3 1.6-2 6.6-1.2-.3 1.6-5.5-4.4 2.4-.9-1.7zm48.2 257.3-5.7-1.7.4-1.2 6.9 2 2.9-1.5-2.6-.8.2-.7 3.3 1 4.1-2.2-4-2.6-3.3.7-.1-.6 2.5-.6-2.8-1.8-6.9 1.6-.3-1.2 5.7-1.3-4.3-2.7 1-1.6 4.3 2.7-1.3-5.8 1.2-.3 1.7 7 2.8 1.8-.6-2.6.7-.2.7 3.4 4.1 2.5V851l-2.4-2.5.5-.4 1.9 1.9v-3.3l-5.1-5.1 1-.9 4.1 4.1v-5.3h1.9v5.4l4.3-4.2.8.9-5.1 5.1v3.2l1.9-1.8.5.4-2.4 2.4v4.7l4.2-2.3.9-3.2.7.2-.8 2.6 3-1.6 2-6.9 1.2.4-1.7 5.7 4.8-2.6 1 1.7-4.7 2.5 5.4 1.7-.3 1.2-6.6-2-3 1.5 2.4.8-.2.7-3.1-1-4.3 2.3 4 2.5 3.3-.7.1.6-2.7.6 3 1.8 7-1.6.2 1.2-5.8 1.3 4.6 2.9-1 1.6-4.5-2.8 1.4 5.7-1.3.2-1.7-6.9-2.7-1.7.5 2.5-.7.2-.7-3.3-3.9-2.4v4.8l2.4 2.3-.5.5-1.9-1.8v3.2l5.1 5.1-.9 1-4.2-4.2v5.1h-1.9v-5l-4.1 4.1-1-1 5.1-5v-3.4l-1.9 1.9-.5-.5 2.4-2.4v-4.9l-4.3 2.4-1 3.1-.7-.2.8-2.5-3 1.6-2 6.8-1.2-.4 1.6-5.5-4.3 2.3-1-1.7zM743.5 624l-3.1-.9.2-.7 3.8 1.1 4.3-2.3-4.3-2.6-3.7.8-.1-.6 3-.7-2.3-1.4.6-.9 2.4 1.5-.7-3.2.6-.2.9 3.9 4.1 2.6v-5l-2.7-2.6.5-.5 2.2 2.1v-2.8h1v3l2.4-2.3.5.5-2.9 2.8v4.8l4.4-2.4 1.1-3.7.7.2-.9 3 2.5-1.3.5 1-2.4 1.3 2.9.9-.2.6-3.6-1-4.5 2.3 4.1 2.6 3.9-.9.2.7-3.2.7 2.5 1.6-.5.8-2.4-1.5.7 3.1-.7.1-.8-3.7-4.3-2.6v4.8l.1.1 2.8 2.8-.5.5-2.4-2.4v2.8h-1v-2.6l-2.2 2.2-.5-.5 2.7-2.6v-5.1l-4.3 2.2-1.2 3.8-.6-.2 1-3-2.5 1.2-.5-.9zm563.8-51.4-3.1-.9.2-.7 3.7 1.2 4.3-2.3-4.3-2.7-3.6.8-.2-.6 3-.7-2.2-1.4.5-.9 2.4 1.5-.7-3.2.7-.2.9 4 4.1 2.5v-4.9l-2.7-2.7.5-.5 2.2 2.3v-2.9h1v3l2.3-2.4.5.5-2.8 2.7v5l4.3-2.3 1.2-3.9.6.2-1 3.2 2.7-1.4.5.8-2.6 1.4 3.1.9-.2.6-3.7-1-4.4 2.3 4.1 2.6h.1l3.8-.9.1.7-3.2.7 2.5 1.6-.5.9-2.4-1.5.7 3-.7.2-.8-3.7-4.2-2.6v4.9l2.8 2.7-.5.5-2.3-2.3v2.8h-1v-2.7l-2.2 2.2-.5-.5 2.7-2.7v-5l-4.4 2.3-1.1 3.7-.7-.2.9-3-2.4 1.3-.5-1zM752 838.4l-3.1-.9.1-.7 3.9 1.1 4.2-2.3-4.2-2.6-3.7.8-.2-.7 3-.7-2.2-1.4.5-.9 2.4 1.5-.7-3.2.6-.1.8 3.7 4.3 2.7v-4.9l-2.7-2.7.5-.5 2.2 2.3V826h1v3l2.3-2.4.5.5-2.8 2.9v4.8l4.3-2.3v-.1h.1l1.1-3.7.7.2-1 3 2.6-1.3.5.9-2.5 1.3 3 .9-.2.7-3.7-1-4.4 2.3 4.2 2.5 3.8-.8.1.6-3.1.7 2.5 1.6-.6 1-2.4-1.5.7 2.9-.7.2-.8-3.6-4.2-2.7v4.8l2.8 2.9-.5.5-2.3-2.4v2.8h-1v-2.7l-2.2 2.3-.5-.5 2.7-2.7v-5.1l-4.4 2.3-1.1 3.7-.7-.2 1-3-2.5 1.3-.4-.9zm593.9 72.7-3.1-.9.2-.7 3.7 1.2 4.3-2.3-4.3-2.7-3.6.8-.2-.6 3-.7-2.2-1.4.6-.9 2.3 1.4-.7-3.1.7-.2.9 3.9 4.1 2.6v-5l-2.7-2.6.5-.5 2.2 2.1v-2.8h1v3l2.4-2.3.4.5-2.8 2.8v4.8l4.4-2.4 1.1-3.7.7.2-1 3 2.6-1.3.5 1-2.5 1.3 3 .9-.2.6-3.6-1-4.5 2.3 4 2.6 3.9-.9.2.7-3.1.7 2.5 1.6-.6.9-2.4-1.5.7 3-.7.1-.8-3.6-4.2-2.6v4.8l2.8 2.8-.5.5-2.3-2.3v2.7h-1v-2.6l-2.2 2.2-.5-.5 2.7-2.6v-5.2l-4.4 2.3-1.1 3.8-.7-.2 1-3.1-2.5 1.3-.4-.9zM522 742.4l-3-1 .2-.6 3.7 1 4.3-2.3-4-2.5-3.9.8-.1-.7 3-.7-2.2-1.4.5-.9 2.3 1.4-.7-3.1.7-.1.8 3.8 4.2 2.6v-4.9l-2.7-2.7.5-.5 2.2 2.2V730h1v3l2.4-2.4.4.5-2.7 2.8-.1.1v4.7l4.4-2.4 1.1-3.7.7.2-.9 3 2.5-1.3.5 1-2.5 1.3 3 .9-.2.7-3.7-1-4.3 2.2 4 2.6h.1l3.8-.8.2.6-3.2.7 2.5 1.6-.6.9-2.4-1.5.7 3-.6.2-.8-3.7-4.3-2.7v4.9l.1.1 2.7 2.8-.4.4-2.4-2.3v2.8h-1v-2.6l-2.2 2.1-.5-.4 2.7-2.7v-5.1l-4.4 2.3-1.1 3.7-.7-.2 1-3-2.5 1.3-.4-1zM217 737l-1.9-.6.1-.4 2.4.7 2.8-1.5-2.8-1.8-2.4.6v-.4l1.9-.5-1.5-.9.4-.6 1.5 1-.5-2.1.5-.1.5 2.5 2.7 1.7v-3.2l-1.7-1.7.3-.3 1.4 1.3V729h.7v1.9l1.5-1.5.3.3-1.8 1.8v3.2l2.8-1.5v-.1l.8-2.4.4.1-.6 2 1.6-.8.3.5-1.6.9 2 .6-.2.4-2.3-.7h-.1l-2.8 1.5 2.7 1.7 2.5-.6v.4l-2 .5 1.6 1-.3.6-1.6-1 .5 2h-.5l-.5-2.3-2.7-1.7v3.2l1.8 1.7-.3.4-1.5-1.5v1.8h-.7v-1.7l-1.3 1.3-.4-.2 1.7-1.7v-3.4l-2.9 1.6-.6 2.4-.5-.2.6-2-1.5.9-.3-.6zm646.4 203.8-2-.6.2-.4 2.4.7 2.8-1.5-2.7-1.7-2.5.5v-.4l1.9-.5-1.5-.9.4-.5 1.5 1-.5-2.1.5-.1.5 2.4 2.7 1.7v-3.2l-1.7-1.6.3-.4 1.4 1.4v-1.8h.7v1.9l1.5-1.5.3.3-1.8 1.8v3.1l2.8-1.5.7-2.4.5.1-.6 2 1.6-.9.3.6-1.7 1 2.1.5-.2.4-2.4-.7-2.8 1.5 2.7 1.7 2.5-.6v.5l-2 .4 1.6 1-.3.6-1.6-1 .5 2-.5.1-.5-2.4-2.7-1.7v3.2l1.8 1.8-.3.3-1.5-1.4v1.7h-.7v-1.7l-1.3 1.4-.4-.3 1.7-1.7v-3.3l-2.9 1.6-.6 2.3-.5-.2.6-1.8-1.5.8-.3-.7zM674 733.5l-2-.6.1-.4 2.5.7 2.8-1.5-2.7-1.7-2.5.5v-.4l2-.5-1.6-.9.4-.5 1.5 1-.5-2.1.4-.1.6 2.4h.1v.1l2.6 1.6V728l-1.7-1.6.3-.4 1.4 1.5v-1.9h.7v1.9l1.5-1.5.3.3-1.8 1.8v3.1l2.7-1.5h.2l.6-2.4.4.1-.5 2 1.6-.9.3.6-1.6.9 2 .6-.2.4-2.4-.7-2.8 1.5 2.7 1.7 2.4-.6.1.5-2 .4 1.6 1-.3.6-1.6-1 .5 2.1h-.5l-.6-2.5-2.6-1.6v3.2l1.7 1.8-.2.3-1.5-1.4v1.7h-.7v-1.7l-1.4 1.4-.3-.3 1.7-1.7v-3.3l-2.8 1.5-.7 2.4-.5-.2.6-1.9-1.6.9-.2-.7zm-52.8-76.2-2-.5.1-.5 2.4.8h.1v-.1l2.7-1.4-2.7-1.8-2.5.6v-.4l2-.5-1.5-.9.3-.6 1.6 1-.5-2.1.4-.1.6 2.5 2.7 1.7v-3.2l-1.7-1.7.3-.3 1.4 1.4v-1.8h.7v1.8l1.5-1.4.3.3-1.8 1.7v3.2l2.8-1.5.7-2.5.4.2-.6 2 1.7-.9.3.6-1.6.9 1.9.6-.1.4-2.4-.7-2.8 1.5 2.7 1.7 2.5-.6v.4l-2 .5 1.6 1-.4.6-1.5-1 .4 2h-.4l-.6-2.3-2.6-1.7v3.1l1.7 1.9-.3.3-1.4-1.5v1.8h-.7v-1.7l-1.4 1.3-.3-.2 1.7-1.8v-3.3l-2.8 1.5-.8 2.4h-.4l.6-2-1.6.8-.3-.6zm462 161.7-1.9-.6.1-.4 2.4.7 2.9-1.5-2.7-1.7-2.5.5-.1-.4 2-.4-1.5-1 .4-.5 1.5 1-.5-2.1.4-.1.6 2.5 2.7 1.7v-3.3l-1.7-1.6.3-.4 1.4 1.5V811h.7v1.9l1.5-1.5.3.3-1.8 1.8v3.1l2.7-1.4.8-2.5.4.1-.6 2 1.7-.8.3.5-1.6.9 1.9.6-.1.4-2.4-.7-2.8 1.6 2.6 1.6 2.5-.6.1.5-2 .4 1.6 1.1-.4.5-1.5-1 .4 2-.4.1-.6-2.4-2.6-1.7v3.2l1.7 1.8-.2.3-1.5-1.4v1.7h-.7v-1.7l-1.4 1.4-.3-.3 1.7-1.7v-3.3l-2.9 1.5-.7 2.4-.4-.1.6-2-1.6.9-.3-.7zM228 857.3l-2-.6.1-.5 2.5.8 2.8-1.5-2.8-1.8-2.4.6v-.4l2-.5-1.6-.9.4-.5 1.5 1-.5-2.2.5-.1.5 2.5h.1v.1l2.6 1.6v-3.2L230 850l.3-.3 1.4 1.3v-1.7h.7v1.9l1.5-1.5.3.3-1.8 1.7v3.2l2.8-1.5.7-2.4.5.1-.6 2 1.6-.9.3.6-1.6.9 2 .6-.2.4-2.3-.8-.1.1-2.8 1.5 2.7 1.7 2.5-.6v.4l-2 .5 1.6 1-.3.6-1.6-1 .5 2h-.5l-.5-2.3-2.7-1.7v3.2l1.8 1.7-.3.4-1.5-1.5v1.8h-.7V860l-1.3 1.3-.4-.2 1.7-1.7V856l-2.8 1.5-.7 2.5-.5-.2.6-2-1.6.9-.2-.6zm1129.7-67.6-2-.6.2-.4 2.4.7 2.7-1.4-2.7-1.8-2.4.6v-.5l1.8-.4-1.4-.9.4-.6 1.5 1-.5-2.1.4-.1.6 2.5 2.7 1.7v-3.2l-1.7-1.7.3-.4 1.4 1.5v-1.9h.7v1.9l1.5-1.5.3.4-1.8 1.7v3.2l2.8-1.5.7-2.5.4.2-.6 2 1.7-.9.3.6-1.6.9 1.9.5v.4l-2.4-.7-2.9 1.6 2.6 1.6h.1l2.4-.6.1.5-2 .5 1.6 1-.4.6-1.4-1 .4 2h-.5l-.6-2.3-2.6-1.7v3.1l1.7 1.8-.2.3-1.5-1.4v1.7h-.7v-1.7l-1.4 1.4-.3-.3 1.7-1.7v-3.3l-2.8 1.5-.7 2.4-.5-.1.6-2-1.6.9-.3-.6zM1410 827l-2.1-.6.2-.4 2.5.7 2.7-1.5-2.8-1.7-2.4.6v-.5l1.9-.4-1.5-.9.4-.6 1.5 1-.5-2.1.5-.1.5 2.5 2.7 1.7v-3.3l-1.7-1.6.2-.4 1.5 1.4V819h.7v1.9l1.5-1.5.3.3-1.8 1.8v3.2l2.8-1.5v-.1l.7-2.4.4.2-.6 2 1.7-.9.3.6-1.6.8 1.9.7v.3l-2.4-.7-2.9 1.6 2.6 1.6h.1l2.4-.5.1.4-2 .5 1.6 1-.3.5-1.6-1 .4 2.1h-.4l-.6-2.4-2.6-1.6v3.1l1.7 1.8-.2.3-1.5-1.4v1.7h-.7v-1.7l-1.4 1.4-.3-.3 1.7-1.7v-3.3l-2.8 1.5-.7 2.4-.5-.1.6-2-1.6.9-.2-.6zm-451-52.8-1.9-.5.1-.4 2.4.7 2.8-1.5-2.7-1.7-2.4.5-.1-.4 2-.5-1.5-.9.4-.6 1.5 1-.5-2 .4-.1.6 2.3 2.7 1.8v-3.2l-1.8-1.6.4-.4 1.4 1.5v-1.9h.7v1.8l1.4-1.4.4.3-1.8 1.8v3l2.7-1.4.8-2.4.4.1-.5 2 1.6-.9.3.6-1.6.9 1.9.6-.1.4-2.4-.7-2.8 1.5 2.7 1.7 2.4-.6.1.5-2 .4 1.6 1-.4.6-1.5-1 .4 2-.4.1-.6-2.4-2.6-1.7v3.3l1.8 1.6-.4.4-1.4-1.5v1.8h-.7V777l-1.4 1.4-.3-.3 1.7-1.8V773l-2.9 1.5-.7 2.4-.4-.2.6-1.9-1.6.9-.3-.7zm128-58.8-2-.5.1-.5 2.4.8h.1v-.1l2.7-1.4-2.8-1.8-2.3.6-.1-.4 2-.5-1.5-.9.3-.6 1.6 1-.5-2.1.4-.1.6 2.5 2.7 1.7V710l-1.7-1.8.3-.3 1.4 1.4v-1.8h.7v1.8l1.4-1.4.4.3-1.8 1.7v3.2l2.7-1.5.8-2.5.4.2-.5 2 1.6-.9.3.6-1.6.9 2 .6-.2.4-2.3-.7-2.9 1.5 2.7 1.7 2.4-.6.1.4-2 .5 1.6 1-.4.6-1.5-1 .4 2h-.4l-.6-2.3-2.6-1.7v3.1l1.7 1.9-.3.3-1.4-1.5v1.8h-.7v-1.7l-1.4 1.3-.4-.2 1.8-1.8v-3.2l-2.9 1.5-.7 2.3h-.4l.6-2-1.6.9-.3-.7zM821 572.2l-2-.6.1-.5 2.5.8 2.8-1.5-2.8-1.7-2.4.6v-.5l1.8-.4-1.4-.9.4-.6 1.5 1-.5-2.1.5-.1.5 2.4h.1v.1l2.6 1.7v-3.3L823 565l.3-.4 1.4 1.4v-1.8h.7v1.9l1.5-1.5.3.3-1.8 1.8v3.2l2.8-1.6.7-2.4.4.2-.5 2 1.6-1 .3.7-1.6.9 1.9.5v.4l-2.4-.7-2.9 1.6 2.6 1.6h.1l2.5-.5v.4l-2 .5 1.6 1-.3.5-1.6-1 .5 2.1h-.5l-.5-2.4-2.7-1.6v3.1l1.7 1.8-.2.3-1.5-1.4v1.7h-.7v-1.7l-1.4 1.4-.3-.3 1.7-1.7V571l-2.8 1.5-.7 2.4-.5-.1.6-2-1.6.9-.2-.6zm-695.3 14.7-3-1 .2-.6 3.7 1 4.3-2.2-4.2-2.6-3.7.8-.2-.7 3-.7-2.2-1.4.5-.9 2.4 1.5-.7-3.2.6-.1.8 3.7 4.3 2.7v-4.9l-2.7-2.7.5-.5 2.2 2.3v-2.9h1v3l2.3-2.4.5.5-2.8 2.9v4.8l4.4-2.4 1.1-3.8.7.3-1 3 2.6-1.3.5.9-2.5 1.3 3 .9-.2.7-3.7-1-4.4 2.3 4.2 2.5 3.8-.8.1.6-3.1.7 2.5 1.6-.6 1-2.4-1.5.7 2.9-.7.2-.8-3.6-4.2-2.7v4.8l2.8 2.9-.5.5-2.3-2.4v2.8h-1V591l-2.2 2.3-.5-.5 2.7-2.7V585l-4.4 2.3-1.1 3.7-.7-.2 1-3-2.5 1.3-.4-1zm786.2 140-3.2-.9.2-.6 3.8 1.1 4.3-2.3-4.4-2.7-3.6.8-.1-.6 3-.7-2.3-1.4.5-.9 2.4 1.5-.7-3.2.7-.2.9 4v-.1l4.1 2.6v-5l-2.7-2.6.5-.5 2.2 2.2v-2.8h1v3l2.4-2.4.5.5-2.8 2.8h-.1v4.8l4.4-2.4 1.2-3.7.6.2-.9 3 2.5-1.3.5 1-2.5 1.3 3 .9-.2.7-3.6-1.1-4.5 2.3 4.2 2.6 3.9-.9v.7l-3.1.7 2.5 1.6-.5.9-2.5-1.5.7 3-.6.2-.8-3.7-4.3-2.7v4.9l2.9 2.8-.5.5-2.4-2.3v2.8h-1v-2.6l-2.2 2.1-.5-.5 2.7-2.6V725l-4.4 2.3-1.1 3.7-.6-.2 1-3-2.5 1.2-.5-.8zM339 576.2l-3-1 .2-.6 3.7 1 4.3-2.2-4.2-2.6-3.7.8-.2-.7 3-.7-2.2-1.4.5-.8 2.4 1.5-.7-3.3.6-.2.9 4v-.1l4.2 2.7v-5l-2.7-2.7.5-.5 2.2 2.3v-2.9h1v3l2.3-2.4.5.5-2.8 2.9v4.8l4.4-2.4 1.1-3.8.6.2-1 3.2 2.7-1.4.5.9-2.5 1.3 3 .9-.2.7-3.7-1-4.4 2.3 4.1 2.5h.1l3.8-.8.1.6-3.2.7 2.6 1.6-.6.9-2.4-1.5.7 3-.7.2-.8-3.7-4.2-2.6v4.8l2.8 2.9-.5.5-2.3-2.4v2.8h-1v-2.7l-2.2 2.3-.5-.5 2.7-2.7v-5.1l-4.4 2.3-1.1 3.7-.7-.2 1-3-2.5 1.3-.4-1zm63.5 304-3.1-1 .2-.7 3.8 1.1 4.3-2.3-4.3-2.6-3.7.8-.2-.6 3.1-.8-2.3-1.4.5-.8 2.4 1.5-.7-3.2.6-.2.8 3.8h.1v.1l4.2 2.6v-5l-2.7-2.6.5-.5 2.2 2.2v-2.9h1v3l2.3-2.3.5.5-2.8 2.8v4.8l4.4-2.4 1.1-3.7.6.2-1 3.1 2.7-1.4.5 1-2.4 1.3 2.9.9-.2.6-3.6-1-4.5 2.3 4 2.6 4-.9.1.7-3.1.7 2.5 1.6-.6.8-2.4-1.5.7 3.1-.7.1-.8-3.7-4.2-2.6v4.9l2.8 2.8-.5.5-2.3-2.4v2.8h-1v-2.7l-2.2 2.3-.5-.5 2.7-2.6v-5.2l-4.4 2.4-1.1 3.7-.7-.2.9-3-2.4 1.2-.4-.9zM50.7 713l-3.1-.9.2-.7 3.8 1.1 4.2-2.2-4.2-2.7-3.7.8-.1-.6 3-.7-2.2-1.4.4-1 2.4 1.5-.7-3.1.7-.2.9 3.8 4.1 2.6v-4.9l-2.7-2.7.5-.4 2.2 2.1v-2.8h1v3l2.4-2.3.4.4-2.7 2.8-.1.1v4.8l4.4-2.4 1.2-3.7.6.2-.9 3 2.5-1.3.5.9-2.5 1.3 3 .9-.2.7-3.7-1-4.4 2.3 4.2 2.6 3.9-.9v.7l-3 .7 2.5 1.6-.6 1-2.5-1.6.7 3-.6.1-.8-3.5-4.3-2.7v4.7l.1.1 2.7 2.8-.4.5-2.4-2.4v2.8h-1v-2.6l-2.2 2.2-.5-.5 2.7-2.7v-5.1l-4.4 2.3-1.1 3.7-.6-.2.9-3-2.5 1.3-.4-.9zm1331.6-25.5-3.2-.9.2-.6 3.7 1h.2l4.2-2.2-4.4-2.7-3.6.8v-.6l3-.7-2.4-1.4.6-.9 2.4 1.5-.7-3.2.6-.1.9 3.8 4.1 2.6v-5l-2.6-2.6.4-.5 2.2 2.2v-2.8h1v3l2.4-2.4.5.5-2.8 2.8v4.9l4.3-2.4 1.1-3.8.7.2-1 3.1 2.7-1.4.4 1-2.5 1.3 3 .9-.2.7-3.6-1.1-4.5 2.3 4.2 2.6 3.8-.9.2.7-3.2.7 2.5 1.6-.5.9-2.5-1.5.7 3-.6.2-.8-3.7-4.3-2.7v4.9l3 2.8-.6.5-2.4-2.3v2.8h-1v-2.6l-2.2 2.1-.4-.5 2.6-2.6v-5.1l-4.4 2.3-1 3.7-.7-.2.8-3-2.3 1.2-.5-.8zM1134.5 921l-3-.9.1-.6 3.7 1 4.3-2.2-4.2-2.6-3.7.8v-.7l2.9-.7-2.3-1.4.6-.9 2.4 1.5-.7-3.2.6-.1.8 3.8 4.2 2.6v-5l-2.6-2.6.4-.5 2.2 2.2v-2.8h1v3l2.4-2.4.5.5-2.9 2.9v4.8l4.4-2.4 1.1-3.7.7.2-.9 3 2.5-1.3.5.9-2.5 1.3 3 .9-.2.7-3.7-1-4.3 2.3 4.1 2.5 3.8-.8.2.6-3.2.7 2.5 1.6-.5 1-2.3-1.5.6 2.9-.7.2-.8-3.6-4.3-2.7v4.8l3 2.9-.6.5-2.4-2.4v2.8h-1v-2.6l-2.2 2.2-.5-.5 2.7-2.7v-5l-4.3 2.2-1.2 3.7-.6-.2.9-3-2.4 1.3-.5-1zm274.3-344.3-3-.9.2-.7 3.6 1.2 4.3-2.3-4.3-2.7-3.6.8v-.6l2.9-.7-2.3-1.4.6-.9 2.3 1.4-.7-3.1.7-.2.9 3.9 4.1 2.6v-5l-2.7-2.6.5-.5 2.2 2.2v-2.8h1v3l2.4-2.4.4.5-2.7 2.8v4.8l4.3-2.4 1.1-3.6.7.1-.9 3 2.5-1.3.5 1-2.5 1.3 3 .9-.2.6-3.6-1-4.5 2.3 4.2 2.6 3.8-.9.2.7-3.2.7 2.5 1.6-.6.9-2.4-1.5.7 3-.6.2-.8-3.6-4.3-2.7v4.8l.1.1 2.7 2.7-.4.5-2.4-2.3v2.8h-1V581l-2.2 2.1-.5-.5 2.7-2.7v-5l-4.4 2.2-1 3.8-.8-.2 1-3.1-2.5 1.3-.4-.9zm-1111.7 87-5.7-1.6.4-1.2 6.9 2 3-1.6-2.6-.7.2-.7 3.2 1 4.2-2.2-4.1-2.6-3.2.7-.2-.6 2.5-.6-2.8-1.8-6.9 1.6-.3-1.3 5.6-1.3-4.2-2.6 1-1.6 4.4 2.7-1.4-5.8 1.3-.4 1.7 7.2 2.8 1.8-.6-2.8.6-.2.7 3.5 4.1 2.5v-4.7l-2.4-2.4.5-.5 2 1.9V648l-5-5 .8-1 4.1 4.1v-5.2h2v5.3l4.1-4.2 1 1-5.2 5.2v3.1l2-1.9.4.5-2.4 2.4v4.7l4.2-2.2 1-3.3.6.2-.7 2.6 2.8-1.5 2.1-7 1.3.3-1.8 5.8 5-2.6.7 1.7-4.6 2.5 5.5 1.6-.4 1.2-6.6-2-3 1.6 2.4.8-.2.6-3.1-.9-4.3 2.3 4 2.5 3.3-.8.2.7-2.8.6 2.8 1.7 7.2-1.6.3 1.3-5.9 1.3 4.6 2.9-1 1.6-4.5-2.8 1.4 5.6-1.3.3-1.7-6.9-2.7-1.7.5 2.5-.6.2-.8-3.2-3.9-2.5v4.6l2.4 2.5-.5.5-1.9-2v3.4l.1.1 5 5.1-.9.9-4.2-4.2v5.1h-1.9v-4.9l-4 4-1-1 5-5V666l-1.9 2-.5-.5 2.4-2.4v-4.9l-4.3 2.3-1 3.2-.7-.2.8-2.5-3 1.6-2 6.7-1.2-.3 1.6-5.5-4.3 2.3-1-1.7zm1025 133.5a2.7 2.7 0 0 1-2.7 2.5 2.5 2.5 0 0 1-2.5-2.5c0-1.4 1.2-2.5 2.5-2.5 1.4 0 2.6 1 2.6 2.5m11.5 45c0 3.2-2.5 5.6-5.6 5.6-3 0-5.6-2.5-5.7-5.6 0-3.1 2.6-5.7 5.7-5.7 3 0 5.5 2.5 5.6 5.6zm-801.6-3c0 5-4 9.1-9 9.1s-9-4.1-9-9.1 4-9 9-9c4.9 0 9 4 9 8.9zM207.4 577c0 1.3-1.2 2.4-2.6 2.4a2.5 2.5 0 0 1-2.5-2.5c0-1.4 1.2-2.5 2.5-2.5 1.4 0 2.6 1.1 2.6 2.5zm81.6 4.4c0 1.3-1.2 2.5-2.6 2.5a2.5 2.5 0 0 1-2.5-2.5c0-1.4 1.1-2.6 2.5-2.6s2.5 1.2 2.5 2.6zm207.8 332.9c0 1.8-1.5 3.3-3.3 3.3a3.3 3.3 0 0 1-3.3-3.3 3.3 3.3 0 0 1 3.3-2.7c1.6 0 3 1.1 3.2 2.7zM181 708.5a3.3 3.3 0 0 1-3.2 2.7 3.3 3.3 0 0 1-3.3-2.8c0-1.8 1.4-3.2 3.2-3.2 1.7 0 3.2 1.5 3.2 3.3zm858.2-11.2c0 1.8-1.5 3.3-3.3 3.3a3.3 3.3 0 0 1-3.3-3.3 3.3 3.3 0 0 1 3.3-2.7c1.6 0 3 1.1 3.2 2.7zm377.8 35.2c0 1.8-1.4 3.3-3.2 3.3a3.3 3.3 0 0 1-3.3-3.3c0-1.8 1.5-3.3 3.3-3.3 1.8 0 3.3 1.5 3.3 3.3zm-794.5 46.7c0 1.8-1.5 3.3-3.3 3.3a3.3 3.3 0 0 1-3.2-3.3c0-1.8 1.4-3.3 3.2-3.3 1.8 0 3.3 1.5 3.3 3.3M72.6 621.3c0 1.8-1.5 3.3-3.3 3.3a3.3 3.3 0 0 1-3.2-3.3c0-1.8 1.4-3.2 3.2-3.2 1.8 0 3.3 1.4 3.3 3.2m56.8 292.9c0 1.8-1.5 3.3-3.3 3.3a3.3 3.3 0 0 1-3.2-3.3c0-1.8 1.4-3.3 3.2-3.3 1.8 0 3.3 1.5 3.3 3.3M55.8 803c0 1.8-1.4 3.3-3.2 3.3a3.3 3.3 0 0 1-3.3-3.3c0-1.8 1.5-3.3 3.3-3.3 1.8 0 3.2 1.5 3.2 3.3m1090.5-54c0 1.8-1.4 3.2-3.2 3.2a3.3 3.3 0 0 1-3.3-3.2c0-1.8 1.5-3.3 3.3-3.3 1.8 0 3.2 1.5 3.2 3.3m112.6-71c0 1.8-1.5 3.3-3.3 3.3a3.3 3.3 0 0 1-3.2-3.3c0-1.8 1.4-3.3 3.2-3.3 1.8 0 3.3 1.5 3.3 3.3M441 814.4c0 3.1-2.7 5.7-5.8 5.7-3 0-5.6-2.6-5.6-5.7s2.5-5.7 5.6-5.7c3.1 0 5.7 2.6 5.7 5.7M144.8 678c0 3.1-2.6 5.6-5.7 5.6-3 0-5.6-2.5-5.7-5.6 0-3.1 2.6-5.7 5.7-5.7 3 0 5.6 2.6 5.6 5.7m1160.6-24.5c0 3-2.5 5.6-5.6 5.6-3 0-5.6-2.5-5.7-5.6 0-3.1 2.6-5.7 5.7-5.7 3 0 5.6 2.6 5.6 5.7m-349 5.6c0 3.1-2.6 5.7-5.7 5.7a5.7 5.7 0 0 1-5.7-5.7c0-3 2.6-5.6 5.7-5.6 3 0 5.6 2.5 5.6 5.6M205 609.8c0 3.1-2.5 5.7-5.6 5.7a5.7 5.7 0 0 1-5.7-5.7c0-3 2.6-5.6 5.7-5.6 3 0 5.6 2.5 5.6 5.6m457-25c0 3-2.7 5.6-5.8 5.6-3 0-5.5-2.5-5.6-5.6 0-3.1 2.5-5.7 5.6-5.7 3.1 0 5.7 2.6 5.7 5.7m245.3 60.7c0 3-2.5 5.6-5.6 5.6-3 0-5.6-2.5-5.7-5.6 0-3.1 2.6-5.7 5.7-5.7 3 0 5.6 2.6 5.6 5.7M807 643.1c0 3.1-2.6 5.7-5.7 5.7-3 0-5.6-2.6-5.6-5.7a5.7 5.7 0 0 1 11.3 0m55.2 167.3c0 3-2.6 5.6-5.7 5.6-3 0-5.5-2.5-5.6-5.6 0-3.1 2.5-5.7 5.6-5.7 3.1 0 5.7 2.6 5.7 5.7M1405 921.5c0 3.1-2.5 5.7-5.6 5.7a5.7 5.7 0 0 1-5.7-5.7c0-3 2.6-5.6 5.7-5.6 3 0 5.6 2.5 5.6 5.6m-120.9-190.9c0 3-2.5 5.6-5.6 5.6-3 0-5.6-2.5-5.7-5.6 0-3.1 2.6-5.7 5.7-5.7 3 0 5.6 2.6 5.6 5.7M182.2 863.5c0 3-2.5 5.6-5.6 5.6-3 0-5.6-2.5-5.7-5.6 0-3.1 2.6-5.7 5.7-5.7 3 0 5.6 2.6 5.6 5.7M228 932c0 3.1-2.6 5.7-5.7 5.7a5.7 5.7 0 0 1-5.7-5.7c0-3 2.6-5.6 5.7-5.6 3 0 5.6 2.5 5.6 5.6zm-31.7-129c0 3.1-2.6 5.7-5.7 5.7-3 0-5.6-2.6-5.6-5.7a5.7 5.7 0 0 1 11.3 0m938.1-143.9c0 3.1-2.6 5.7-5.7 5.7-3 0-5.6-2.6-5.6-5.7a5.7 5.7 0 0 1 11.3 0m-404.6 9.8c0 3-2.5 5.6-5.6 5.6-3 0-5.6-2.5-5.7-5.6 0-3.1 2.6-5.7 5.7-5.7 3 0 5.6 2.6 5.6 5.7m16.6-94.6c0 3.1-2.5 5.7-5.6 5.7a5.7 5.7 0 0 1-5.7-5.7c0-3 2.6-5.6 5.7-5.6 3 0 5.6 2.5 5.6 5.6m-199 91c0 3.1-2.6 5.7-5.7 5.7a5.7 5.7 0 0 1-5.7-5.7 5.7 5.7 0 0 1 11.3 0m-99.5-96c0 3.1-2.6 5.7-5.7 5.7-3 0-5.6-2.6-5.6-5.7s2.5-5.6 5.6-5.6c3.1 0 5.7 2.5 5.7 5.6m-18.4 52.1c0 3.1-2.6 5.7-5.7 5.7a5.7 5.7 0 0 1-5.7-5.7 5.7 5.7 0 0 1 11.3 0zm577.8 112.3c0 5-4 9.1-9 9.1s-9-4-9-9 4-9.1 9-9.1c4.9 0 9 4 9 9m307.5 186.7c0 5-4 9-9 9s-9.2-4-9.2-9a9 9 0 0 1 18.1 0zM79.8 589.3a9 9 0 0 1-18.1 0c0-5 4-9 9-9s9 4 9 9m764.8 396.3c0 5-4 9.1-9 9.1s-9-4-9-9 4-9.1 9-9.1c4.9 0 9 4 9 9m577.3 2.6-3-.9.1-.6 3.7 1 4.3-2.3-4-2.6h-.1l-3.8.8-.2-.6 3.2-.7-2.5-1.6.6-.9 2.4 1.5-.7-3 .6-.1.8 3.5 4.2 2.7v-4.9l-2.7-2.7.4-.5 2.3 2.2v-2.7h1v2.7l2.3-2.2.5.5-2.8 2.7v5l4.5-2.4 1-3.6.7.2-.9 3 2.4-1.3.5 1-2.4 1.3 3.1.9-.2.7-3.7-1.2-4.3 2.3 4.3 2.7 3.5-.9.2.7-3 .7 2.3 1.4-.6 1-2.3-1.4.7 3-.7.2-.8-3.8-4.3-2.7v4.9l2.8 2.7-.5.5-2.3-2.2v2.8h-1v-2.8l-2.3 2.2-.5-.5 2.8-2.7v-5l-4.2 2.3-1.2 3.9-.7-.2 1-3.2-2.7 1.4-.4-.8zm-30.5-369.1c0 5-4 9.1-9 9.1s-9-4-9-9 4-9.1 9-9.1c4.9 0 9 4 9 9m-722 215c0 5-4 9.1-9 9.1s-9-4-9-9 4-9.1 9-9.1c4.9 0 9 4 9 9m409 34c0 5-4 9.1-9 9.1s-9-4-9-9 4-9.1 9-9.1c4.9 0 9 4 9 9m-780-47c0 5-4 9-9 9s-9-4-9-9 4-9 9-9 9 4 9 9m-226 105.4a9 9 0 0 1-9 8.9 9 9 0 0 1-.2-18c5 0 9 4 9 9zm1015-350.4c0 3.1-2.5 5.7-5.6 5.7a5.7 5.7 0 0 1-5.7-5.7c0-3 2.6-5.6 5.7-5.6 3 0 5.6 2.5 5.6 5.6M1212 927.8c0 3.1-2.5 5.7-5.6 5.7a5.7 5.7 0 0 1-5.7-5.7c0-3 2.6-5.6 5.7-5.6 3 0 5.6 2.5 5.6 5.6M469.8 713.4c0 3-2.6 5.6-5.7 5.6-3 0-5.5-2.5-5.6-5.6 0-3.1 2.5-5.7 5.6-5.7 3.1 0 5.7 2.6 5.7 5.7m37-72.5c0 1.8-1.5 3.2-3.3 3.2a3.3 3.3 0 0 1-3.2-3.2c0-1.8 1.5-3.3 3.2-3.3 1.8 0 3.3 1.5 3.3 3.3m410.6 160.9c0 1.7-1.5 3.2-3.2 3.2a3.3 3.3 0 0 1-3.3-3.2c0-1.8 1.5-3.3 3.2-3.3 1.8 0 3.3 1.5 3.3 3.3m-666-143.3c0 1.8-1.5 3.3-3.3 3.3a3.3 3.3 0 0 1-3.2-3.3c0-1.7 1.4-3.2 3.2-3.2 1.8 0 3.3 1.5 3.3 3.2m632-46.8c0 1.8-1.4 3.3-3.2 3.3a3.3 3.3 0 0 1-3.3-3.3c0-1.8 1.5-3.2 3.3-3.2 1.8 0 3.2 1.4 3.2 3.2m-511 95.9c0 1.8-1.4 3.2-3.2 3.2a3.3 3.3 0 0 1-3.3-3.2c0-1.8 1.5-3.3 3.3-3.3 1.8 0 3.2 1.5 3.2 3.3m-91.9 185.8c0 1.8-1.5 3.2-3.3 3.2a3.3 3.3 0 0 1-3.2-3.2c0-1.8 1.4-3.3 3.2-3.3 1.8 0 3.3 1.5 3.3 3.3m-126-16.1c0 1.4-1.2 2.5-2.6 2.5a2.5 2.5 0 0 1-2.5-2.5c0-1.4 1.1-2.5 2.5-2.5s2.5 1.1 2.5 2.5m252.2-290c0 1.4-1 2.5-2.5 2.5a2.5 2.5 0 0 1-2.5-2.5c0-1.4 1.1-2.5 2.5-2.5s2.5 1.1 2.5 2.5m449.6 288.4a2.6 2.6 0 0 1-2.6 2.5 2.5 2.5 0 0 1-2.5-2.5c0-1.4 1.2-2.6 2.6-2.6 1.3 0 2.5 1.2 2.5 2.6M967 572c0 1.4-1 2.5-2.5 2.5a2.5 2.5 0 0 1-2.5-2.5c0-1.4 1.2-2.5 2.5-2.5 1.4 0 2.5 1.1 2.5 2.5M758.7 721.5c0 1.4-1 2.5-2.5 2.5a2.5 2.5 0 0 1-2.5-2.5c0-1.4 1.1-2.5 2.5-2.5s2.5 1.1 2.5 2.5m26.5 178.7c0 1.4-1.2 2.5-2.5 2.5a2.5 2.5 0 0 1-2.5-2.5c0-1.4 1-2.5 2.5-2.5 1.3 0 2.5 1.1 2.5 2.5m472.6-1.3c0 1.3-1 2.5-2.5 2.5a2.5 2.5 0 0 1-2.5-2.5c0-1.4 1.1-2.5 2.5-2.5s2.5 1 2.5 2.5M388.3 779.2c0 1.4-1.2 2.5-2.6 2.5a2.5 2.5 0 0 1-2.5-2.5c0-1.4 1.2-2.5 2.5-2.5 1.4 0 2.6 1.1 2.6 2.5m285.1-89.8c0 1.4-1.2 2.5-2.5 2.5a2.5 2.5 0 0 1-2.5-2.5c0-1.4 1-2.5 2.5-2.5 1.3 0 2.5 1.1 2.5 2.5m334.8 115.1c0 1.4-1 2.5-2.5 2.5a2.5 2.5 0 0 1-2.5-2.5c0-1.4 1.1-2.5 2.5-2.5s2.5 1.1 2.5 2.5m158.4-176c0 1.3-1 2.5-2.5 2.5a2.5 2.5 0 0 1-2.5-2.5c0-1.4 1.1-2.5 2.5-2.5s2.5 1 2.5 2.5m-919.5 146c0 1.3-1 2.5-2.5 2.5a2.5 2.5 0 0 1-2.5-2.5c0-1.4 1.1-2.6 2.5-2.6s2.5 1.2 2.5 2.6m596.1-36.8c0 1.4-1 2.5-2.5 2.5a2.5 2.5 0 0 1-2.5-2.5c0-1.4 1.1-2.5 2.5-2.5s2.5 1.1 2.5 2.5M531.6 992a9 9 0 0 1 18.1 0c0 5-4 9-9 9s-9-4-9-9"/>
  <path fill="#fff" fill-opacity=".1" d="M1296.1 636a9.1 9.1 0 0 1-8.6 11.9 9 9 0 1 1 5.4-16.4h.2c1.8 0 3.3 1.5 3.3 3.3 0 .4 0 .9-.3 1.3M189.4 826c0 1.5-1.2 2.6-2.6 2.6a2.5 2.5 0 0 1-2.5-2.5c0-1.4 1.2-2.5 2.5-2.5 1.4 0 2.6 1 2.6 2.5m305.8-71.9c0-5 4.1-9.1 9.1-9.1s9 4 9 9-4 9-8.9 9.1c-5 0-9.1-4-9.2-9m-147-3.4c0-5 4-9.1 9-9.1s9 4 9 9-4 9-8.9 9.1c-5 0-9-4-9.1-9m32-113.3c0 1.4-1.2 2.5-2.6 2.5a2.5 2.5 0 0 1-2.5-2.5c0-1.4 1.2-2.5 2.5-2.5 1.4 0 2.6 1.1 2.6 2.5m4 91.1c0 1.8-1.5 3.2-3.3 3.2a3.3 3.3 0 0 1-3.3-3.2c0-1.8 1.5-3.3 3.3-3.3 1.8 0 3.3 1.5 3.3 3.3m37.8-59c0 1.8-1.5 3.2-3.2 3.2a3.3 3.3 0 0 1-3.3-3.2c0-1.8 1.5-3.3 3.2-3.3 1.8 0 3.3 1.5 3.3 3.3m13.6-75.8c0 3.1-2.6 5.7-5.7 5.7-3 0-5.6-2.6-5.6-5.7a5.7 5.7 0 0 1 11.3 0m91.6 48.8c0 1.4-1.1 2.5-2.5 2.5a2.5 2.5 0 0 1-2.5-2.5c0-1.4 1-2.5 2.5-2.5 1.4 0 2.5 1.1 2.5 2.5m4 91.1a3.3 3.3 0 0 1-3.2 2.7c-1.6 0-3-1.1-3.3-2.7 0-1.8 1.4-3.3 3.2-3.3 1.8 0 3.3 1.5 3.3 3.3m37.8-59.1c0 1.8-1.4 3.3-3.2 3.3a3.3 3.3 0 0 1-3.3-3.3c0-1.8 1.5-3.2 3.3-3.2 1.8 0 3.2 1.4 3.2 3.2m13.6-75.7c0 3.1-2.6 5.7-5.7 5.7-3 0-5.6-2.6-5.6-5.7s2.5-5.6 5.6-5.6c3.1 0 5.7 2.5 5.7 5.6m-99.6-9.1a9.1 9.1 0 0 1-18.2.1c0-5 4.1-9.1 9.1-9.1s9 4 9 9zM450.4 702c0-1.4 1.2-2.5 2.5-2.5 1.4 0 2.6 1.1 2.6 2.5a2.6 2.6 0 0 1-2.6 2.5 2.5 2.5 0 0 1-2.5-2.5m-5-91c0-1.8 1.4-3.3 3.2-3.3 1.6.3 2.7 1.7 2.7 3.3 0 1.5-1.1 3-2.7 3.2a3.3 3.3 0 0 1-3.2-3.2m-37.2 59.4c0-1.8 1.5-3.3 3.3-3.3 1.8 0 3.2 1.5 3.2 3.3 0 1.8-1.4 3.3-3.2 3.3a3.3 3.3 0 0 1-3.3-3.3m-12.7 75.9c0-3.1 2.6-5.7 5.7-5.7 2.8.4 5 2.8 5 5.6 0 2.9-2.2 5.3-5 5.7-3 0-5.6-2.5-5.7-5.6m-92.2-47.7c0-1.4 1.2-2.5 2.6-2.5 1.3 0 2.5 1.1 2.5 2.5a2.5 2.5 0 0 1-2.6 2.5 2.5 2.5 0 0 1-2.5-2.5m-5-91c0-1.8 1.5-3.3 3.3-3.3a3.3 3.3 0 0 1 0 6.5 3.3 3.3 0 0 1-3.3-3.2M261.1 667c0-1.9 1.5-3.4 3.3-3.4 1.8 0 3.3 1.5 3.3 3.3 0 1.8-1.5 3.3-3.3 3.3a3.3 3.3 0 0 1-3.3-3.2m-12.7 75.8c0-3.1 2.6-5.7 5.7-5.7 2.8.4 5 2.8 5 5.6 0 2.9-2.2 5.3-5 5.7-3 0-5.6-2.5-5.7-5.6M1025 873.2a3.3 3.3 0 0 1-3.3-3.3c0-1.8 1.4-3.2 3.2-3.2 1.8 0 3.3 1.4 3.3 3.2 0 1.8-1.5 3.3-3.2 3.3m-782-87.4a9 9 0 0 1 1 3.3 9 9 0 0 1-18.2 0 9.1 9.1 0 0 1 8-8.3 5.6 5.6 0 0 1 5.3-4.1c3.1 0 5.7 2.6 5.7 5.7a5.7 5.7 0 0 1-1.8 3.4m-60-88.3a2.5 2.5 0 0 1-2.5-2.5c0-1.4 1.1-2.5 2.5-2.5s2.5 1.1 2.5 2.5-1 2.5-2.4 2.5M121 769.9c1.4 0 2.6 1.1 2.6 2.5s-1.1 2.5-2.5 2.5-2.5-1-2.5-2.4 1-2.6 2.4-2.6m90.9-7c1.8 0 3.3 1.5 3.3 3.2 0 1.8-1.4 3.3-3.2 3.3a3.3 3.3 0 0 1-3.3-3.1v-.2c0-1.7 1.4-3.2 3.2-3.2M151.4 727c1.8 0 3.3 1.5 3.3 3.3a3.2 3.2 0 1 1-3.4-3.3zm-76.2-11h.2c2.8.4 5 2.8 5 5.6 0 2.9-2.2 5.3-5 5.7-3 0-5.6-2.5-5.7-5.5 0-3 2.4-5.7 5.5-5.8m45.7-93.2c1.4 0 2.6 1.1 2.6 2.5s-1.1 2.5-2.5 2.5-2.5-1-2.5-2.4 1-2.6 2.4-2.6m90.9-7c1.9 0 3.4 1.4 3.4 3.2a3.3 3.3 0 0 1-6.5.1c0-1.8 1.3-3.3 3-3.3zm-60.3-35.9h.2a3.3 3.3 0 0 1 0 6.5 3.3 3.3 0 0 1-3.3-3.1v-.2c0-1.7 1.4-3.2 3.1-3.2m-76.1-11.1h.2c2.8.4 5 2.8 5 5.6 0 2.9-2.2 5.3-5 5.7-3 0-5.6-2.5-5.7-5.6 0-3 2.5-5.6 5.5-5.7m-5.8 99.9h.3a9 9 0 1 1-9 9.1c0-4.9 3.9-9 8.7-9zm22.5 36.9a3.3 3.3 0 0 1-3.3-3.3c0-1.8 1.5-3.2 3.3-3.2 1.7 0 3.2 1.4 3.2 3a3.3 3.3 0 0 1-3 3.5zm60.8 35.2h-.2a3.3 3.3 0 0 1-3.2-3.3c0-1.8 1.4-3.2 3.2-3.2 1.8 0 3.2 1.3 3.3 3v.2c0 1.8-1.4 3.2-3.1 3.3M229 751h-.2a5.7 5.7 0 0 1-5.7-5.7 5.7 5.7 0 0 1 5.7-5.1c2.8 0 5.2 2 5.6 4.8v.3c0 3-2.4 5.5-5.4 5.7m4.7-100h-.4c-5 0-9-4-9-9a9 9 0 0 1 9-9c5 0 9 4 9 9a9 9 0 0 1-8.6 9m-49.2 193.7a2.5 2.5 0 0 1-2.5-2.6c0-1.3 1-2.5 2.5-2.5 1.4 0 2.5 1.1 2.5 2.5s-1 2.5-2.4 2.6m-90.8 8h-.2a3.3 3.3 0 0 1-3.2-3.3c0-1.7 1.5-3.2 3.2-3.2 1.8 0 3.2 1.4 3.3 3.1 0 1.8-1.3 3.3-3.1 3.4m60.6 35.2a3.3 3.3 0 0 1-3.3-3.3c0-1.8 1.5-3.2 3.3-3.2 1.7 0 3.2 1.4 3.3 3 0 1.9-1.4 3.4-3.2 3.5zm76.4 10.1h-.3c-3 0-5.5-2.5-5.6-5.6.3-2.9 2.8-5 5.7-5 2.8 0 5.2 2 5.6 4.8.1 3-2.3 5.7-5.4 5.9zm-37.3 19.1c0 1.8-1.5 3.3-3.3 3.3a3.3 3.3 0 0 1-3.3-3.3 3.3 3.3 0 0 1 3.3-2.7c1.5 0 3 1.1 3.2 2.7zm37.8-59c0 1.8-1.5 3.3-3.2 3.3a3.3 3.3 0 0 1-3.3-3.3c0-1.8 1.5-3.2 3.3-3.2 1.7 0 3.2 1.4 3.2 3.2m-86.1-84.8c0 5-4 9.1-9 9.1a9 9 0 0 1 0-18.1c5 0 9 4 9 9m191.3 57.9c0 1.3-1.1 2.5-2.5 2.5a2.5 2.5 0 0 1-2.5-2.5c0-1.4 1.1-2.6 2.5-2.6s2.5 1.2 2.5 2.6m4 91c0 1.8-1.5 3.3-3.3 3.3a3.3 3.3 0 0 1-3.2-3.3c0-1.8 1.4-3.2 3.2-3.2 1.8 0 3.3 1.4 3.3 3.2m37.8-59c0 1.8-1.4 3.3-3.2 3.3a3.3 3.3 0 0 1-3.3-3.3c0-1.8 1.5-3.3 3.3-3.3 1.8 0 3.2 1.5 3.2 3.3m13.6-75.7c0 3-2.6 5.6-5.7 5.6-3 0-5.5-2.5-5.6-5.6 0-3.1 2.5-5.7 5.6-5.7 3.1 0 5.7 2.6 5.7 5.7m24 203.5c0 3-2.6 5.6-5.7 5.6-3 0-5.6-2.6-5.6-5.7a5.7 5.7 0 0 1 11.3 0zM259.6 890.6c0-1.4 1.2-2.6 2.5-2.6 1.4 0 2.6 1.2 2.6 2.5 0 1.4-1.2 2.5-2.5 2.6h-.1a2.5 2.5 0 0 1-2.5-2.5m-5-91c0-1.8 1.5-3.3 3.3-3.3 1.7 0 3.2 1.4 3.2 3.2 0 1.8-1.4 3.3-3.2 3.3a3.3 3.3 0 0 1-3.3-3.2M217.4 859c0-1.8 1.5-3.3 3.3-3.3 1.8 0 3.2 1.5 3.2 3.3 0 1.7-1.4 3.2-3.2 3.2a3.3 3.3 0 0 1-3.3-3.2m-12.7 75.9a5.7 5.7 0 0 1 11.3 0c0 3-2.5 5.5-5.6 5.6-3 0-5.6-2.5-5.7-5.6m99.7 7.9c0-5 4.1-9.1 9.1-9.1s9 4 9 9-4 9-8.9 9h-.2a9 9 0 0 1-9-8.9m-191.8-55.6c0-1.4 1-2.6 2.5-2.6 1.3 0 2.5 1.2 2.5 2.5a2.6 2.6 0 0 1-2.6 2.6 2.5 2.5 0 0 1-2.5-2.5zm-5.1-91v-.6c0-1.8 1.4-3.3 3.3-3.3a3.3 3.3 0 0 1 3.2 3.9c0 1.7-1.4 3.2-3.2 3.2a3.3 3.3 0 0 1-3.3-3.2m-37.2 59.4c0-1.8 1.5-3.3 3.3-3.3a3.3 3.3 0 0 1 0 6.5 3.3 3.3 0 0 1-3.3-3.2m-12.7 75.9a5.7 5.7 0 0 1 11.3 0c0 3-2.5 5.5-5.5 5.6h-.1c-3 0-5.6-2.5-5.7-5.6m99.8 7.9a9 9 0 1 1 18.1-.1c0 5-4 9-9 9-5 .2-9-3.9-9.1-8.9m856.9-348.9c3.1 0 5.7 2.5 5.7 5.6 0 3.1-2.6 5.7-5.7 5.7a5.7 5.7 0 0 1 0-11.3m106 131.2a2.5 2.5 0 0 1-2.5-2.5c0-1.4 1.1-2.6 2.5-2.6s2.5 1.2 2.5 2.5c0 1.4-1.1 2.6-2.5 2.6m-91 4.4a3.3 3.3 0 0 1-3.3-3.2 3.3 3.3 0 0 1 3.3-2.7c1.5 0 3 1.1 3.2 2.7 0 1.8-1.4 3.2-3.2 3.2m59.2 37.6a3.3 3.3 0 0 1-3.3-3.3c0-1.8 1.5-3.2 3.3-3.2 1.8 0 3.2 1.4 3.2 3.2 0 1.8-1.4 3.3-3.2 3.3m75.8 13.2a5.7 5.7 0 0 1-5.7-5.7c0-3 2.6-5.6 5.7-5.6 2.8.4 5 2.8 5 5.6 0 2.9-2.2 5.3-5 5.7m8.6-99.7a9 9 0 0 1 0-18.1 9 9 0 0 1 0 18.1M1116 868.7a2.5 2.5 0 0 1-2.5-2.5c0-1.4 1-2.5 2.5-2.5 1.3 0 2.5 1.1 2.5 2.5s-1.1 2.5-2.5 2.5m-31.8 42.1a3.3 3.3 0 0 1-3.3-3.3c0-1.8 1.4-3.3 3.2-3.3 1.8 0 3.3 1.5 3.3 3.3 0 1.8-1.5 3.2-3.3 3.2zM1160 924a5.7 5.7 0 0 1-5.7-5.7c0-3.1 2.5-5.7 5.6-5.7 3.1 0 5.7 2.6 5.7 5.6 0 3.2-2.6 5.7-5.6 5.7zm6 70.7c-3 0-5.5-2.5-5.6-5.6 0-3.1 2.5-5.7 5.6-5.7 3.1 0 5.7 2.6 5.7 5.7 0 3-2.6 5.6-5.7 5.6m2.5-170.4c-5 0-9.1-4.1-9.1-9.1s4.1-9 9-9c5 0 9.1 4 9.1 9s-4 9-9 9zm-112.3-32c1.4 0 2.5 1.1 2.5 2.5s-1.1 2.5-2.5 2.5a2.5 2.5 0 0 1-2.5-2.5c0-1.4 1.1-2.5 2.5-2.5m91-5.5c1.8 0 3.3 1.4 3.3 3.2a3.3 3.3 0 0 1-3.2 2.7c-1.6 0-3-1.1-3.3-2.7 0-1.7 1.4-3.2 3.2-3.2m-59.7-36.9h.6c1.8 0 3.3 1.4 3.3 3.3a3.3 3.3 0 0 1-3.9 3.2 3.3 3.3 0 0 1-3.2-3.2c0-1.8 1.4-3.3 3.2-3.3m-75.9-12.3c3.2 0 5.7 2.5 5.7 5.6 0 3.1-2.5 5.7-5.6 5.7-3 0-5.6-2.5-5.7-5.6 0-3.1 2.5-5.7 5.6-5.7m-7.4 99.7a9 9 0 0 1 0 18.1c-5 0-9-4-9-8.8v-.2c0-5 4-9 8.9-9zm54.6-192.1c1.4 0 2.5 1.1 2.5 2.5s-1 2.5-2.4 2.5a2.5 2.5 0 0 1-2.5-2.5c0-1.4 1-2.5 2.4-2.5m91-5.5c1.9 0 3.3 1.4 3.3 3.2 0 1.8-1.4 3.3-3.2 3.3a3.3 3.3 0 0 1-3.3-3.2c0-1.8 1.5-3.3 3.2-3.3m-59.6-36.9c1.8 0 3.3 1.5 3.3 3.3a3.3 3.3 0 0 1-3.2 2.7c-1.6 0-3-1.1-3.3-2.7 0-1.8 1.4-3.3 3.2-3.3m-250 124.1a2.5 2.5 0 1 1 3.8-3.3 2.5 2.5 0 0 1-3.8 3.3m-62.7-66.1a3.3 3.3 0 1 1 4.9-4.3 3.3 3.3 0 0 1-5 4.3zm10.1 69.4a3.3 3.3 0 1 1 4.8-4.5 3.3 3.3 0 0 1-4.8 4.5m39.5 66a5.7 5.7 0 1 1 7.4-8.7 5.7 5.7 0 0 1-7.4 8.7m81.1-58.5a9 9 0 1 1 16-5.9 9.1 9.1 0 0 1-16 6zM726 819.5a2.5 2.5 0 1 1 3.8-3.3 2.5 2.5 0 0 1-3.8 3.3m-62.8-66a3.3 3.3 0 1 1 4.9-4.3 3.3 3.3 0 0 1-5 4.3zm10.1 69.3a3.3 3.3 0 1 1 4.4-5 3.3 3.3 0 0 1-4.4 5m39.5 66.1a5.7 5.7 0 1 1 7.4-8.7 5.7 5.7 0 0 1-7.4 8.7m81.2-58.5a9 9 0 1 1 6.8 3.1 9.1 9.1 0 0 1-6.9-3.1zm-49-106a2.6 2.6 0 1 1-4.5 1.6c0-1.3 1.1-2.5 2.5-2.5.7 0 1.4.3 1.9.9zm63.4 65.3a3.3 3.3 0 1 1-4.9 4.4 3.3 3.3 0 0 1 5-4.4zm-10.9-69.2a3.3 3.3 0 1 1-4.2 5 3.3 3.3 0 0 1 4.2-5m-40.2-65.6a5.7 5.7 0 1 1-7.7 8.4 5.7 5.7 0 0 1 7.7-8.4m100.8-24.5a2.5 2.5 0 1 1-3.7 3.4 2.5 2.5 0 0 1 3.7-3.4m63.6 65.4a3.3 3.3 0 1 1-4.8 4.5 3.3 3.3 0 0 1 4.8-4.5m-11-69.3a3.3 3.3 0 1 1-4.6 4.7 3.3 3.3 0 0 1 4.6-4.7M870.5 561a5.7 5.7 0 1 1-8.5 7.4 5.7 5.7 0 0 1 8.5-7.5zM790 620.4a9 9 0 1 1-13.5 12 9 9 0 0 1 13.5-12m377.4 145.5a3.3 3.3 0 1 1 2.4 1c-.9 0-1.8-.3-2.4-1m177.1-26.5a2.5 2.5 0 1 1 3.8-3.3 2.5 2.5 0 0 1-3.8 3.3m-62.8-66.1a3.3 3.3 0 1 1 4.8-4.5 3.3 3.3 0 0 1-4.8 4.5m10.3 69.3a3.3 3.3 0 1 1 4.8-4.2 3.3 3.3 0 0 1-4.9 4.2zm39.4 66.1a5.7 5.7 0 1 1 7.4-8.7 5.7 5.7 0 0 1-7.4 8.7m81.1-58.5a9.1 9.1 0 1 1 13.7-12 9.1 9.1 0 0 1-13.7 12M1230.2 832a2.5 2.5 0 1 1 3.8-3.3 2.5 2.5 0 0 1-3.8 3.3m-52.6 3.3a3.3 3.3 0 1 1 4.8-4.5 3.3 3.3 0 0 1-4.8 4.5m39.4 66a5.7 5.7 0 1 1 8.6-7.4 5.7 5.7 0 0 1-8.5 7.4zm81.2-58.5A9 9 0 1 1 1312 831a9.1 9.1 0 0 1-13.7 12zm-49-106a2.5 2.5 0 1 1-3.8 3.3 2.5 2.5 0 0 1 3.8-3.3m63.5 65.4a3.3 3.3 0 1 1-4.9 4.3 3.3 3.3 0 0 1 5-4.3zm-10.9-69.2a3.3 3.3 0 1 1-5 4.3 3.3 3.3 0 0 1 5-4.4zm-40.3-65.7a5.7 5.7 0 1 1-7.2 8.8 5.7 5.7 0 0 1 7.2-8.8m100.9-24.4a2.5 2.5 0 1 1-3.8 3.3 2.5 2.5 0 0 1 3.8-3.3m63.6 65.3a3.3 3.3 0 1 1-5 4.4 3.3 3.3 0 0 1 5-4.4m-11-69.2a3.3 3.3 0 1 1-4.8 4.5 3.3 3.3 0 0 1 4.8-4.5m-40.2-65.6a5.7 5.7 0 1 1-7.7 8.4 5.7 5.7 0 0 1 7.7-8.4m-80.9 152.4c0-1.3 1.1-2.5 2.5-2.5s2.5 1.2 2.5 2.5c0 1.4-1.1 2.6-2.5 2.6a2.5 2.5 0 0 1-2.5-2.6m-41.9-32c0-1.8 1.5-3.3 3.3-3.3 1.8 0 3.2 1.5 3.2 3.3 0 1.8-1.4 3.3-3.2 3.3a3.3 3.3 0 0 1-3.3-3.3m-13.5 75.7a5.7 5.7 0 0 1 11.3 0c0 3.1-2.6 5.7-5.7 5.7-3 0-5.6-2.6-5.6-5.7m99.5 9.1c0-5 4.2-9 9.2-9 5 0 9 4 9 9s-4 9-9 9a9 9 0 0 1-9.1-9zm-191.1-57.8c0-1.4 1-2.5 2.5-2.5 1.3 0 2.5 1 2.5 2.5a2.6 2.6 0 0 1-2.6 2.5 2.5 2.5 0 0 1-2.5-2.5zm-4.1-91.1c0-1.8 1.5-3.3 3.3-3.3 1.8 0 3.3 1.5 3.3 3.3 0 1.8-1.5 3.3-3.3 3.3a3.3 3.3 0 0 1-3.3-3.3m-37.8 59c0-1.8 1.5-3.2 3.3-3.2 1.7 0 3.2 1.4 3.2 3.2 0 1.8-1.5 3.3-3.2 3.3a3.3 3.3 0 0 1-3.3-3.3m-13.6 75.8c0-3.1 2.6-5.7 5.7-5.7 3 0 5.6 2.6 5.6 5.7 0 3-2.5 5.6-5.6 5.6-3 0-5.6-2.5-5.7-5.6m132.2-103.1c0 1.4-1.1 2.5-2.5 2.5a2.5 2.5 0 0 1-2.5-2.5c0-1.4 1.1-2.5 2.5-2.5 1.3 0 2.5 1 2.5 2.5m5.1 91c0 1.8-1.5 3.3-3.3 3.3a3.3 3.3 0 0 1-3.3-3.3c0-1.8 1.5-3.2 3.3-3.3 1.8 0 3.2 1.5 3.3 3.3m37.1-59.4c0 1.7-1.4 3.2-3.2 3.2a3.3 3.3 0 0 1-3.3-3.2c0-1.8 1.5-3.3 3.2-3.3 1.8 0 3.3 1.4 3.3 3.2zm12.7-76c0 3.1-2.5 5.7-5.6 5.7a5.7 5.7 0 0 1-5.7-5.7c0-3 2.5-5.6 5.6-5.7 3.1 0 5.7 2.5 5.7 5.6m-99.7-7.9a9 9 0 0 1-18.1 0c0-5 4-9 9-9h.1c4.9 0 9 4 9 8.9m191.9 55.7c0 1.4-1.1 2.5-2.5 2.5a2.5 2.5 0 0 1-2.5-2.5c0-1.4 1-2.5 2.4-2.5s2.6 1 2.6 2.5m5 91c0 1.8-1.4 3.3-3.2 3.3a3.3 3.3 0 0 1-3.3-3.3c0-1.8 1.5-3.2 3.2-3.3 1.8 0 3.3 1.5 3.3 3.3m37.3-59.5c0 1.8-1.6 3.3-3.4 3.3a3.3 3.3 0 0 1-3.2-3.3c0-1.7 1.4-3.2 3.2-3.2 1.8 0 3.3 1.4 3.3 3.2zm12.6-75.9c-.4 2.8-2.8 5-5.6 5a5.7 5.7 0 0 1-5.7-5c0-3 2.5-5.5 5.6-5.6 3 0 5.7 2.5 5.7 5.6m-99.7-7.9c0 5-4.1 9-9 9-5 0-9.2-4-9.2-9s4-9 9-9c5-.1 9.1 4 9.2 8.9"/>
  <defs>
    <radialGradient id="a" cx="0" cy="0" r="1" gradientTransform="rotate(1.6 -14981.6 28876.4)scale(388.1253)" gradientUnits="userSpaceOnUse">
      <stop offset="0" stop-color="#4697b6" stop-opacity=".7"/>
      <stop offset="1" stop-color="#f6f6f6" stop-opacity="0"/>
    </radialGradient>
    <radialGradient id="b" cx="0" cy="0" r="1" gradientTransform="rotate(1.6 -20013.9 22656)scale(330.26176)" gradientUnits="userSpaceOnUse">
      <stop offset="0" stop-color="#46b687" stop-opacity=".5"/>
      <stop offset="1" stop-color="#f6f6f6" stop-opacity="0"/>
    </radialGradient>
    <radialGradient id="c" cx="0" cy="0" r="1" gradientTransform="rotate(1.6 -25694 15719)scale(388.1253)" gradientUnits="userSpaceOnUse">
      <stop offset="0" stop-color="#4697b6" stop-opacity=".7"/>
      <stop offset="1" stop-color="#f6f6f6" stop-opacity="0"/>
    </radialGradient>
    <radialGradient id="d" cx="0" cy="0" r="1" gradientTransform="rotate(1.6 -26734.7 24653)scale(547.8416)" gradientUnits="userSpaceOnUse">
      <stop offset="0" stop-color="#4697b6" stop-opacity=".4"/>
      <stop offset="1" stop-color="#f6f6f6" stop-opacity="0"/>
    </radialGradient>
    <radialGradient id="e" cx="0" cy="0" r="1" gradientTransform="scale(-388.1253 388.1253)rotate(1.6 -70.9 -75.5)" gradientUnits="userSpaceOnUse">
      <stop offset="0" stop-color="#4697b6" stop-opacity=".7"/>
      <stop offset="1" stop-color="#f6f6f6" stop-opacity="0"/>
    </radialGradient>
    <radialGradient id="f" cx="0" cy="0" r="1" gradientTransform="scale(-330.26176 330.26176)rotate(1.6 -98.6 -107.6)" gradientUnits="userSpaceOnUse">
      <stop offset="0" stop-color="#46b687" stop-opacity=".5"/>
      <stop offset="1" stop-color="#f6f6f6" stop-opacity="0"/>
    </radialGradient>
    <radialGradient id="g" cx="0" cy="0" r="1" gradientTransform="scale(-388.1253 388.1253)rotate(1.6 -98.5 -109.4)" gradientUnits="userSpaceOnUse">
      <stop offset="0" stop-color="#4697b6" stop-opacity=".7"/>
      <stop offset="1" stop-color="#f6f6f6" stop-opacity="0"/>
    </radialGradient>
    <radialGradient id="h" cx="0" cy="0" r="1" gradientTransform="scale(-547.8416 547.8416)rotate(1.6 -71.8 -61.1)" gradientUnits="userSpaceOnUse">
      <stop offset="0" stop-color="#4697b6" stop-opacity=".4"/>
      <stop offset="1" stop-color="#f6f6f6" stop-opacity="0"/>
    </radialGradient>
  </defs>
</svg>
